<svg width="179" height="178" viewBox="0 0 179 178" fill="none" xmlns="http://www.w3.org/2000/svg">
<g filter="url(#filter0_d_0_194)">
<ellipse cx="89.5" cy="86.2501" rx="31" ry="30.75" fill="#239172"/>
<path d="M118.5 86.2501C118.5 102.113 105.532 115 89.5 115C73.4684 115 60.5 102.113 60.5 86.2501C60.5 70.3871 73.4684 57.5001 89.5 57.5001C105.532 57.5001 118.5 70.3871 118.5 86.2501Z" stroke="white" stroke-width="4"/>
</g>
<ellipse cx="89.5" cy="86.2119" rx="4.85714" ry="4.88474" fill="white"/>
<path fill-rule="evenodd" clip-rule="evenodd" d="M81.0001 86.2119C81.0001 83.3956 82.4081 80.9297 84.515 79.5691L82.7588 77.6983C82.2837 78.05 81.8344 78.4488 81.4167 78.8937C79.582 80.8485 78.5715 83.4475 78.5715 86.2119C78.5715 88.9763 79.582 91.5753 81.4168 93.5301C81.8345 93.975 82.2838 94.3738 82.7588 94.7255L84.5151 92.8547C82.4081 91.4941 81.0001 89.0283 81.0001 86.2119Z" fill="white"/>
<path fill-rule="evenodd" clip-rule="evenodd" d="M98.0001 86.2119C98.0001 89.0282 96.592 91.4941 94.4852 92.8547L96.2414 94.7255C96.7165 94.3738 97.1658 93.975 97.5835 93.5301C99.4182 91.5753 100.429 88.9763 100.429 86.2119C100.429 83.4475 99.4182 80.8485 97.5834 78.8938C97.1657 78.4488 96.7164 78.05 96.2413 77.6983L94.4851 79.5692C96.592 80.9297 98.0001 83.3955 98.0001 86.2119Z" fill="white"/>
<path fill-rule="evenodd" clip-rule="evenodd" d="M74.9286 86.2119C74.9286 81.97 76.8449 78.205 79.8057 75.8458L78.073 74.0001C77.6178 74.3817 77.1821 74.7935 76.7679 75.2348C75.4305 76.6597 74.3802 78.3196 73.6461 80.1685C72.8856 82.0841 72.5 84.1173 72.5 86.2119C72.5 88.3065 72.8856 90.3398 73.6461 92.2553C74.3802 94.1043 75.4305 95.7642 76.7679 97.189C77.1821 97.6303 77.6178 98.0421 78.073 98.4238L79.8056 96.5781C76.8449 94.2188 74.9286 90.4538 74.9286 86.2119Z" fill="white"/>
<path fill-rule="evenodd" clip-rule="evenodd" d="M104.071 86.2119C104.071 90.4538 102.155 94.2188 99.1944 96.578L100.927 98.3982C101.382 98.0165 101.818 97.6302 102.232 97.189C103.569 95.7641 104.62 94.1043 105.354 92.2552C106.114 90.3398 106.5 88.3065 106.5 86.2119C106.5 84.1173 106.114 82.0841 105.354 80.1685C104.62 78.3195 103.569 76.6597 102.232 75.2348C101.818 74.7935 101.382 74.3817 100.927 74.0001L99.1943 75.8458C102.155 78.205 104.071 81.97 104.071 86.2119Z" fill="white"/>
<defs>
<filter id="filter0_d_0_194" x="0.5" y="0.500061" width="178" height="177.5" filterUnits="userSpaceOnUse" color-interpolation-filters="sRGB">
<feFlood flood-opacity="0" result="BackgroundImageFix"/>
<feColorMatrix in="SourceAlpha" type="matrix" values="0 0 0 0 0 0 0 0 0 0 0 0 0 0 0 0 0 0 127 0" result="hardAlpha"/>
<feMorphology radius="9" operator="dilate" in="SourceAlpha" result="effect1_dropShadow_0_194"/>
<feOffset dy="3"/>
<feGaussianBlur stdDeviation="24.5"/>
<feColorMatrix type="matrix" values="0 0 0 0 0 0 0 0 0 0 0 0 0 0 0 0 0 0 0.06 0"/>
<feBlend mode="normal" in2="BackgroundImageFix" result="effect1_dropShadow_0_194"/>
<feBlend mode="normal" in="SourceGraphic" in2="effect1_dropShadow_0_194" result="shape"/>
</filter>
</defs>
</svg>
