<svg width="137" height="158" viewBox="0 0 137 158" fill="none" xmlns="http://www.w3.org/2000/svg">
<path opacity="0.7" d="M7.92519 1.77093C25.7361 16.9609 72.7074 51.5952 132.363 53.2498C133.584 53.2863 134.74 53.7973 135.59 54.674C136.439 55.5501 136.913 56.7237 136.911 57.9442V152.468C136.912 153.674 136.449 154.834 135.618 155.707C134.787 156.581 133.652 157.102 132.447 157.161C114.511 158.053 46.4962 157.95 1.42876 109.699C0.625001 108.833 0.180321 107.693 0.183859 106.512V5.35065C0.183353 4.45373 0.439624 3.57503 0.922796 2.81883C1.40597 2.06319 2.09527 1.46102 2.90967 1.08468C3.72356 0.707865 4.62912 0.572124 5.51797 0.694226C6.40685 0.815767 7.24199 1.18905 7.92519 1.77093Z" fill="#1EAB89"/>
<path d="M14.6816 29.6256C14.6816 29.6256 28.7366 43.2825 47.9479 51.7658" stroke="white" stroke-width="3.76447" stroke-miterlimit="10" stroke-linecap="round"/>
<path opacity="0.4" d="M14.6816 46.1825C14.6816 46.1825 34.2424 64.4281 59.6878 71.2023" stroke="white" stroke-width="3.76447" stroke-miterlimit="10" stroke-linecap="round"/>
<path d="M11.7678 106.724V67.2432L25.61 77.1486V117.584L11.7678 106.724Z" fill="white"/>
<path d="M35.1318 122.678V94.5477L48.9741 102.825V130.635L35.1318 122.678Z" fill="white"/>
<path d="M94.3215 144.7V116.569L80.4795 114.675V142.483L94.3215 144.7Z" fill="white"/>
<path d="M117.058 145.905V96.6521H103.216V145.583L117.058 145.905Z" fill="white"/>
<path d="M57.8057 135.004V122.143L71.6479 126.035V140.017L57.8057 135.004Z" fill="white"/>
</svg>
