<svg width="192" height="220" viewBox="0 0 192 220" fill="none" xmlns="http://www.w3.org/2000/svg">
<path opacity="0.7" d="M180.673 2.32415C155.831 23.5132 90.3119 71.8247 7.09843 74.132C5.39605 74.1834 3.78193 74.8966 2.59701 76.1192C1.41208 77.3418 0.750221 78.9784 0.75343 80.6808V212.532C0.751825 214.214 1.39843 215.831 2.55769 217.051C3.71694 218.269 5.30058 218.995 6.98049 219.078C31.9995 220.323 126.871 220.179 189.739 152.874C190.859 151.665 191.481 150.075 191.477 148.427V7.31816C191.477 6.06665 191.117 4.84161 190.443 3.78665C189.769 2.73249 188.807 1.89254 187.673 1.36707C186.539 0.842396 185.272 0.653058 184.036 0.823135C182.795 0.99241 181.631 1.51387 180.673 2.32415Z" fill="#1EAB89"/>
<path d="M171.254 41.1787C171.254 41.1787 151.648 60.229 124.851 72.063" stroke="white" stroke-width="5.25105" stroke-miterlimit="10" stroke-linecap="round"/>
<path opacity="0.4" d="M171.253 64.2747C171.253 64.2747 143.965 89.7253 108.472 99.175" stroke="white" stroke-width="5.25105" stroke-miterlimit="10" stroke-linecap="round"/>
<path d="M17.8857 161.852C17.8857 161.852 36.1201 158.034 44.4579 149.189C55.5041 137.47 58.0528 123.416 70.1556 121.97C89.1497 119.702 100.161 186.762 123.22 177.689C146.28 168.615 140.83 118.538 154.55 110.05C164.001 104.203 168.913 121.592 182.147 117.056" stroke="white" stroke-width="5.25105" stroke-miterlimit="10" stroke-linecap="round"/>
</svg>
