<svg width="101" height="85" viewBox="0 0 101 85" fill="none" xmlns="http://www.w3.org/2000/svg">
<path opacity="0.7" d="M7.43197 0.825289C21.063 4.71701 52.9525 11.6717 94.7385 6.87424C95.41 6.77958 96.0943 6.83092 96.7433 7.02667C97.3932 7.22162 97.9924 7.55616 98.4987 8.00623C99.0057 8.45629 99.4092 9.01146 99.6804 9.6332C99.9507 10.2549 100.084 10.928 100.069 11.6059V76.0957C100.037 77.5189 99.5055 78.8859 98.5668 79.9545C97.6282 81.0239 96.3414 81.7275 94.9343 81.9417C80.0565 83.9762 35.8806 88.3268 2.96022 74.1133C2.11785 73.7411 1.40465 73.1273 0.911268 72.35C0.417081 71.5718 0.165174 70.6652 0.186835 69.745V6.52928C0.186835 2.78999 3.951 -0.168699 7.43197 0.825289Z" fill="url(#paint0_linear_867_1860)"/>
<defs>
<linearGradient id="paint0_linear_867_1860" x1="47.6408" y1="0.432185" x2="63.7668" y2="178.225" gradientUnits="userSpaceOnUse">
<stop stop-color="white"/>
<stop offset="1" stop-color="#94B9FF"/>
</linearGradient>
</defs>
</svg>
