<svg width="138" height="164" viewBox="0 0 138 164" fill="none" xmlns="http://www.w3.org/2000/svg">
<g opacity="0.7">
<path d="M129.903 1.29569C112.09 14.3734 79.5095 47.3515 8.39958 58.3084C2.95551 59.1471 0.916992 63.0206 0.916992 67.3007V157.462C0.947478 158.713 1.40795 159.916 2.22143 160.866C3.03411 161.818 4.15004 162.459 5.3815 162.684C23.3182 165.704 92.3945 148.083 133.702 112.608C137.647 109.22 137.647 103.536 137.647 102.354V5.79391C137.647 1.78771 132.952 -0.942593 129.903 1.29569Z" fill="url(#paint0_linear_886_963)"/>
</g>
<path d="M10.3193 74.3747V130.142C10.3185 130.628 10.4277 131.107 10.6371 131.544C10.8473 131.982 11.1529 132.366 11.5316 132.67C11.9102 132.974 12.3523 133.188 12.8248 133.298C13.2981 133.408 13.7891 133.41 14.2632 133.304C24.4205 131.029 51.8968 124.451 69.2487 116.266C69.8063 116.003 70.2715 115.589 70.6013 115.07C70.9254 114.551 71.1027 113.95 71.0971 113.337V59.0292C71.1027 58.4862 70.9655 57.9519 70.7024 57.4748C70.4441 56.9982 70.0694 56.5951 69.6081 56.3018C69.1524 56.0086 68.631 55.8348 68.0887 55.7969C67.5471 55.7589 67.0048 55.8576 66.509 56.0846C56.8403 60.5379 33.6039 70.2661 13.3928 71.1413C12.5633 71.1808 11.7803 71.5395 11.2075 72.1412C10.6347 72.7437 10.3169 73.5444 10.3193 74.3747Z" fill="white"/>
<path d="M12.8311 121.165V127.03C12.8311 127.475 12.933 127.913 13.1303 128.311C13.3269 128.709 13.6124 129.056 13.9654 129.326C14.3184 129.595 14.7292 129.78 15.1648 129.864C15.6012 129.949 16.0505 129.932 16.4789 129.816L46.873 121.506C47.3543 121.375 47.7899 121.123 48.1437 120.774C48.4983 120.424 48.7518 119.99 48.889 119.512C49.0254 119.034 49.0358 118.53 48.9187 118.047C48.8024 117.564 48.5641 117.119 48.2304 116.756L31.9318 99.2236C31.6382 98.9092 31.2836 98.6629 30.8841 98.5048C30.4838 98.3468 30.053 98.2794 29.6246 98.3083C29.1962 98.3372 28.779 98.4615 28.4051 98.6717C28.0305 98.8819 27.7072 99.1731 27.4593 99.5245L13.3589 119.5C13.0148 119.987 12.8311 120.568 12.8311 121.165Z" fill="#0E405B"/>
<path opacity="0.6" d="M43.8192 107.408L52.9408 117.087C53.2345 117.398 53.6139 117.614 54.0295 117.708C54.445 117.803 54.8807 117.77 55.281 117.614C57.9749 116.562 64.0271 114.182 67.0917 112.864C67.476 112.698 67.8001 112.424 68.0336 112.074C68.2614 111.724 68.3825 111.314 68.3825 110.896V101.827C68.3825 101.364 68.2309 100.913 67.9574 100.543L55.1334 83.3647C54.9007 83.0567 54.5919 82.8152 54.2373 82.6676C53.8827 82.52 53.4928 82.4702 53.1125 82.524C52.733 82.5777 52.3736 82.7326 52.0696 82.9732C51.7703 83.2139 51.5425 83.5308 51.4061 83.8902L43.3732 105.179C43.232 105.555 43.1959 105.963 43.2769 106.357C43.3531 106.751 43.5457 107.115 43.8192 107.408Z" fill="#1EAB89"/>
<path d="M35.8118 92.2954C38.5162 92.2954 40.7095 90.1036 40.7095 87.3993C40.7095 84.6941 38.5162 82.5023 35.8118 82.5023C33.1074 82.5023 30.9141 84.6941 30.9141 87.3993C30.9141 90.1036 33.1074 92.2954 35.8118 92.2954Z" fill="#FEBB94"/>
<path d="M85.2178 54.2647C97.7834 47.8923 109.877 40.6271 121.405 32.5256" stroke="white" stroke-width="5.25105" stroke-miterlimit="10" stroke-linecap="round"/>
<path d="M85.2178 75.4176C85.2178 75.4176 93.4529 71.404 104.753 64.5481" stroke="white" stroke-width="5.25105" stroke-miterlimit="10" stroke-linecap="round"/>
<path d="M85.2178 96.098C97.7834 89.725 109.877 82.4606 121.405 74.3586" stroke="white" stroke-width="5.25105" stroke-miterlimit="10" stroke-linecap="round"/>
<path d="M85.2178 119.317C97.7834 112.944 109.877 105.679 121.405 97.5774" stroke="white" stroke-width="5.25105" stroke-miterlimit="10" stroke-linecap="round"/>
<path d="M17.3028 149.387C19.7729 149.387 21.7754 147.385 21.7754 144.915C21.7754 142.445 19.7729 140.443 17.3028 140.443C14.8327 140.443 12.8311 142.445 12.8311 144.915C12.8311 147.385 14.8327 149.387 17.3028 149.387Z" fill="white"/>
<path d="M43.2369 142.151C45.7038 142.151 47.7094 140.149 47.7094 137.679C47.7094 135.209 45.7038 133.207 43.2369 133.207C40.7652 133.207 38.7651 135.209 38.7651 137.679C38.7651 140.149 40.7652 142.151 43.2369 142.151Z" fill="white"/>
<path d="M66.6254 134.162C69.0963 134.162 71.0972 132.159 71.0972 129.689C71.0972 127.219 69.0963 125.217 66.6254 125.217C64.1585 125.217 62.1528 127.219 62.1528 129.689C62.1528 132.159 64.1585 134.162 66.6254 134.162Z" fill="white"/>
<defs>
<linearGradient id="paint0_linear_886_963" x1="52.7937" y1="-202.103" x2="155.287" y2="332.513" gradientUnits="userSpaceOnUse">
<stop stop-color="white"/>
<stop offset="1" stop-color="#94B9FF"/>
</linearGradient>
</defs>
</svg>
