<svg width="138" height="149" viewBox="0 0 138 149" fill="none" xmlns="http://www.w3.org/2000/svg">
<g opacity="0.7">
<path d="M8.59356 1.63459C26.4045 14.7129 73.3757 48.8414 133.031 43.4214C133.611 43.3532 134.2 43.411 134.756 43.5899C135.312 43.7696 135.823 44.0664 136.255 44.4603C136.686 44.8542 137.028 45.3364 137.257 45.8739C137.485 46.4122 137.595 46.9922 137.58 47.5763V142.101C137.549 143.351 137.089 144.554 136.276 145.505C135.463 146.457 134.347 147.098 133.115 147.323C115.179 150.343 40.581 148.852 2.09661 110.334C1.69845 109.934 1.38349 109.46 1.16977 108.938C0.956048 108.417 0.848147 107.857 0.852159 107.293V6.1328C0.852159 2.12636 5.54508 -0.603691 8.59356 1.63459Z" fill="#1EAB89"/>
</g>
<path d="M37.5801 97.2717C27.6412 93.7675 19.5843 82.8697 19.5843 72.9306C19.5843 62.9915 27.6412 57.7753 37.5801 61.2803V49.7287C21.5235 44.0664 8.50732 52.4941 8.50732 68.5503C8.50732 84.6066 21.5235 102.213 37.5801 107.874C52.9584 113.297 65.5393 105.791 66.5758 91.0406L55.5056 87.1377C54.7234 96.0788 46.9993 100.593 37.5801 97.2717Z" fill="white"/>
<path d="M41.2717 47.3389V58.8897C51.2103 62.3947 59.2673 73.2925 59.2673 83.2316C59.2673 83.7514 59.2409 84.2552 59.1975 84.7478L70.267 88.6516C70.3127 88.0009 70.3448 87.3415 70.3448 86.6628C70.3448 70.6057 57.3275 53.0004 41.2717 47.3389Z" fill="#0E405B"/>
<path d="M84.2036 74.5815L104.757 78.4877" stroke="white" stroke-width="5.25105" stroke-miterlimit="10" stroke-linecap="round"/>
<path opacity="0.4" d="M84.2036 106.787L104.757 110.693" stroke="white" stroke-width="5.25105" stroke-miterlimit="10" stroke-linecap="round"/>
<path d="M84.2036 91.0125L113.733 96.6234" stroke="white" stroke-width="5.25105" stroke-miterlimit="10" stroke-linecap="round"/>
</svg>
