<svg width="99" height="56" viewBox="0 0 99 56" fill="none" xmlns="http://www.w3.org/2000/svg">
<path d="M87.5107 0.612671H11.6715C10.1833 0.612671 8.70958 0.90549 7.33532 1.47509C5.96107 2.04388 4.71198 2.87903 3.65943 3.93078C2.60768 4.98333 1.77253 6.23244 1.20374 7.6067C0.63414 8.98095 0.341309 10.4547 0.341309 11.9429V35.4055C0.341309 36.8937 0.63414 38.3666 1.20374 39.7417C1.77253 41.1167 2.60768 42.3658 3.65943 43.4176C4.71198 44.4701 5.96107 45.3044 7.33532 45.874C8.70958 46.4428 10.1833 46.7365 11.6715 46.7365H38.5958L46.5373 54.6804C47.2818 55.4249 48.2894 55.8428 49.3428 55.8428C50.3969 55.8428 51.4046 55.4249 52.149 54.6804L60.0906 46.7365H87.5107C90.5135 46.7365 93.4008 45.5427 95.5227 43.4176C97.6503 41.2932 98.84 38.4107 98.84 35.4055V11.9429C98.84 8.93763 97.6503 6.05594 95.5227 3.93078C93.4008 1.80642 90.5135 0.612671 87.5107 0.612671Z" fill="white"/>
<path d="M32.5134 16.2317C31.501 15.2963 30.1741 14.7772 28.7958 14.7772C27.4183 14.7772 26.0914 15.2963 25.079 16.2317L23.6791 17.5249L22.2783 16.2317C21.2659 15.2963 19.939 14.7772 18.5607 14.7772C17.1824 14.7772 15.8547 15.2963 14.8423 16.2317C14.308 16.7155 13.8812 17.3059 13.5884 17.9646C13.2963 18.624 13.1455 19.3364 13.1455 20.0568C13.1455 20.7781 13.2963 21.4912 13.5884 22.1499C13.8812 22.8085 14.308 23.399 14.8423 23.8828L23.6791 32.073L32.5134 23.9903C33.071 23.5097 33.5219 22.9144 33.8251 22.2454C34.134 21.5755 34.2912 20.8478 34.2912 20.1114C34.2912 19.3749 34.134 18.6473 33.8251 17.9774C33.5219 17.3083 33.071 16.7122 32.5134 16.2317Z" fill="#F4608A"/>
<path d="M42.3794 21.0171C42.4556 20.0255 42.8399 19.2482 43.5291 18.6874C44.2182 18.1266 45.1143 17.8458 46.2134 17.8458C46.9474 17.8458 47.5812 17.9806 48.1075 18.251C48.6498 18.5093 49.055 18.8655 49.3229 19.3179C49.6013 19.7712 49.7433 20.2839 49.7433 20.8559C49.7433 21.5241 49.5508 22.1018 49.1609 22.5871C48.7814 23.0725 48.2848 23.3854 47.6719 23.5258V23.6068C48.3706 23.7793 48.9282 24.1186 49.3382 24.6256C49.7489 25.1327 49.9559 25.7961 49.9559 26.616C49.9559 27.2314 49.8147 27.7865 49.5307 28.2831C49.2523 28.7693 48.8319 29.1519 48.2695 29.4327C47.7072 29.7127 47.0341 29.8531 46.2487 29.8531C45.1039 29.8531 44.1677 29.5563 43.4328 28.9626C42.6987 28.3585 42.288 27.5065 42.2021 26.4058H43.6253C43.7015 27.0532 43.9647 27.5819 44.4204 27.9919C44.8712 28.4018 45.4793 28.6072 46.2335 28.6072C46.9884 28.6072 47.5604 28.4131 47.9454 28.0248C48.3458 27.6253 48.548 27.1126 48.548 26.4869C48.548 25.6782 48.2744 25.0958 47.7377 24.7396C47.1962 24.3834 46.3803 24.2053 45.2916 24.2053H44.9218V22.9754H45.3117C46.2992 22.965 47.0541 22.8029 47.5604 22.4901C48.0674 22.1667 48.3201 21.6702 48.3201 21.0011C48.3201 20.4291 48.1332 19.971 47.7529 19.626C47.3887 19.281 46.8568 19.1078 46.1676 19.1078C45.4994 19.1078 44.9571 19.281 44.5471 19.626C44.1372 19.971 43.8941 20.4347 43.8227 21.0171H42.3794ZM53.704 27.7336L51.8957 32.0866H50.9081L52.0883 27.7336H53.704ZM62.6074 19.3508H56.9307V23.0404C57.1785 22.6946 57.5428 22.4146 58.0289 22.1988C58.5151 21.9718 59.0374 21.8595 59.5989 21.8595C60.4958 21.8595 61.2251 22.0472 61.7819 22.4251C62.3442 22.7917 62.7446 23.2722 62.9828 23.8659C63.2307 24.4483 63.3519 25.0685 63.3519 25.7263C63.3519 26.5037 63.2107 27.1985 62.9171 27.8146C62.6283 28.4291 62.1774 28.9145 61.5749 29.2707C60.982 29.6261 60.2424 29.805 59.3559 29.805C58.2271 29.805 57.3101 29.5129 56.6058 28.9305C55.907 28.3481 55.477 27.5707 55.3302 26.6H56.7678C56.9098 27.2153 57.2034 27.6951 57.6599 28.0408C58.11 28.3858 58.6828 28.5583 59.3711 28.5583C60.2271 28.5583 60.8657 28.3048 61.3013 27.7977C61.7313 27.2795 61.9439 26.6 61.9439 25.7592C61.9439 24.9169 61.7313 24.2702 61.3013 23.817C60.8657 23.3533 60.2327 23.1214 59.392 23.1214C58.8191 23.1214 58.3178 23.2618 57.8822 23.5418C57.4618 23.8114 57.1585 24.1836 56.9603 24.6585H55.5732V18.056H62.6074V19.3508ZM65.1353 28.5904C66.5023 27.4905 67.5765 26.5896 68.3507 25.8884C69.1313 25.1768 69.7843 24.4371 70.3114 23.671C70.8529 22.8944 71.1217 22.1338 71.1217 21.3894C71.1217 20.689 70.9492 20.1379 70.605 19.7391C70.2705 19.3292 69.7233 19.1246 68.9692 19.1246C68.2344 19.1246 67.6624 19.3565 67.2516 19.8202C66.8521 20.2726 66.6395 20.8823 66.6034 21.6485H65.1802C65.2259 20.4403 65.591 19.5073 66.2793 18.8494C66.9732 18.1908 67.8645 17.8619 68.954 17.8619C70.0627 17.8619 70.9444 18.1699 71.5878 18.7845C72.2456 19.399 72.5754 20.2462 72.5754 21.3252C72.5754 22.2205 72.3066 23.0941 71.7699 23.9461C71.238 24.7877 70.6355 25.5322 69.9568 26.1796C69.2781 26.8158 68.4068 27.5603 67.3479 28.4131H72.9147V29.6429H65.1353V28.5904ZM81.8181 19.2217L77.3207 29.7721H75.8317L80.3949 19.3669H74.1502V18.105H81.8181V19.2217Z" fill="#1C85E8"/>
</svg>
