<svg width="99" height="56" viewBox="0 0 99 56" fill="none" xmlns="http://www.w3.org/2000/svg">
<path d="M87.5107 0.612671H11.6715C10.1833 0.612671 8.70958 0.90549 7.33532 1.47509C5.96107 2.04388 4.71198 2.87903 3.65943 3.93078C2.60768 4.98333 1.77253 6.23244 1.20374 7.6067C0.63414 8.98095 0.341309 10.4547 0.341309 11.9429V35.4055C0.341309 36.8937 0.63414 38.3666 1.20374 39.7417C1.77253 41.1167 2.60768 42.3658 3.65943 43.4176C4.71198 44.4701 5.96107 45.3044 7.33532 45.874C8.70958 46.4428 10.1833 46.7365 11.6715 46.7365H38.5958L46.5373 54.6804C47.2818 55.4249 48.2894 55.8428 49.3428 55.8428C50.3969 55.8428 51.4046 55.4249 52.149 54.6804L60.0906 46.7365H87.5107C90.5135 46.7365 93.4008 45.5427 95.5227 43.4176C97.6503 41.2932 98.84 38.4107 98.84 35.4055V11.9429C98.84 8.93763 97.6503 6.05594 95.5227 3.93078C93.4008 1.80642 90.5135 0.612671 87.5107 0.612671Z" fill="white"/>
<path d="M32.5134 16.2317C31.501 15.2963 30.1741 14.7772 28.7958 14.7772C27.4183 14.7772 26.0914 15.2963 25.079 16.2317L23.6791 17.5249L22.2783 16.2317C21.2659 15.2963 19.939 14.7772 18.5607 14.7772C17.1824 14.7772 15.8547 15.2963 14.8423 16.2317C14.308 16.7155 13.8812 17.3059 13.5884 17.9646C13.2963 18.624 13.1455 19.3364 13.1455 20.0568C13.1455 20.7781 13.2963 21.4912 13.5884 22.1499C13.8812 22.8085 14.308 23.399 14.8423 23.8828L23.6791 32.073L32.5134 23.9903C33.071 23.5097 33.5219 22.9144 33.8251 22.2454C34.134 21.5755 34.2912 20.8478 34.2912 20.1114C34.2912 19.3749 34.134 18.6473 33.8251 17.9774C33.5219 17.3083 33.071 16.7122 32.5134 16.2317Z" fill="#F4608A"/>
</svg>
