<svg width="366" height="377" viewBox="0 0 366 377" fill="none" xmlns="http://www.w3.org/2000/svg">
<path d="M42.8867 0H348.219C352.838 0 357.265 1.83402 360.532 5.0986C363.793 8.36322 365.627 12.7908 365.627 17.4078V36.6277H25.4795V17.4078C25.4795 12.7908 27.3134 8.36322 30.5778 5.0986C33.8422 1.83402 38.2706 0 42.8867 0Z" fill="#0A2635"/>
<path d="M25.4795 36.6278H365.627V344.954C365.627 349.132 364.806 353.271 363.205 357.132C361.605 360.993 359.266 364.501 356.308 367.456C353.355 370.411 349.845 372.756 345.986 374.354C342.121 375.953 337.983 376.777 333.805 376.777H57.3024C53.1235 376.777 48.9854 375.953 45.1242 374.354C41.263 372.756 37.7547 370.411 34.8 367.456C31.8446 364.501 29.5012 360.993 27.9015 357.132C26.3026 353.271 25.4795 349.132 25.4795 344.954V36.6278Z" fill="#CEDEE7"/>
<path d="M247.724 255.341H154.426V300.652H247.724V255.341Z" fill="#DB936F"/>
<path d="M153.876 283.275C142.935 294.041 138.63 347.062 139.207 376.777H269.454C269.454 376.777 269.22 311.976 259.346 290.139C250.265 270.058 235.17 299.681 153.876 283.275Z" fill="#1F2D49"/>
<path d="M232.047 49.1344C232.047 49.1344 242.854 36.8075 263.831 35.0141C284.808 33.2207 291.085 51.5938 290.188 62.882C289.291 74.1701 272.853 97.4839 276.14 107.348C279.428 117.212 263.968 112.43 262.282 92.7017C260.597 72.9744 254.32 45.4757 237.283 55.3391L232.047 49.1344Z" fill="#080B09"/>
<path d="M232.047 49.1344C232.047 49.1344 242.854 36.8075 263.831 35.0141C284.808 33.2207 291.085 51.5938 290.188 62.882C289.291 74.1701 272.853 97.4839 276.14 107.348C279.428 117.212 263.968 112.43 262.282 92.7017C260.597 72.9744 254.32 45.4757 237.283 55.3391L232.047 49.1344Z" fill="#080B09"/>
<path d="M235.327 43.3642C235.327 43.3642 237.912 41.8665 239.784 45.3602C241.655 48.8537 245.151 55.9478 240.72 57.8283C236.29 59.7094 235.327 43.3642 235.327 43.3642Z" fill="#1C85E8"/>
<path d="M175.406 156.975C175.406 156.975 192.163 175.783 186.59 181.816C175.552 194.216 146.193 217.52 136.574 225.234C136.159 225.552 135.685 225.785 135.179 225.918C134.674 226.053 134.146 226.085 133.628 226.014C133.11 225.943 132.61 225.77 132.159 225.505C131.709 225.241 131.314 224.889 130.999 224.471L108.252 194.565C107.363 193.414 106.949 191.966 107.093 190.518C107.238 189.07 107.932 187.733 109.032 186.781L153.093 148.786L175.406 156.975Z" fill="#1EAB89"/>
<path d="M148.95 180.887C148.95 180.887 128.066 193.299 126.184 218.239L130.343 223.582C130.343 223.582 132.955 228.133 136.574 225.234C140.193 222.335 156.934 208.925 156.934 208.925L148.95 180.887Z" fill="#1EAB89"/>
<path d="M168.477 190.341C181.503 190.341 192.064 179.781 192.064 166.755C192.064 153.728 181.503 143.168 168.477 143.168C155.45 143.168 144.89 153.728 144.89 166.755C144.89 179.781 155.45 190.341 168.477 190.341Z" fill="#1EAB89"/>
<path d="M107.057 240.69L86.4448 213.398L105.958 198.249L109.016 195.787L130.398 223.749L126.675 226.426L107.057 240.69Z" fill="#DB936F"/>
<path d="M126.675 226.426C121.153 219.034 110.77 204.586 105.958 198.249L109.016 195.787L130.344 223.582L126.675 226.426Z" fill="#0E405B"/>
<path d="M96.4376 244.476C105.894 244.476 113.56 236.811 113.56 227.355C113.56 217.898 105.894 210.232 96.4376 210.232C86.9807 210.232 79.3152 217.898 79.3152 227.355C79.3152 236.811 86.9807 244.476 96.4376 244.476Z" fill="#DB936F"/>
<path d="M110.935 218.143C110.935 218.143 55.7017 137.03 53.1489 130.141C50.6644 123.413 37.6182 139.602 37.6182 139.602L80.3653 232.868L110.935 218.143Z" fill="#DB936F"/>
<path d="M186.975 105.027L180.335 151.321C180.335 151.321 178.592 157.465 186.328 158.395C194.064 159.325 210.559 157.246 216.449 150.968C222.341 144.691 220.28 141.58 220.28 141.58L207.785 91.3339L186.975 105.027Z" fill="#DB936F"/>
<path d="M186.051 111.018L202.293 105.281L182.171 135.104L186.051 111.018Z" fill="#BE6853"/>
<path d="M168.599 47.8459C168.599 47.8459 154.665 80.5861 161.927 103.026C166.663 117.661 176.976 120.291 200.597 109.324C222.255 99.2689 227.881 91.6628 227.881 91.6628L231.075 55.1648C231.075 55.1648 182.75 18.6638 168.599 47.8459Z" fill="#DB936F"/>
<path d="M180.218 138.01C180.218 138.01 162.368 142.97 158.746 145.868C155.123 148.765 152.489 172.321 147.134 183.956C139.208 201.18 134.077 210.344 147.393 229.274C155.424 240.69 152.693 269.716 152.693 269.716H250.475C247.512 212.644 260.622 145.365 260.622 145.365L216.491 135.196C206.541 136.911 180.218 138.01 180.218 138.01Z" fill="#1EAB89"/>
<path d="M177.097 138.931C177.097 138.931 178.417 129.959 182.635 129.328C186.853 128.696 212.631 124.819 216.641 126.507C220.649 128.196 225.504 138.931 225.504 138.931C225.504 138.931 217.274 159.005 205.456 160.059C193.638 161.115 173.299 157.472 175.45 150.008C177.601 142.545 177.097 138.931 177.097 138.931Z" fill="#1EAB89"/>
<path d="M169.069 141.658C169.069 141.658 171.92 158.972 187.406 158.699C202.892 158.425 225.396 135.196 225.396 135.196" stroke="white" stroke-width="0.687321" stroke-miterlimit="10"/>
<path d="M239.233 166.755C239.233 166.755 223.844 176.928 228.377 187.195C233.474 198.738 233.43 228.466 218.802 230.329C192.701 233.653 204.042 238.217 216.109 241.134C228.178 244.05 223.237 244.053 223.237 256.556C223.237 265.454 251.201 273.169 250.475 265.979C245.612 217.875 265.823 187.416 239.233 166.755Z" fill="#1EAB89"/>
<path d="M167.357 96.0157L180.319 96.6576C180.273 96.8164 180.203 97.0346 180.101 97.2921C179.881 97.8489 179.515 98.5829 178.935 99.2929C177.785 100.702 175.776 102.041 172.307 101.69C170.115 101.27 168.869 99.7976 168.164 98.4024C167.811 97.7037 167.596 97.0298 167.471 96.5308C167.419 96.3254 167.382 96.1505 167.357 96.0157Z" fill="#E56441" stroke="#E56441" stroke-width="0.506467"/>
<path d="M168.213 74.4931C168.754 72.485 168.088 70.5595 166.726 70.1917C165.364 69.824 163.821 71.154 163.278 73.1622C162.737 75.1703 163.403 77.0959 164.765 77.4636C166.127 77.8307 167.671 76.5013 168.213 74.4931Z" fill="#080B09"/>
<path d="M188.265 80.2113C188.807 78.2031 188.141 76.2775 186.778 75.9098C185.416 75.5426 183.873 76.8721 183.33 78.8802C182.79 80.8886 183.455 82.814 184.817 83.1814C186.18 83.5497 187.724 82.2195 188.265 80.2113Z" fill="#080B09"/>
<path d="M163.141 64.1209L173.336 67.0512C173.513 67.0867 173.697 67.0563 173.854 66.9662C174.011 66.876 174.13 66.7322 174.188 66.561C174.236 66.2394 174.217 65.9117 174.133 65.5977C174.05 65.2831 173.903 64.9894 173.702 64.7336C173.503 64.4774 173.252 64.2647 172.967 64.1082C172.683 63.9517 172.37 63.8539 172.046 63.822L163.291 62.9008C162.619 62.7194 162.302 63.8945 163.141 64.1209Z" fill="#080B09"/>
<path d="M197.992 72.8345L184.169 70.0059C184.294 69.5946 184.503 69.2138 184.784 68.8886C185.066 68.563 185.411 68.3001 185.8 68.1168C186.189 67.9334 186.612 67.8331 187.042 67.823C187.472 67.8129 187.898 67.8929 188.295 68.0581L198.386 72.0409C198.722 72.131 198.495 72.9707 197.992 72.8345Z" fill="#080B09"/>
<path d="M174.377 75.0674L167.82 83.8969L170.29 87.3883" stroke="#E56441" stroke-width="1.13389" stroke-linecap="round"/>
<path d="M186.571 171.401C187.84 171.401 188.87 168.557 188.87 165.049C188.87 161.542 187.84 158.698 186.571 158.698C185.301 158.698 184.272 161.542 184.272 165.049C184.272 168.557 185.301 171.401 186.571 171.401Z" fill="white"/>
<path d="M292.529 258.783L258.441 261.576L252.622 236.872L245.612 217.875L281.486 213.582L285.97 234.843L292.529 258.783Z" fill="#DB936F"/>
<path d="M282.696 219.323L283.954 225.285L248.627 226.045L246.303 219.748L282.696 219.323Z" fill="#0E405B"/>
<path d="M254.757 191.797C267.783 191.797 278.343 181.237 278.343 168.211C278.343 155.184 267.783 144.624 254.757 144.624C241.73 144.624 231.17 155.184 231.17 168.211C231.17 181.237 241.73 191.797 254.757 191.797Z" fill="#1EAB89"/>
<path d="M250.207 157.122C250.207 157.122 275.065 153.041 277.177 160.98C281.737 176.941 287.343 202.566 288.706 214.821C288.752 215.342 288.695 215.866 288.537 216.365C288.379 216.864 288.124 217.327 287.787 217.727C287.449 218.126 287.036 218.455 286.571 218.694C286.107 218.933 285.599 219.079 285.076 219.12L247.639 222.317C246.191 222.451 244.745 222.025 243.6 221.128C242.455 220.23 241.697 218.927 241.483 217.489L231.343 171.58L250.207 157.122Z" fill="#1EAB89"/>
<path d="M177.287 44.7337C177.287 44.7337 178.169 60.6368 191.64 68.3432C191.64 68.3432 195.58 80.5404 210.284 83.4092C210.284 83.4092 209.415 72.1984 216.423 72.3169C228.323 72.5185 222.47 90.5693 214.424 93.5304C208.957 95.5433 205.663 102.686 213.78 118.966C232.416 112.319 245.522 85.4742 240.384 55.6916C236.269 31.8411 206.702 24.0526 200.626 24.8296C200.626 24.8296 175.397 16.1138 162.113 40.0175C150.757 60.4514 161.362 72.6466 161.362 72.6466L167.415 54.4604C167.415 54.4604 169.942 56.2355 177.287 44.7337Z" fill="#080B09"/>
<path d="M177.287 44.7337C177.287 44.7337 178.169 60.6368 191.64 68.3432C191.64 68.3432 195.58 80.5404 210.284 83.4092C210.284 83.4092 209.415 72.1984 216.423 72.3169C228.323 72.5185 222.47 90.5693 214.424 93.5304C208.957 95.5433 205.663 102.686 213.78 118.966C232.416 112.319 245.522 85.4742 240.384 55.6916C236.269 31.8411 206.702 24.0526 200.626 24.8296C200.626 24.8296 175.397 16.1138 162.113 40.0175C150.757 60.4514 161.362 72.6466 161.362 72.6466L167.415 54.4604C167.415 54.4604 169.942 56.2355 177.287 44.7337Z" fill="#080B09"/>
<path d="M292.655 317.715H202.369C200.623 317.715 198.937 317.077 197.626 315.922C196.317 314.766 195.475 313.171 195.258 311.439L186.924 244.93C186.798 243.921 186.888 242.898 187.188 241.927C187.487 240.955 187.99 240.059 188.662 239.296C189.335 238.535 190.162 237.924 191.088 237.506C192.015 237.088 193.019 236.872 194.036 236.872H300.988C302.004 236.872 303.009 237.088 303.935 237.506C304.862 237.924 305.689 238.535 306.361 239.296C307.033 240.059 307.536 240.955 307.836 241.927C308.136 242.898 308.226 243.921 308.099 244.93L299.765 311.439C299.548 313.171 298.706 314.766 297.397 315.922C296.087 317.077 294.401 317.715 292.655 317.715Z" fill="url(#paint0_linear_886_964)"/>
<path d="M247.724 282.39C251.224 282.39 254.061 279.553 254.061 276.054C254.061 272.553 251.224 269.716 247.724 269.716C244.224 269.716 241.387 272.553 241.387 276.054C241.387 279.553 244.224 282.39 247.724 282.39Z" fill="white"/>
<path d="M39.9657 144.931L34.5248 134.492C34.5248 134.492 15.2875 123.488 13.0581 119.51C10.828 115.53 9.9519 104.171 13.8988 101.262C13.8988 101.262 -1.44969 89.7341 1.16316 87.3979C3.76743 84.8933 33.9232 107.295 33.9232 107.295C33.9232 107.295 30.2513 90.7906 35.8309 90.0173C37.3423 96.4136 39.9312 102.507 43.4868 108.034C49.3609 117.116 50.0845 125.251 50.0845 125.251L57.0079 138.537L39.9657 144.931Z" fill="#DB936F"/>
<path d="M14.9333 101.554L24.2286 107.412" stroke="#E56441" stroke-width="1.45451" stroke-linecap="round" stroke-linejoin="round"/>
<path d="M13.5479 108.255L21.4365 113.159" stroke="#E56441" stroke-width="1.45451" stroke-linecap="round" stroke-linejoin="round"/>
<path d="M15.0811 115.5L20.3427 118.825" stroke="#E56441" stroke-width="1.45451" stroke-linecap="round" stroke-linejoin="round"/>
<path d="M51.2943 22.7439C53.7412 22.7439 55.7243 20.7606 55.7243 18.3139C55.7243 15.8671 53.7412 13.8838 51.2943 13.8838C48.8474 13.8838 46.8643 15.8671 46.8643 18.3139C46.8643 20.7606 48.8474 22.7439 51.2943 22.7439Z" fill="white"/>
<path d="M69.1869 22.7439C71.6337 22.7439 73.6169 20.7606 73.6169 18.3139C73.6169 15.8671 71.6337 13.8838 69.1869 13.8838C66.74 13.8838 64.7568 15.8671 64.7568 18.3139C64.7568 20.7606 66.74 22.7439 69.1869 22.7439Z" fill="white"/>
<path d="M85.9981 22.7439C88.445 22.7439 90.4282 20.7606 90.4282 18.3139C90.4282 15.8671 88.445 13.8838 85.9981 13.8838C83.5521 13.8838 81.5681 15.8671 81.5681 18.3139C81.5681 20.7606 83.5521 22.7439 85.9981 22.7439Z" fill="white"/>
<path d="M274.27 315.001C274.27 315.001 279.042 315.397 278.324 317.805C277.604 320.213 273.344 319.102 269.454 321.509C265.565 323.918 250.185 325.636 242.503 324.356C234.822 323.075 232.688 315.001 232.688 315.001C232.688 315.001 231.403 307.34 244.973 306.554C258.541 305.767 264.856 310.12 267.217 314.841L274.27 315.001Z" fill="#DB936F"/>
<path d="M238.456 307.744L241.387 315.626" stroke="#E56441" stroke-width="1.13389" stroke-linecap="round"/>
<path d="M246.046 306.461L248.977 314.343" stroke="#E56441" stroke-width="1.13389" stroke-linecap="round"/>
<path d="M254.062 307.128L256.992 315.01" stroke="#E56441" stroke-width="1.13389" stroke-linecap="round"/>
<defs>
<linearGradient id="paint0_linear_886_964" x1="244.492" y1="236.68" x2="256.959" y2="409.197" gradientUnits="userSpaceOnUse">
<stop stop-color="white"/>
<stop offset="1" stop-color="#94B9FF"/>
</linearGradient>
</defs>
</svg>
