<svg width="75" height="43" viewBox="0 0 75 43" fill="none" xmlns="http://www.w3.org/2000/svg">
<path opacity="0.7" d="M8.54261 42.5706H65.7212C66.843 42.5706 67.9537 42.3499 68.9904 41.9207C70.0266 41.4915 70.9687 40.8618 71.7618 40.0692C72.5549 39.2757 73.184 38.3339 73.6134 37.2974C74.0429 36.2617 74.2637 35.1497 74.2637 34.029V16.3386C74.2637 15.217 74.0429 14.1067 73.6134 13.0694C73.184 12.0337 72.5549 11.091 71.7618 10.2984C70.9687 9.505 70.0266 8.87602 68.9904 8.44682C67.9537 8.01681 66.843 7.79622 65.7212 7.79622H45.4235L39.4335 1.80661C38.8728 1.24583 38.1121 0.930542 37.319 0.930542C36.5264 0.930542 35.7657 1.24583 35.205 1.80661L29.215 7.79622H8.54261C6.27665 7.79622 4.10391 8.69633 2.50195 10.2984C0.899989 11.9005 0 14.073 0 16.3386V34.029C0 36.2946 0.899989 38.4671 2.50195 40.0692C4.10391 41.6713 6.27665 42.5706 8.54261 42.5706Z" fill="#1C85E8"/>
<path d="M11.1692 32.2071H13.0421C13.3901 32.2063 13.7233 32.0683 13.969 31.8228C14.2151 31.5774 14.3533 31.2436 14.3539 30.8955V22.2785C14.3533 21.9311 14.2151 21.5974 13.969 21.3511C13.7233 21.1056 13.3901 20.9676 13.0421 20.9668H11.1692C10.8212 20.9676 10.488 21.1056 10.2423 21.3511C9.99621 21.5974 9.8579 21.9311 9.85742 22.2785V30.8955C9.8579 31.2436 9.99621 31.5774 10.2423 31.8228C10.488 32.0683 10.8212 32.2063 11.1692 32.2071Z" fill="white"/>
<path d="M19.4346 15.5339C18.6855 15.5339 18.3108 15.9086 18.3108 17.7827C18.3108 19.5628 16.5867 20.9957 15.4775 21.7337V31.0166C16.6774 31.5717 19.0785 32.394 22.8067 32.394H24.0055C24.7125 32.3948 25.3962 32.1461 25.9366 31.6905C26.477 31.2348 26.8391 30.6034 26.9581 29.9063L27.7974 25.0358C27.8718 24.6058 27.8515 24.1645 27.7371 23.7426C27.6231 23.3214 27.4186 22.9299 27.1375 22.5953C26.8559 22.2616 26.5049 21.9928 26.1093 21.8091C25.7133 21.6246 25.2818 21.5291 24.8452 21.5291H21.308C21.7061 20.5809 21.898 19.5596 21.8702 18.5319C21.8702 16.284 20.1842 15.5347 19.4346 15.5347V15.5339Z" fill="white"/>
</svg>
