<svg width="75" height="43" viewBox="0 0 75 43" fill="none" xmlns="http://www.w3.org/2000/svg">
<path opacity="0.7" d="M8.54261 42.5706H65.7212C66.843 42.5706 67.9537 42.3499 68.9904 41.9207C70.0266 41.4915 70.9687 40.8618 71.7618 40.0692C72.5549 39.2757 73.184 38.3339 73.6134 37.2974C74.0429 36.2617 74.2637 35.1497 74.2637 34.029V16.3386C74.2637 15.217 74.0429 14.1067 73.6134 13.0694C73.184 12.0337 72.5549 11.091 71.7618 10.2984C70.9687 9.505 70.0266 8.87602 68.9904 8.44682C67.9537 8.01681 66.843 7.79622 65.7212 7.79622H45.4235L39.4335 1.80661C38.8728 1.24583 38.1121 0.930542 37.319 0.930542C36.5264 0.930542 35.7657 1.24583 35.205 1.80661L29.215 7.79622H8.54261C6.27665 7.79622 4.10391 8.69633 2.50195 10.2984C0.899989 11.9005 0 14.073 0 16.3386V34.029C0 36.2946 0.899989 38.4671 2.50195 40.0692C4.10391 41.6713 6.27665 42.5706 8.54261 42.5706Z" fill="#1C85E8"/>
<path d="M35.479 29.5316C36.5121 28.7021 37.321 28.0234 37.907 27.4947C38.4924 26.9572 38.9848 26.4005 39.3833 25.8228C39.79 25.2372 39.9931 24.6636 39.9931 24.1028C39.9931 23.5741 39.863 23.1594 39.6027 22.8585C39.3504 22.5488 38.9397 22.394 38.3704 22.394C37.8173 22.394 37.3864 22.5697 37.0774 22.9187C36.7766 23.2604 36.6135 23.7201 36.5892 24.2978H35.5154C35.5483 23.3872 35.8249 22.6836 36.345 22.187C36.8657 21.6904 37.5368 21.4433 38.3582 21.4433C39.1959 21.4433 39.8589 21.6744 40.3471 22.1389C40.8429 22.6018 41.0911 23.2404 41.0911 24.0539C41.0911 24.7293 40.888 25.3872 40.4814 26.0298C40.0827 26.6644 39.627 27.226 39.1149 27.7137C38.6023 28.1935 37.9475 28.7551 37.1503 29.3977H41.3474V30.3243H35.479V29.5316ZM42.3624 28.4582V27.6167L46.6446 21.6864H47.9745V27.4947H49.1946V28.4582H47.9745V30.4221H46.8765V28.4582H42.3624ZM46.9251 22.8457L43.6432 27.4947H46.9251V22.8457ZM50.2795 23.822C50.3362 23.0735 50.6249 22.4879 51.1455 22.0651C51.6662 21.6423 52.3413 21.4305 53.1709 21.4305C53.724 21.4305 54.1995 21.5324 54.5981 21.7361C55.0048 21.9311 55.3097 22.1991 55.5133 22.5408C55.7245 22.8826 55.8303 23.2692 55.8303 23.7001C55.8303 24.2047 55.6839 24.6395 55.3913 25.0053C55.1066 25.3712 54.7323 25.607 54.2689 25.7129V25.7739C54.7977 25.9039 55.2165 26.1606 55.5254 26.5424C55.8344 26.9251 55.9889 27.4249 55.9889 28.0434C55.9889 28.5071 55.883 28.9259 55.6718 29.2998C55.4601 29.6664 55.1431 29.9544 54.7202 30.1662C54.2972 30.378 53.7888 30.4839 53.1952 30.4839C52.3332 30.4839 51.6251 30.2601 51.0721 29.8124C50.519 29.3567 50.2101 28.7141 50.1453 27.8846H51.2184C51.2756 28.3724 51.4747 28.7711 51.8166 29.08C52.158 29.3896 52.6138 29.5437 53.183 29.5437C53.7523 29.5437 54.1833 29.3976 54.4761 29.1048C54.7769 28.804 54.9278 28.4173 54.9278 27.9456C54.9278 27.3359 54.7242 26.8962 54.3175 26.6275C53.9108 26.3595 53.297 26.2255 52.4755 26.2255H52.1949V25.2981H52.4877C53.2357 25.2901 53.8009 25.1682 54.1833 24.9323C54.5657 24.6884 54.7566 24.3138 54.7566 23.81C54.7566 23.3792 54.6143 23.0326 54.3297 22.7727C54.0531 22.5119 53.6546 22.382 53.1339 22.382C52.63 22.382 52.2233 22.5119 51.9138 22.7727C51.6049 23.0326 51.4221 23.3832 51.3649 23.822H50.2795ZM62.4048 23.7001C62.226 22.7967 61.6689 22.3459 60.7335 22.3459C60.0092 22.3459 59.4683 22.6259 59.1107 23.1874C58.7526 23.7402 58.5779 24.6556 58.586 25.9327C58.7729 25.5091 59.0823 25.1802 59.5134 24.9444C59.9525 24.7005 60.4407 24.5785 60.977 24.5785C61.8153 24.5785 62.4817 24.8385 62.9781 25.3591C63.4825 25.8798 63.7348 26.5994 63.7348 27.5188C63.7348 28.0715 63.6248 28.5681 63.405 29.007C63.1939 29.4466 62.8682 29.7964 62.4291 30.0563C61.9981 30.3162 61.4734 30.4462 60.8555 30.4462C60.0173 30.4462 59.363 30.2601 58.8909 29.8854C58.4194 29.5108 58.0896 28.9949 57.9028 28.3363C57.7159 27.6776 57.6222 26.8641 57.6222 25.8958C57.6222 22.9106 58.6635 21.4185 60.7456 21.4185C61.5428 21.4185 62.1688 21.6343 62.6246 22.0651C63.0799 22.4959 63.3483 23.0414 63.4293 23.7001H62.4048ZM60.7456 25.518C60.3956 25.518 60.0665 25.591 59.7575 25.7378C59.448 25.8758 59.1958 26.0908 59.0008 26.3844C58.8139 26.6692 58.7202 27.0182 58.7202 27.4329C58.7202 28.0515 58.899 28.5553 59.2571 28.946C59.6152 29.3286 60.1272 29.5196 60.7942 29.5196C61.3635 29.5196 61.8152 29.3447 62.1485 28.9949C62.4904 28.6371 62.661 28.1574 62.661 27.5549C62.661 26.9211 62.4985 26.4245 62.1729 26.0667C61.8477 25.7009 61.3716 25.518 60.7456 25.518Z" fill="white"/>
<path d="M11.1692 32.2071H13.0421C13.3901 32.2063 13.7233 32.0683 13.969 31.8228C14.2151 31.5774 14.3533 31.2436 14.3539 30.8955V22.2785C14.3533 21.9311 14.2151 21.5974 13.969 21.3511C13.7233 21.1056 13.3901 20.9676 13.0421 20.9668H11.1692C10.8212 20.9676 10.488 21.1056 10.2423 21.3511C9.99621 21.5974 9.8579 21.9311 9.85742 22.2785V30.8955C9.8579 31.2436 9.99621 31.5774 10.2423 31.8228C10.488 32.0683 10.8212 32.2063 11.1692 32.2071Z" fill="white"/>
<path d="M19.4346 15.5339C18.6855 15.5339 18.3108 15.9086 18.3108 17.7827C18.3108 19.5628 16.5867 20.9957 15.4775 21.7337V31.0166C16.6774 31.5717 19.0785 32.394 22.8067 32.394H24.0055C24.7125 32.3948 25.3962 32.1461 25.9366 31.6905C26.477 31.2348 26.8391 30.6034 26.9581 29.9063L27.7974 25.0358C27.8718 24.6058 27.8515 24.1645 27.7371 23.7426C27.6231 23.3214 27.4186 22.9299 27.1375 22.5953C26.8559 22.2616 26.5049 21.9928 26.1093 21.8091C25.7133 21.6246 25.2818 21.5291 24.8452 21.5291H21.308C21.7061 20.5809 21.898 19.5596 21.8702 18.5319C21.8702 16.284 20.1842 15.5347 19.4346 15.5347V15.5339Z" fill="white"/>
</svg>
