<?xml version="1.0" standalone="no"?>
<!DOCTYPE svg PUBLIC "-//W3C//DTD SVG 20010904//EN"
 "http://www.w3.org/TR/2001/REC-SVG-20010904/DTD/svg10.dtd">
<svg version="1.0" xmlns="http://www.w3.org/2000/svg"
 width="824.000000pt" height="824.000000pt" viewBox="0 0 824.000000 824.000000"
 preserveAspectRatio="xMidYMid meet">
<metadata>
Created by potrace 1.14, written by Peter Selinger 2001-2017
</metadata>
<g transform="translate(0.000000,824.000000) scale(0.100000,-0.100000)"
fill="#000000" stroke="none">
<path d="M4208 7115 c-2 -1 -41 -5 -88 -9 -47 -3 -95 -8 -106 -10 -12 -2 -39
-7 -60 -10 -71 -12 -229 -58 -274 -81 -59 -30 -89 -63 -104 -116 -18 -66 -15
-1991 4 -2069 12 -52 34 -92 70 -132 24 -26 105 -57 173 -65 139 -17 383 -2
437 27 45 24 45 27 46 361 1 249 4 322 14 334 29 35 63 43 205 44 77 1 156 4
175 6 19 3 60 7 90 10 88 8 277 64 375 110 137 64 273 174 342 275 21 30 41
57 46 58 4 2 7 11 7 20 0 8 6 23 13 31 14 17 45 94 52 130 2 13 7 32 11 43 15
49 21 243 8 313 -4 22 -8 48 -9 57 0 10 -4 21 -8 24 -4 4 -7 16 -7 27 0 63
-102 232 -194 320 -98 96 -285 202 -406 231 -8 2 -44 12 -80 21 -36 9 -76 18
-90 20 -14 2 -25 4 -25 5 0 1 -11 3 -25 5 -14 1 -45 6 -70 10 -43 7 -515 16
-522 10z m408 -558 c77 -10 164 -52 208 -100 49 -54 69 -112 69 -202 1 -92
-19 -147 -74 -207 -31 -34 -118 -86 -158 -93 -52 -10 -117 -19 -126 -16 -5 1
-45 4 -88 5 -86 3 -126 23 -137 67 -3 13 -5 128 -4 256 1 258 5 275 66 291 30
8 179 7 244 -1z"/>
<path d="M2528 7095 c-2 -1 -32 -5 -68 -9 -65 -6 -127 -14 -165 -20 -20 -3
-20 -11 -21 -807 -1 -603 -4 -815 -14 -849 -35 -129 -122 -217 -255 -260 -112
-36 -297 -7 -375 60 -62 52 -79 72 -104 123 -39 80 -54 185 -45 320 0 6 0 68
-1 137 0 69 0 130 1 135 1 6 1 14 0 19 -7 34 -6 78 1 82 5 3 6 9 3 14 -5 9 -9
124 -5 145 1 6 2 14 1 19 -3 12 -3 188 0 201 1 6 1 14 0 18 -1 5 -3 48 -5 95
-7 190 -62 263 -225 298 -46 9 -244 12 -311 3 -36 -4 -92 -11 -125 -14 -33 -4
-63 -10 -67 -14 -9 -8 -10 -1265 -2 -1376 14 -191 108 -404 233 -524 84 -81
177 -150 247 -185 80 -39 207 -83 279 -97 28 -5 61 -11 75 -14 127 -27 512
-27 610 0 8 2 32 6 54 10 21 3 42 8 47 11 5 3 18 7 29 10 11 2 28 6 39 8 40 9
172 69 230 104 103 63 222 172 281 257 59 86 120 238 134 338 4 27 10 59 12
70 7 32 6 1404 -1 1456 -22 165 -121 230 -362 236 -67 2 -123 2 -125 0z"/>
<path d="M6676 4603 c-1 -1 -27 -5 -57 -9 -218 -24 -429 -102 -611 -225 -106
-72 -244 -220 -310 -334 -57 -98 -123 -243 -133 -295 -2 -8 -8 -33 -13 -55
-45 -168 -50 -460 -11 -650 12 -57 46 -180 59 -210 108 -248 186 -357 345
-482 33 -26 62 -50 65 -53 16 -20 249 -140 270 -140 6 0 18 -4 28 -9 39 -21
238 -63 367 -77 69 -7 299 -8 365 0 43 5 86 11 160 22 42 6 125 29 200 55 30
11 58 20 62 20 4 0 39 16 78 35 38 18 71 33 73 32 1 -2 37 22 80 51 93 65 195
163 260 251 26 36 52 71 57 78 6 6 8 12 4 12 -4 0 0 8 8 18 27 31 92 167 104
218 4 16 10 34 14 39 8 11 36 134 46 200 10 69 12 369 3 426 -21 133 -27 162
-40 196 -6 16 -10 29 -9 31 3 4 -17 54 -52 132 -36 80 -110 208 -138 238 -11
12 -18 22 -15 22 14 0 -168 170 -228 213 -69 49 -277 163 -277 151 0 -3 -11 1
-25 10 -14 9 -25 14 -25 12 0 -3 -19 1 -41 10 -50 17 -78 23 -169 38 -14 3
-25 5 -25 6 0 2 -34 8 -95 15 -52 7 -369 13 -374 8z m317 -565 c136 -43 196
-78 272 -155 45 -47 119 -182 129 -235 2 -15 7 -32 10 -37 4 -5 8 -24 11 -43
2 -18 7 -55 11 -83 15 -108 6 -349 -15 -423 -5 -18 -10 -33 -10 -35 0 -23 -45
-130 -72 -171 -31 -46 -116 -133 -147 -150 -9 -5 -19 -12 -22 -15 -3 -3 -26
-16 -52 -29 -97 -47 -286 -63 -398 -33 -133 36 -277 147 -333 257 -28 55 -66
167 -73 212 -43 301 -10 566 91 717 69 104 180 183 305 216 73 19 241 23 293
7z"/>
<path d="M847 4594 c-1 -1 -63 -4 -137 -8 -74 -3 -146 -8 -160 -10 -14 -2 -48
-7 -77 -10 -28 -3 -57 -8 -65 -11 -7 -2 -31 -7 -53 -9 -113 -14 -254 -65 -301
-109 -57 -54 -54 3 -54 -1063 0 -1088 -3 -1032 66 -1113 20 -23 55 -53 80 -67
44 -26 174 -77 174 -68 0 3 8 0 17 -5 23 -12 62 -19 238 -45 129 -20 576 -28
663 -13 18 4 50 9 70 12 21 3 49 8 62 10 14 3 41 8 60 11 19 3 43 10 53 15 9
5 17 8 17 5 0 -2 37 7 83 21 300 92 556 303 691 571 29 58 87 202 80 202 -2 0
1 11 6 26 11 27 15 47 28 144 17 119 21 295 9 415 -26 278 -140 538 -310 711
-158 159 -405 286 -662 339 -117 24 -115 24 -175 29 -30 3 -55 6 -55 6 0 3
-345 17 -348 14z m305 -574 c59 -15 158 -54 197 -78 39 -24 115 -85 124 -99 4
-7 14 -18 22 -26 31 -31 97 -160 111 -217 2 -8 8 -33 13 -55 20 -78 28 -243
18 -346 -11 -100 -20 -136 -56 -227 -54 -135 -176 -252 -321 -310 -62 -24
-140 -43 -151 -36 -4 2 -10 0 -13 -5 -7 -11 -326 -8 -344 3 -16 9 -17 1381 -2
1391 5 3 40 9 77 12 38 3 69 6 70 7 9 8 212 -4 255 -14z"/>
<path d="M3017 4564 c-3 -3 -66 -12 -132 -18 -16 -2 -40 -6 -53 -10 l-23 -8 4
-841 c2 -463 7 -858 11 -877 26 -141 103 -302 193 -408 123 -143 340 -271 540
-316 151 -34 239 -42 419 -40 145 1 234 8 274 19 8 2 29 7 47 10 59 10 239 73
309 108 138 70 250 162 333 276 44 60 116 213 130 276 6 28 15 61 18 75 4 14
8 360 10 770 2 811 2 815 -54 888 -27 35 -101 75 -163 87 -52 11 -306 13 -357
4 -24 -5 -71 -11 -106 -15 -34 -3 -64 -8 -67 -11 -3 -2 -5 -363 -6 -801 -1
-438 -4 -813 -8 -832 -10 -55 -55 -139 -95 -180 -147 -149 -415 -154 -572 -12
-40 36 -94 130 -103 177 -2 17 -7 41 -10 55 -3 14 -6 332 -6 708 -1 663 -1
686 -21 746 -22 65 -77 129 -121 139 -13 3 -49 12 -82 20 -50 13 -299 21 -309
11z"/>
<path d="M1205 1533 c-11 -3 -24 -9 -29 -13 -9 -9 -11 -324 -1 -339 3 -6 15
-11 26 -11 19 0 23 19 21 113 -1 25 2 27 42 27 40 0 47 -4 81 -47 64 -80 84
-96 100 -83 13 11 8 20 -28 64 -23 28 -45 53 -49 54 -16 7 -7 20 22 32 79 33
76 149 -5 193 -20 11 -144 18 -180 10z m129 -37 c41 -17 55 -40 49 -80 -7 -49
-37 -67 -107 -63 l-61 4 -1 69 c0 38 0 71 2 75 6 12 85 9 118 -5z"/>
<path d="M2584 1523 c-21 -22 -10 -28 49 -28 l52 -1 1 -154 c0 -148 1 -154 22
-163 12 -6 25 -8 28 -4 3 3 6 78 6 166 l0 161 58 0 c37 0 62 5 69 14 7 8 8 16
4 19 -4 3 -68 5 -141 5 -106 0 -136 -3 -148 -15z"/>
<path d="M4003 1529 c-87 -20 -143 -116 -128 -216 11 -76 68 -136 142 -149 14
-3 28 -6 32 -6 17 -5 109 15 128 27 19 13 21 22 19 90 -1 44 -7 79 -14 83 -13
9 -120 8 -128 -1 -15 -15 6 -33 35 -31 l31 2 -2 -56 -3 -57 -53 -3 c-40 -2
-62 2 -92 19 -49 28 -64 63 -58 137 3 49 9 65 35 92 26 28 40 34 85 38 35 3
66 -1 91 -12 35 -14 38 -14 44 1 6 14 -14 33 -42 40 -41 9 -86 10 -122 2z"/>
<path d="M4748 1528 c-33 -11 -49 -54 -38 -101 4 -19 10 -39 14 -45 3 -5 -7
-15 -22 -21 -41 -17 -65 -63 -58 -112 7 -52 10 -56 57 -78 51 -25 134 -22 179
6 32 20 33 20 51 2 19 -19 59 -26 59 -11 0 5 -16 25 -36 45 -29 29 -34 39 -25
50 15 19 30 102 21 118 -15 23 -38 0 -44 -45 -4 -25 -11 -46 -15 -46 -4 0 -41
33 -83 73 -95 94 -96 127 -2 130 50 2 68 19 37 35 -22 12 -60 12 -95 0z m75
-234 c58 -56 58 -56 36 -72 -44 -30 -139 -19 -159 18 -24 44 6 110 49 110 9 0
42 -25 74 -56z"/>
<path d="M7318 1534 c-3 -2 -16 -7 -28 -9 -134 -26 -169 -248 -51 -329 34 -23
104 -44 126 -37 6 2 26 5 45 7 47 6 89 33 69 45 -11 6 -14 24 -12 73 2 41 -1
68 -9 72 -22 14 -127 10 -133 -4 -9 -23 3 -30 45 -27 22 1 40 -2 41 -6 0 -5 1
-25 1 -44 0 -68 2 -65 -60 -65 -49 0 -65 5 -100 31 -23 17 -43 39 -44 50 -9
115 0 150 50 184 43 30 128 34 166 10 20 -14 25 -14 35 -1 10 12 8 18 -11 30
-23 15 -120 30 -130 20z"/>
<path d="M772 1518 c-6 -6 -12 -16 -12 -21 0 -4 -12 -34 -26 -65 -32 -71 -94
-233 -94 -248 0 -7 9 -14 20 -17 22 -6 38 15 46 61 3 15 8 29 10 32 3 3 43 6
89 6 l84 2 21 -49 c15 -35 26 -49 40 -49 11 0 20 4 20 8 0 11 -53 160 -92 262
-31 78 -36 85 -63 88 -17 2 -36 -3 -43 -10z m57 -88 c6 -19 10 -37 9 -40 0 -3
9 -24 21 -47 15 -31 18 -43 9 -44 -37 -3 -119 -1 -123 3 -5 4 7 49 23 88 3 8
7 20 7 25 1 6 7 23 14 39 13 33 23 27 40 -24z"/>
<path d="M1669 1523 c-1 -5 -2 -80 -2 -167 -2 -163 3 -186 39 -186 14 0 16 16
16 127 l0 43 55 -53 c31 -28 72 -68 92 -87 34 -32 71 -42 71 -19 0 9 -42 52
-124 128 l-48 45 77 73 c52 48 75 78 71 88 -3 8 -9 15 -14 15 -5 0 -46 -36
-91 -80 -46 -44 -84 -80 -86 -80 -1 0 -2 32 -3 70 0 39 -4 75 -7 80 -7 12 -45
14 -46 3z"/>
<path d="M2154 1517 c-2 -7 -3 -87 -2 -177 l3 -165 103 -1 c56 0 103 3 104 8
5 31 2 33 -87 33 l-90 0 -3 62 -3 62 88 3 c71 2 88 6 91 19 2 13 -8 16 -60 16
-112 1 -104 -3 -103 53 0 27 4 53 8 57 5 4 47 8 95 8 75 0 87 2 90 18 3 15 -7
17 -113 17 -85 0 -117 -3 -121 -13z"/>
<path d="M3066 1522 c-3 -3 -6 -83 -6 -179 0 -177 1 -183 38 -170 4 1 7 79 8
174 0 155 -1 172 -17 176 -10 3 -20 2 -23 -1z"/>
<path d="M3349 1428 c-2 -153 1 -252 7 -258 10 -9 29 -6 42 7 10 10 12 47 10
148 -2 74 0 135 5 135 4 0 7 -6 7 -14 0 -7 7 -19 15 -26 8 -7 13 -22 11 -34
-3 -20 21 -78 37 -84 4 -2 7 -8 7 -12 0 -5 18 -38 41 -73 43 -69 82 -93 104
-64 12 17 14 325 2 345 -5 6 -17 12 -28 12 -20 0 -20 -5 -17 -145 l3 -145 -20
36 c-42 74 -143 236 -160 254 -10 11 -29 20 -42 20 -23 0 -23 -2 -24 -102z"/>
<path d="M5498 1519 c-16 -4 -28 -4 -28 -1 0 4 -5 0 -10 -8 -5 -8 -10 -85 -10
-171 0 -121 3 -159 14 -168 14 -12 115 -17 154 -7 97 23 142 75 148 171 4 66
-26 126 -78 155 -55 31 -137 43 -190 29z m150 -41 c59 -29 87 -151 48 -210
-22 -34 -83 -58 -146 -58 -57 0 -52 -16 -52 150 0 55 1 108 1 119 1 16 8 18
62 15 34 -2 73 -10 87 -16z"/>
<path d="M5995 1520 c-5 -8 -9 -205 -6 -322 l1 -27 100 1 c73 1 103 5 112 15
19 23 -5 30 -97 29 -95 -1 -93 -2 -87 81 l4 42 86 3 c69 2 87 6 87 18 0 12
-15 15 -70 16 -38 1 -74 2 -80 3 -5 1 -10 26 -11 56 0 49 2 55 20 56 12 1 50
2 86 4 89 3 90 3 90 20 0 12 -19 15 -114 15 -67 0 -117 -4 -121 -10z"/>
<path d="M6472 1510 c-52 -32 -62 -83 -27 -136 10 -16 39 -31 93 -47 82 -25
111 -52 91 -88 -19 -37 -119 -48 -160 -18 -23 16 -29 17 -38 5 -9 -11 -6 -18
18 -35 27 -20 70 -26 145 -22 34 1 96 59 96 90 0 55 -54 102 -135 116 -42 8
-78 32 -69 46 3 5 1 9 -4 9 -18 0 -1 37 21 49 36 18 70 19 110 3 43 -17 70 -5
41 18 -19 17 -32 20 -99 26 -39 4 -57 0 -83 -16z"/>
<path d="M6896 1523 c-12 -13 -5 -341 7 -352 30 -24 35 4 34 172 0 147 -3 169
-17 177 -10 5 -20 6 -24 3z"/>
<path d="M7709 1518 c0 -7 0 -87 0 -177 0 -164 5 -187 36 -175 8 3 11 44 10
139 -1 74 0 135 4 135 3 0 16 -22 28 -48 31 -65 132 -224 152 -239 22 -16 61
-12 62 7 7 74 3 328 -4 338 -5 6 -18 12 -29 12 -18 0 -19 -7 -16 -140 2 -77 1
-140 -2 -140 -3 0 -18 24 -33 53 -39 74 -122 209 -143 230 -20 20 -64 23 -65
5z"/>
<path d="M75 1502 c-6 -4 -11 -18 -12 -32 -4 -55 -13 -137 -19 -170 -12 -77
-8 -123 12 -131 30 -12 32 -11 38 19 9 47 28 203 29 250 1 12 2 22 3 22 1 0
25 -47 52 -104 40 -81 55 -103 71 -102 22 1 62 55 96 129 l23 48 6 -33 c3 -18
9 -71 12 -118 4 -47 8 -92 10 -100 1 -8 3 -23 3 -32 1 -21 40 -25 42 -5 3 25
-2 81 -25 276 -9 72 -15 83 -44 79 -23 -2 -33 -16 -64 -78 -20 -41 -44 -88
-53 -104 l-16 -30 -44 98 c-25 54 -50 105 -56 112 -12 15 -48 18 -64 6z"/>
</g>
</svg>
