<svg width="282" height="281" viewBox="0 0 282 281" fill="none" xmlns="http://www.w3.org/2000/svg">
<path opacity="0.0535017" fill-rule="evenodd" clip-rule="evenodd" d="M194.872 178.956C187.484 185.608 176.103 185.011 169.451 177.623L103.044 103.872C96.3924 96.484 96.9889 85.1026 104.377 78.4507L178.128 12.0444C185.516 5.39244 196.897 5.98891 203.549 13.3766L269.956 87.1283C276.608 94.516 276.011 105.897 268.623 112.549L194.872 178.956Z" fill="#2196F3"/>
<path opacity="0.05" fill-rule="evenodd" clip-rule="evenodd" d="M143.064 261.048C130.764 272.08 111.859 271.089 100.779 258.832L20.1962 169.686C9.05495 157.361 10.0524 138.328 22.421 127.235L111.936 46.9522C124.236 35.9203 143.141 36.9111 154.221 49.1683L234.804 138.314C245.945 150.639 244.948 169.672 232.579 180.765L143.064 261.048Z" fill="#03A9F4"/>
</svg>
