<svg width="622" height="547" viewBox="0 0 622 547" fill="none" xmlns="http://www.w3.org/2000/svg">
<path d="M124.508 0H505.103C510.86 0 516.378 2.28609 520.45 6.35537C524.515 10.4247 526.801 15.9437 526.801 21.6987V45.6562H102.81V21.6987C102.81 15.9437 105.096 10.4247 109.165 6.35537C113.234 2.28609 118.754 0 124.508 0Z" fill="#0A2635"/>
<path d="M102.81 45.6562H526.801V429.982C526.801 435.191 525.778 440.35 523.783 445.162C521.788 449.975 518.872 454.348 515.185 458.031C511.504 461.715 507.129 464.637 502.319 466.63C497.502 468.623 492.344 469.65 487.136 469.65H142.477C137.268 469.65 132.11 468.623 127.297 466.63C122.484 464.637 118.111 461.715 114.428 458.031C110.744 454.348 107.823 449.975 105.829 445.162C103.836 440.35 102.81 435.191 102.81 429.982V45.6562Z" fill="#CEDEE7"/>
<path d="M379.836 318.281H263.541V374.76H379.836V318.281Z" fill="#DB936F"/>
<path d="M262.856 353.1C249.217 366.52 243.851 432.61 244.57 469.65H406.923C406.923 469.65 406.631 388.876 394.323 361.656C383.003 336.625 364.188 373.55 262.856 353.1Z" fill="#1F2D49"/>
<path d="M360.295 61.2457C360.295 61.2457 373.766 45.8803 399.914 43.6448C426.062 41.4094 433.886 64.3113 432.768 78.3819C431.65 92.4525 411.159 121.513 415.257 133.809C419.355 146.104 400.084 140.143 397.983 115.552C395.883 90.962 388.058 56.6851 366.822 68.9798L360.295 61.2457Z" fill="#080B09"/>
<path d="M364.384 54.0532C364.384 54.0532 367.606 52.1864 369.939 56.5412C372.272 60.8959 376.629 69.7386 371.106 72.0827C365.584 74.4274 364.384 54.0532 364.384 54.0532Z" fill="#1C85E8"/>
<path d="M289.692 195.668C289.692 195.668 310.58 219.113 303.633 226.633C289.874 242.089 253.279 271.137 241.289 280.753C240.771 281.149 240.18 281.439 239.55 281.605C238.92 281.773 238.262 281.813 237.617 281.725C236.971 281.636 236.348 281.421 235.786 281.091C235.224 280.761 234.732 280.323 234.34 279.802L205.986 242.524C204.878 241.089 204.361 239.284 204.541 237.479C204.722 235.675 205.587 234.008 206.958 232.821L261.88 185.461L289.692 195.668Z" fill="#1EAB89"/>
<path d="M256.715 225.474C256.715 225.474 230.684 240.946 228.338 272.033L233.522 278.693C233.522 278.693 236.777 284.366 241.289 280.753C245.8 277.139 266.667 260.424 266.667 260.424L256.715 225.474Z" fill="#1EAB89"/>
<path d="M281.055 237.259C297.292 237.259 310.456 224.096 310.456 207.859C310.456 191.621 297.292 178.458 281.055 178.458C264.818 178.458 251.654 191.621 251.654 207.859C251.654 224.096 264.818 237.259 281.055 237.259Z" fill="#1EAB89"/>
<path d="M204.496 300.019L178.803 265.999L203.126 247.116L206.938 244.047L233.59 278.901L228.949 282.239L204.496 300.019Z" fill="#DB936F"/>
<path d="M228.949 282.239C222.066 273.024 209.124 255.015 203.126 247.116L206.938 244.047L233.523 278.693L228.949 282.239Z" fill="#0E405B"/>
<path d="M191.259 304.738C203.046 304.738 212.602 295.183 212.602 283.396C212.602 271.608 203.046 262.053 191.259 262.053C179.471 262.053 169.916 271.608 169.916 283.396C169.916 295.183 179.471 304.738 191.259 304.738Z" fill="#DB936F"/>
<path d="M209.33 271.914C209.33 271.914 140.482 170.807 137.3 162.22C134.203 153.834 117.941 174.013 117.941 174.013L171.225 290.268L209.33 271.914Z" fill="#DB936F"/>
<path d="M304.113 130.916L295.837 188.62C295.837 188.62 293.664 196.279 303.307 197.438C312.949 198.597 333.51 196.006 340.852 188.181C348.196 180.356 345.627 176.479 345.627 176.479L330.053 113.847L304.113 130.916Z" fill="#DB936F"/>
<path d="M302.962 138.383L323.207 131.232L298.125 168.406L302.962 138.383Z" fill="#BE6853"/>
<path d="M281.208 59.6396C281.208 59.6396 263.839 100.45 272.891 128.421C278.794 146.663 291.65 149.942 321.093 136.272C348.09 123.738 355.102 114.257 355.102 114.257L359.083 68.7626C359.083 68.7626 298.847 23.2643 281.208 59.6396Z" fill="#DB936F"/>
<path d="M295.69 172.029C295.69 172.029 273.441 178.211 268.926 181.823C264.41 185.435 261.126 214.797 254.452 229.3C244.572 250.77 238.176 262.193 254.774 285.788C264.785 300.019 261.381 336.199 261.381 336.199H383.265C379.572 265.059 395.913 181.197 395.913 181.197L340.905 168.521C328.502 170.659 295.69 172.029 295.69 172.029Z" fill="#1EAB89"/>
<path d="M291.8 173.176C291.8 173.176 293.445 161.993 298.703 161.206C303.961 160.419 336.093 155.586 341.091 157.69C346.088 159.795 352.139 173.176 352.139 173.176C352.139 173.176 341.88 198.198 327.15 199.513C312.419 200.829 287.066 196.288 289.747 186.984C292.428 177.681 291.8 173.176 291.8 173.176Z" fill="#1EAB89"/>
<path d="M281.793 176.576C281.793 176.576 285.347 198.157 304.651 197.817C323.954 197.476 352.005 168.521 352.005 168.521" stroke="white" stroke-width="0.856741" stroke-miterlimit="10"/>
<path d="M369.252 207.859C369.252 207.859 350.07 220.54 355.721 233.337C362.074 247.725 362.019 284.781 343.785 287.103C311.251 291.247 325.387 296.936 340.429 300.572C355.473 304.207 349.314 304.211 349.314 319.795C349.314 330.887 384.17 340.503 383.265 331.541C377.204 271.58 402.397 233.613 369.252 207.859Z" fill="#1EAB89"/>
<path d="M279.66 119.683L295.817 120.483C295.759 120.681 295.672 120.953 295.545 121.274C295.27 121.968 294.814 122.883 294.091 123.768C292.658 125.525 290.154 127.194 285.829 126.756C283.097 126.233 281.544 124.397 280.665 122.658C280.225 121.787 279.958 120.947 279.801 120.325C279.737 120.069 279.691 119.851 279.66 119.683Z" fill="#E56441" stroke="#E56441" stroke-width="0.631307"/>
<path d="M280.726 92.8552C281.401 90.3521 280.571 87.9519 278.873 87.4935C277.175 87.0352 275.251 88.693 274.575 91.1962C273.9 93.6993 274.73 96.0995 276.428 96.5579C278.126 97.0155 280.05 95.3584 280.726 92.8552Z" fill="#080B09"/>
<path d="M305.721 99.9827C306.396 97.4796 305.567 95.0793 303.868 94.621C302.17 94.1633 300.246 95.8205 299.57 98.3236C298.896 100.827 299.725 103.227 301.423 103.685C303.122 104.144 305.046 102.486 305.721 99.9827Z" fill="#080B09"/>
<path d="M274.405 79.9261L287.112 83.5788C287.333 83.623 287.562 83.5851 287.758 83.4728C287.954 83.3604 288.102 83.1811 288.175 82.9677C288.234 82.5668 288.21 82.1584 288.106 81.767C288.002 81.3749 287.819 81.0088 287.569 80.6899C287.32 80.3705 287.008 80.1054 286.653 79.9103C286.299 79.7152 285.908 79.5934 285.504 79.5536L274.591 78.4053C273.754 78.1792 273.359 79.6439 274.405 79.9261Z" fill="#080B09"/>
<path d="M317.846 90.7877L300.615 87.2619C300.771 86.7492 301.032 86.2745 301.382 85.8692C301.733 85.4633 302.164 85.1356 302.649 84.9071C303.133 84.6785 303.66 84.5535 304.196 84.5409C304.732 84.5283 305.264 84.628 305.759 84.8339L318.337 89.7985C318.755 89.9108 318.473 90.9575 317.846 90.7877Z" fill="#080B09"/>
<path d="M288.41 93.5711L280.237 104.577L283.315 108.929" stroke="#E56441" stroke-width="1.41338" stroke-linecap="round"/>
<path d="M303.61 213.65C305.192 213.65 306.475 210.105 306.475 205.733C306.475 201.361 305.192 197.816 303.61 197.816C302.027 197.816 300.744 201.361 300.744 205.733C300.744 210.105 302.027 213.65 303.61 213.65Z" fill="white"/>
<path d="M435.685 322.571L393.195 326.053L385.942 295.259L377.204 271.58L421.92 266.229L427.51 292.73L435.685 322.571Z" fill="#DB936F"/>
<path d="M423.429 273.385L424.997 280.816L380.962 281.764L378.065 273.914L423.429 273.385Z" fill="#0E405B"/>
<path d="M388.603 239.074C404.84 239.074 418.003 225.911 418.003 209.674C418.003 193.436 404.84 180.273 388.603 180.273C372.365 180.273 359.202 193.436 359.202 209.674C359.202 225.911 372.365 239.074 388.603 239.074Z" fill="#1EAB89"/>
<path d="M382.932 195.852C382.932 195.852 413.917 190.765 416.549 200.66C422.233 220.556 429.221 252.497 430.92 267.773C430.978 268.422 430.906 269.076 430.709 269.698C430.513 270.32 430.195 270.897 429.775 271.395C429.354 271.893 428.839 272.303 428.259 272.601C427.68 272.899 427.047 273.08 426.396 273.132L379.731 277.116C377.925 277.283 376.123 276.753 374.696 275.634C373.269 274.515 372.324 272.891 372.057 271.098L359.418 213.873L382.932 195.852Z" fill="#1EAB89"/>
<path d="M292.037 55.7602C292.037 55.7602 293.136 75.5833 309.928 85.1893C309.928 85.1893 314.839 100.393 333.167 103.969C333.167 103.969 332.084 89.9948 340.82 90.1425C355.653 90.3938 348.357 112.894 338.328 116.585C331.513 119.094 327.408 127.998 337.525 148.29C360.755 140.005 377.092 106.543 370.687 69.4192C365.558 39.6897 328.702 29.9814 321.129 30.9499C321.129 30.9499 289.681 20.0857 273.123 49.8815C258.967 75.3522 272.187 90.5535 272.187 90.5535L279.731 67.8845C279.731 67.8845 282.882 70.0972 292.037 55.7602Z" fill="#080B09"/>
<path d="M435.842 396.029H323.301C321.125 396.029 319.023 395.234 317.39 393.794C315.758 392.353 314.708 390.366 314.438 388.206L304.05 305.303C303.892 304.046 304.004 302.77 304.378 301.56C304.751 300.349 305.378 299.232 306.216 298.281C307.055 297.332 308.085 296.571 309.24 296.05C310.395 295.529 311.647 295.259 312.914 295.259H446.229C447.496 295.259 448.748 295.529 449.903 296.05C451.058 296.571 452.089 297.332 452.927 298.281C453.765 299.232 454.392 300.349 454.765 301.56C455.139 302.77 455.251 304.046 455.093 305.303L444.705 388.206C444.435 390.366 443.385 392.353 441.753 393.794C440.12 395.234 438.019 396.029 435.842 396.029Z" fill="url(#paint0_linear_615_2)"/>
<path d="M379.836 351.997C384.199 351.997 387.736 348.461 387.736 344.099C387.736 339.736 384.199 336.199 379.836 336.199C375.474 336.199 371.937 339.736 371.937 344.099C371.937 348.461 375.474 351.997 379.836 351.997Z" fill="white"/>
<path d="M120.867 180.655L114.085 167.644C114.085 167.644 90.1058 153.927 87.3268 148.968C84.5471 144.008 83.455 129.848 88.3748 126.222C88.3748 126.222 69.243 111.853 72.4999 108.941C75.7461 105.819 113.335 133.742 113.335 133.742C113.335 133.742 108.758 113.17 115.713 112.206C117.597 120.179 120.824 127.774 125.256 134.664C132.578 145.985 133.48 156.124 133.48 156.124L142.11 172.686L120.867 180.655Z" fill="#FFCCB3"/>
<path d="M89.6646 126.586L101.251 133.888" stroke="#FF967C" stroke-width="1.81304" stroke-linecap="round" stroke-linejoin="round"/>
<path d="M87.9373 134.939L97.7705 141.052" stroke="#FF967C" stroke-width="1.81304" stroke-linecap="round" stroke-linejoin="round"/>
<path d="M89.8484 143.97L96.407 148.115" stroke="#FF967C" stroke-width="1.81304" stroke-linecap="round" stroke-linejoin="round"/>
<path d="M134.988 28.3501C138.038 28.3501 140.51 25.8779 140.51 22.8281C140.51 19.7782 138.038 17.306 134.988 17.306C131.938 17.306 129.466 19.7782 129.466 22.8281C129.466 25.8779 131.938 28.3501 134.988 28.3501Z" fill="white"/>
<path d="M157.291 28.3501C160.341 28.3501 162.813 25.8779 162.813 22.8281C162.813 19.7782 160.341 17.306 157.291 17.306C154.241 17.306 151.769 19.7782 151.769 22.8281C151.769 25.8779 154.241 28.3501 157.291 28.3501Z" fill="white"/>
<path d="M178.246 28.3501C181.296 28.3501 183.768 25.8779 183.768 22.8281C183.768 19.7782 181.296 17.306 178.246 17.306C175.197 17.306 172.724 19.7782 172.724 22.8281C172.724 25.8779 175.197 28.3501 178.246 28.3501Z" fill="white"/>
<path opacity="0.7" d="M12.3717 22.1513C34.5729 41.0855 93.1223 84.2569 167.483 86.3193C169.004 86.3648 170.446 87.0018 171.505 88.0946C172.563 89.1867 173.154 90.6495 173.152 92.1709V209.994C173.153 211.497 172.576 212.943 171.54 214.032C170.504 215.121 169.089 215.77 167.587 215.844C145.23 216.956 60.4502 216.827 4.27395 156.683C3.27207 155.603 2.71778 154.182 2.72219 152.71V26.6134C2.72156 25.4954 3.041 24.4001 3.64327 23.4575C4.24554 22.5156 5.10475 21.765 6.11989 21.2959C7.1344 20.8262 8.26318 20.657 9.37112 20.8092C10.4791 20.9607 11.5201 21.426 12.3717 22.1513Z" fill="#1EAB89"/>
<path d="M20.7935 56.872C20.7935 56.872 38.3129 73.8952 62.2596 84.4696" stroke="white" stroke-width="4.69238" stroke-miterlimit="10" stroke-linecap="round"/>
<path opacity="0.4" d="M20.7935 77.51C20.7935 77.51 45.1758 100.253 76.8933 108.697" stroke="white" stroke-width="4.69238" stroke-miterlimit="10" stroke-linecap="round"/>
<path d="M17.1614 152.975V103.762L34.4156 116.109V166.512L17.1614 152.975Z" fill="white"/>
<path d="M46.2844 172.861V137.797L63.5387 148.115V182.779L46.2844 172.861Z" fill="white"/>
<path d="M120.064 200.311V165.247L102.81 162.885V197.548L120.064 200.311Z" fill="white"/>
<path d="M148.405 201.813V140.42H131.151V201.412L148.405 201.813Z" fill="white"/>
<path d="M74.5474 188.225V172.194L91.8016 177.046V194.474L74.5474 188.225Z" fill="white"/>
<g opacity="0.7">
<path d="M55.5855 266.294C77.7867 282.596 136.336 325.137 210.696 318.381C211.419 318.296 212.153 318.368 212.846 318.591C213.539 318.815 214.176 319.185 214.714 319.676C215.252 320.167 215.678 320.768 215.963 321.438C216.248 322.109 216.385 322.832 216.366 323.56V441.384C216.328 442.943 215.754 444.442 214.741 445.627C213.727 446.814 212.336 447.613 210.801 447.894C188.443 451.658 95.4576 449.799 47.4871 401.787C46.9908 401.289 46.5982 400.698 46.3318 400.047C46.0654 399.397 45.9309 398.7 45.9359 397.997V271.901C45.9359 266.907 51.7856 263.504 55.5855 266.294Z" fill="#1EAB89"/>
</g>
<path d="M412.926 392.646C412.926 392.646 418.874 393.14 417.979 396.142C417.082 399.143 411.772 397.758 406.923 400.759C402.075 403.761 382.904 405.903 373.329 404.307C363.754 402.711 361.094 392.646 361.094 392.646C361.094 392.646 359.493 383.097 376.407 382.117C393.32 381.136 401.192 386.563 404.134 392.447L412.926 392.646Z" fill="#DB936F"/>
<path d="M368.284 383.601L371.937 393.426" stroke="#E56441" stroke-width="1.41338" stroke-linecap="round"/>
<path d="M377.745 382.001L381.398 391.826" stroke="#E56441" stroke-width="1.41338" stroke-linecap="round"/>
<path d="M387.736 382.833L391.389 392.658" stroke="#E56441" stroke-width="1.41338" stroke-linecap="round"/>
<path opacity="0.7" d="M592.924 275.879C561.958 302.291 480.289 362.511 376.564 365.387C374.442 365.451 372.43 366.34 370.953 367.864C369.476 369.388 368.651 371.428 368.655 373.55V537.901C368.653 539.998 369.459 542.014 370.904 543.534C372.349 545.053 374.323 545.958 376.417 546.061C407.603 547.613 525.86 547.433 604.224 463.538C605.62 462.031 606.396 460.05 606.39 457.995V282.104C606.39 280.544 605.942 279.017 605.102 277.702C604.262 276.388 603.063 275.341 601.649 274.686C600.235 274.032 598.656 273.796 597.116 274.008C595.569 274.219 594.117 274.869 592.924 275.879Z" fill="#1EAB89"/>
<path d="M581.182 324.311C581.182 324.311 556.744 348.057 523.341 362.808" stroke="white" stroke-width="6.5454" stroke-miterlimit="10" stroke-linecap="round"/>
<path opacity="0.4" d="M581.182 353.1C581.182 353.1 547.167 384.824 502.925 396.603" stroke="white" stroke-width="6.5454" stroke-miterlimit="10" stroke-linecap="round"/>
<path d="M565.298 223.886H470.765C468.91 223.886 467.073 224.251 465.36 224.961C463.647 225.67 462.09 226.711 460.778 228.022C459.467 229.334 458.426 230.891 457.717 232.604C457.007 234.317 456.642 236.154 456.642 238.009V267.255C456.642 269.11 457.007 270.946 457.717 272.66C458.426 274.374 459.467 275.931 460.778 277.242C462.09 278.554 463.647 279.594 465.36 280.304C467.073 281.013 468.91 281.379 470.765 281.379H504.326L514.225 291.281C515.153 292.209 516.409 292.73 517.722 292.73C519.036 292.73 520.292 292.209 521.22 291.281L531.119 281.379H565.298C569.041 281.379 572.64 279.891 575.285 277.242C577.937 274.594 579.42 271.001 579.42 267.255V238.009C579.42 234.263 577.937 230.671 575.285 228.022C572.64 225.374 569.041 223.886 565.298 223.886Z" fill="white"/>
<path d="M496.744 243.355C495.482 242.189 493.828 241.542 492.11 241.542C490.393 241.542 488.739 242.189 487.477 243.355L485.732 244.967L483.986 243.355C482.724 242.189 481.07 241.542 479.352 241.542C477.634 241.542 475.979 242.189 474.717 243.355C474.051 243.958 473.519 244.694 473.154 245.515C472.79 246.337 472.602 247.225 472.602 248.123C472.602 249.022 472.79 249.911 473.154 250.732C473.519 251.553 474.051 252.289 474.717 252.892L485.732 263.101L496.744 253.026C497.439 252.427 498.001 251.685 498.379 250.851C498.764 250.016 498.96 249.109 498.96 248.191C498.96 247.273 498.764 246.366 498.379 245.531C498.001 244.697 497.439 243.954 496.744 243.355Z" fill="#F4608A"/>
<path d="M509.042 249.32C509.137 248.084 509.616 247.115 510.475 246.416C511.334 245.717 512.451 245.367 513.821 245.367C514.736 245.367 515.526 245.535 516.182 245.872C516.858 246.194 517.363 246.638 517.697 247.202C518.044 247.767 518.221 248.406 518.221 249.119C518.221 249.952 517.981 250.672 517.495 251.277C517.022 251.882 516.403 252.272 515.639 252.447V252.548C516.51 252.763 517.205 253.186 517.716 253.818C518.228 254.45 518.486 255.277 518.486 256.299C518.486 257.066 518.31 257.758 517.956 258.377C517.609 258.983 517.085 259.46 516.384 259.81C515.683 260.159 514.844 260.334 513.865 260.334C512.438 260.334 511.271 259.964 510.355 259.224C509.44 258.471 508.928 257.409 508.821 256.037H510.595C510.69 256.844 511.018 257.503 511.586 258.014C512.148 258.525 512.906 258.781 513.846 258.781C514.787 258.781 515.5 258.539 515.98 258.055C516.479 257.557 516.731 256.918 516.731 256.138C516.731 255.13 516.39 254.404 515.721 253.96C515.046 253.516 514.029 253.294 512.672 253.294H512.211V251.761H512.697C513.928 251.748 514.869 251.546 515.5 251.156C516.132 250.753 516.447 250.134 516.447 249.3C516.447 248.587 516.214 248.016 515.74 247.586C515.286 247.156 514.623 246.94 513.764 246.94C512.931 246.94 512.255 247.156 511.744 247.586C511.233 248.016 510.93 248.594 510.841 249.32H509.042ZM523.158 257.692L520.904 263.118H519.673L521.144 257.692H523.158ZM534.256 247.243H527.18V251.842C527.489 251.411 527.943 251.062 528.549 250.793C529.155 250.51 529.806 250.37 530.506 250.37C531.624 250.37 532.533 250.604 533.227 251.075C533.928 251.532 534.427 252.131 534.724 252.871C535.033 253.597 535.184 254.37 535.184 255.19C535.184 256.159 535.008 257.025 534.642 257.793C534.282 258.559 533.72 259.164 532.969 259.608C532.23 260.051 531.308 260.274 530.203 260.274C528.796 260.274 527.653 259.91 526.775 259.184C525.904 258.458 525.368 257.489 525.185 256.279H526.977C527.154 257.046 527.52 257.644 528.089 258.075C528.65 258.505 529.364 258.72 530.222 258.72C531.289 258.72 532.085 258.404 532.628 257.772C533.164 257.126 533.429 256.279 533.429 255.231C533.429 254.181 533.164 253.375 532.628 252.81C532.085 252.232 531.296 251.943 530.248 251.943C529.534 251.943 528.909 252.118 528.366 252.467C527.842 252.803 527.464 253.267 527.217 253.859H525.488V245.629H534.256V247.243ZM537.407 258.76C539.111 257.389 540.45 256.266 541.415 255.392C542.388 254.505 543.202 253.583 543.859 252.628C544.534 251.66 544.869 250.712 544.869 249.784C544.869 248.911 544.654 248.224 544.225 247.727C543.808 247.216 543.126 246.961 542.186 246.961C541.27 246.961 540.557 247.25 540.045 247.828C539.547 248.392 539.282 249.152 539.237 250.107H537.463C537.52 248.601 537.975 247.438 538.833 246.618C539.698 245.797 540.809 245.387 542.167 245.387C543.549 245.387 544.648 245.771 545.45 246.537C546.27 247.303 546.681 248.359 546.681 249.704C546.681 250.82 546.346 251.909 545.677 252.971C545.014 254.02 544.263 254.948 543.417 255.755C542.571 256.548 541.485 257.476 540.165 258.539H547.104V260.072H537.407V258.76ZM558.202 247.082L552.596 260.233H550.74L556.428 247.263H548.644V245.69H558.202V247.082Z" fill="#1C85E8"/>
<path opacity="0.7" d="M10.6483 493.076H81.921C83.3193 493.076 84.7038 492.801 85.9961 492.266C87.2877 491.731 88.462 490.946 89.4506 489.958C90.4392 488.969 91.2233 487.795 91.7586 486.503C92.294 485.212 92.5692 483.826 92.5692 482.429V460.378C92.5692 458.98 92.294 457.596 91.7586 456.303C91.2233 455.012 90.4392 453.837 89.4506 452.849C88.462 451.86 87.2877 451.076 85.9961 450.541C84.7038 450.005 83.3193 449.73 81.921 449.73H56.6201L49.1536 442.264C48.4547 441.565 47.5065 441.172 46.5179 441.172C45.5299 441.172 44.5817 441.565 43.8828 442.264L36.4163 449.73H10.6483C7.8238 449.73 5.11549 450.852 3.11866 452.849C1.12183 454.846 0 457.554 0 460.378V482.429C0 485.253 1.12183 487.961 3.11866 489.958C5.11549 491.955 7.8238 493.076 10.6483 493.076Z" fill="#1C85E8"/>
<path d="M44.2244 476.823C45.5122 475.789 46.5204 474.943 47.2509 474.284C47.9806 473.614 48.5943 472.92 49.0911 472.2C49.598 471.47 49.8512 470.755 49.8512 470.056C49.8512 469.397 49.689 468.88 49.3645 468.505C49.0501 468.119 48.5381 467.926 47.8285 467.926C47.1391 467.926 46.6019 468.145 46.2168 468.58C45.8418 469.006 45.6385 469.579 45.6082 470.299H44.2698C44.3108 469.164 44.6555 468.287 45.3039 467.668C45.9529 467.049 46.7894 466.741 47.8133 466.741C48.8575 466.741 49.6839 467.029 50.2925 467.608C50.9105 468.185 51.2199 468.981 51.2199 469.995C51.2199 470.837 50.9667 471.657 50.4598 472.458C49.9629 473.249 49.3948 473.949 48.7565 474.557C48.1176 475.155 47.3013 475.855 46.3077 476.656H51.5393V477.811H44.2244V476.823ZM52.8045 475.485V474.436L58.1422 467.044H59.8V474.284H61.3208V475.485H59.8V477.933H58.4313V475.485H52.8045ZM58.4919 468.489L54.401 474.284H58.4919V468.489ZM62.6731 469.706C62.7438 468.773 63.1036 468.043 63.7526 467.516C64.4016 466.989 65.2431 466.725 66.2772 466.725C66.9666 466.725 67.5594 466.852 68.0562 467.106C68.5632 467.349 68.9432 467.683 69.197 468.109C69.4603 468.535 69.5922 469.017 69.5922 469.554C69.5922 470.183 69.4097 470.725 69.0449 471.181C68.6901 471.637 68.2235 471.931 67.6459 472.063V472.139C68.305 472.301 68.827 472.621 69.2121 473.097C69.5972 473.574 69.7898 474.197 69.7898 474.968C69.7898 475.546 69.6578 476.068 69.3946 476.534C69.1307 476.991 68.7355 477.35 68.2084 477.614C67.6812 477.878 67.0474 478.01 66.3075 478.01C65.233 478.01 64.3504 477.731 63.6611 477.173C62.9717 476.605 62.5866 475.804 62.5058 474.77H63.8435C63.9148 475.378 64.1629 475.875 64.5891 476.26C65.0146 476.646 65.5828 476.838 66.2923 476.838C67.0019 476.838 67.5392 476.656 67.9041 476.291C68.2791 475.916 68.4672 475.434 68.4672 474.846C68.4672 474.086 68.2134 473.538 67.7065 473.203C67.1995 472.869 66.4344 472.702 65.4104 472.702H65.0607V471.546H65.4256C66.358 471.536 67.0625 471.384 67.5392 471.09C68.0158 470.786 68.2538 470.319 68.2538 469.691C68.2538 469.154 68.0764 468.722 67.7216 468.398C67.3769 468.073 66.8801 467.911 66.2311 467.911C65.603 467.911 65.096 468.073 64.7103 468.398C64.3252 468.722 64.0973 469.159 64.026 469.706H62.6731ZM77.7872 469.554C77.5643 468.428 76.8699 467.866 75.7039 467.866C74.8011 467.866 74.1269 468.215 73.6812 468.915C73.2348 469.604 73.017 470.745 73.0271 472.337C73.2601 471.809 73.6458 471.399 74.1831 471.105C74.7304 470.801 75.339 470.649 76.0075 470.649C77.0524 470.649 77.8831 470.973 78.5018 471.622C79.1306 472.271 79.445 473.168 79.445 474.314C79.445 475.003 79.308 475.622 79.034 476.169C78.7708 476.717 78.3648 477.153 77.8175 477.477C77.2803 477.801 76.6262 477.963 75.856 477.963C74.8112 477.963 73.9956 477.731 73.4072 477.264C72.8194 476.797 72.4084 476.154 72.1755 475.333C71.9425 474.512 71.8258 473.498 71.8258 472.291C71.8258 468.57 73.1237 466.71 75.719 466.71C76.7127 466.71 77.493 466.979 78.0612 467.516C78.6287 468.053 78.9633 468.733 79.0643 469.554H77.7872ZM75.719 471.82C75.2828 471.82 74.8725 471.911 74.4874 472.094C74.1016 472.266 73.7872 472.534 73.5442 472.9C73.3112 473.255 73.1944 473.69 73.1944 474.207C73.1944 474.978 73.4173 475.606 73.8636 476.093C74.31 476.57 74.9482 476.808 75.7796 476.808C76.4892 476.808 77.0523 476.59 77.4677 476.154C77.8939 475.708 78.1066 475.11 78.1066 474.359C78.1066 473.569 77.904 472.95 77.4981 472.504C77.0928 472.048 76.4993 471.82 75.719 471.82Z" fill="white"/>
<path d="M390.01 474.729C390.01 474.729 412.739 469.97 423.132 458.945C436.901 444.337 440.078 426.819 455.164 425.017C478.84 422.19 492.565 505.779 521.308 494.47C550.052 483.16 543.259 420.739 560.361 410.159C572.141 402.87 578.265 424.546 594.761 418.891" stroke="white" stroke-width="6.5454" stroke-miterlimit="10" stroke-linecap="round"/>
<path opacity="0.7" d="M166.322 406.139C183.313 410.99 223.063 419.659 275.149 413.679C275.986 413.561 276.839 413.625 277.648 413.869C278.458 414.112 279.205 414.529 279.836 415.09C280.468 415.651 280.971 416.343 281.309 417.118C281.646 417.893 281.812 418.732 281.793 419.577V499.963C281.754 501.737 281.091 503.441 279.921 504.773C278.751 506.106 277.147 506.983 275.393 507.25C256.848 509.786 201.783 515.209 160.748 497.492C159.698 497.028 158.809 496.263 158.194 495.294C157.578 494.324 157.264 493.194 157.291 492.047V413.249C157.291 408.588 161.983 404.9 166.322 406.139Z" fill="url(#paint1_linear_615_2)"/>
<path d="M13.9222 480.158H16.2568C16.6905 480.157 17.1059 479.985 17.4121 479.679C17.7189 479.373 17.8912 478.957 17.8919 478.523V467.782C17.8912 467.349 17.7189 466.933 17.4121 466.626C17.1059 466.32 16.6905 466.148 16.2568 466.147H13.9222C13.4885 466.148 13.0731 466.32 12.7669 466.626C12.4601 466.933 12.2877 467.349 12.2871 467.782V478.523C12.2877 478.957 12.4601 479.373 12.7669 479.679C13.0731 479.985 13.4885 480.157 13.9222 480.158Z" fill="white"/>
<path d="M24.2251 459.375C23.2914 459.375 22.8243 459.842 22.8243 462.178C22.8243 464.397 20.6753 466.183 19.2927 467.103V478.674C20.7883 479.366 23.7813 480.391 28.4284 480.391H29.9227C30.804 480.392 31.6562 480.082 32.3299 479.514C33.0035 478.946 33.4548 478.159 33.6032 477.29L34.6493 471.219C34.7421 470.683 34.7168 470.133 34.5741 469.607C34.4321 469.082 34.1771 468.594 33.8267 468.177C33.4757 467.761 33.0382 467.426 32.5451 467.197C32.0515 466.967 31.5136 466.848 30.9694 466.848H26.5603C27.0565 465.666 27.2958 464.393 27.2611 463.112C27.2611 460.31 25.1595 459.376 24.2251 459.376V459.375Z" fill="white"/>
<path d="M91.717 385.505C79.3282 381.137 69.2854 367.553 69.2854 355.164C69.2854 342.775 79.3282 336.273 91.717 340.642V326.243C71.7026 319.185 55.478 329.69 55.478 349.704C55.478 369.718 71.7026 391.664 91.717 398.721C110.886 405.48 126.568 396.124 127.86 377.738L114.061 372.873C113.086 384.018 103.458 389.645 91.717 385.505Z" fill="white"/>
<path d="M96.3186 323.264V337.662C108.707 342.031 118.75 355.615 118.75 368.004C118.75 368.652 118.717 369.28 118.663 369.894L132.461 374.76C132.518 373.949 132.558 373.127 132.558 372.281C132.558 352.266 116.332 330.321 96.3186 323.264Z" fill="#0E405B"/>
<path d="M91.717 385.505V398.721" stroke="white" stroke-width="1.53293" stroke-miterlimit="10"/>
<path d="M69.2854 355.164L55.478 350.295" stroke="white" stroke-width="1.53293" stroke-miterlimit="10"/>
<path d="M149.833 357.222L175.453 362.091" stroke="white" stroke-width="6.5454" stroke-miterlimit="10" stroke-linecap="round"/>
<path opacity="0.4" d="M149.833 397.366L175.453 402.235" stroke="white" stroke-width="6.5454" stroke-miterlimit="10" stroke-linecap="round"/>
<path d="M149.833 377.703L186.641 384.697" stroke="white" stroke-width="6.5454" stroke-miterlimit="10" stroke-linecap="round"/>
<g opacity="0.7">
<path d="M611.907 12.8335C589.704 29.1348 549.092 70.2418 460.454 83.8995C453.668 84.9449 451.127 89.7732 451.127 95.1083V207.494C451.165 209.053 451.739 210.552 452.753 211.737C453.766 212.923 455.157 213.723 456.692 214.003C479.05 217.767 565.153 195.803 616.642 151.583C621.56 147.36 621.56 140.275 621.56 138.802V18.4405C621.56 13.4468 615.708 10.0435 611.907 12.8335Z" fill="url(#paint2_linear_615_2)"/>
</g>
<path d="M462.847 103.926V173.439C462.846 174.045 462.982 174.642 463.243 175.187C463.505 175.733 463.886 176.212 464.358 176.591C464.83 176.969 465.381 177.237 465.97 177.374C466.56 177.51 467.172 177.513 467.763 177.381C480.424 174.545 514.673 166.346 536.302 156.143C536.997 155.816 537.577 155.299 537.988 154.652C538.392 154.006 538.613 153.256 538.606 152.492V84.7979C538.613 84.1211 538.442 83.4551 538.114 82.8604C537.792 82.2663 537.325 81.7638 536.75 81.3983C536.182 81.0328 535.532 80.8162 534.856 80.7689C534.181 80.7215 533.505 80.8446 532.887 81.1275C520.835 86.6785 491.871 98.8047 466.678 99.8956C465.644 99.9448 464.668 100.392 463.954 101.142C463.24 101.893 462.844 102.891 462.847 103.926Z" fill="white"/>
<path d="M465.978 162.25V169.561C465.978 170.115 466.105 170.661 466.351 171.157C466.596 171.653 466.952 172.086 467.392 172.422C467.832 172.758 468.344 172.988 468.887 173.093C469.431 173.199 469.991 173.178 470.525 173.033L508.411 162.675C509.011 162.512 509.554 162.197 509.995 161.762C510.437 161.326 510.753 160.785 510.924 160.189C511.094 159.594 511.107 158.965 510.961 158.363C510.816 157.761 510.519 157.207 510.103 156.754L489.787 134.9C489.421 134.508 488.979 134.201 488.481 134.004C487.982 133.807 487.445 133.723 486.911 133.759C486.377 133.795 485.857 133.95 485.391 134.212C484.924 134.474 484.521 134.837 484.212 135.275L466.636 160.174C466.207 160.781 465.978 161.506 465.978 162.25Z" fill="#0E405B"/>
<path opacity="0.6" d="M504.604 145.102L515.974 157.166C516.34 157.554 516.813 157.824 517.331 157.941C517.849 158.059 518.392 158.018 518.891 157.824C522.249 156.512 529.793 153.546 533.613 151.903C534.092 151.696 534.496 151.354 534.787 150.918C535.071 150.482 535.222 149.971 535.222 149.449V138.145C535.222 137.568 535.033 137.006 534.692 136.545L518.707 115.132C518.417 114.748 518.032 114.447 517.59 114.263C517.148 114.079 516.662 114.017 516.188 114.084C515.715 114.151 515.267 114.344 514.888 114.644C514.515 114.944 514.231 115.339 514.061 115.787L504.048 142.323C503.872 142.792 503.827 143.301 503.928 143.792C504.023 144.283 504.263 144.737 504.604 145.102Z" fill="#1EAB89"/>
<path d="M494.623 126.264C497.994 126.264 500.728 123.532 500.728 120.161C500.728 116.789 497.994 114.057 494.623 114.057C491.252 114.057 488.518 116.789 488.518 120.161C488.518 123.532 491.252 126.264 494.623 126.264Z" fill="#FEBB94"/>
<path d="M556.207 78.8591C571.87 70.916 586.945 61.8599 601.314 51.7615" stroke="white" stroke-width="6.5454" stroke-miterlimit="10" stroke-linecap="round"/>
<path d="M556.207 105.226C556.207 105.226 566.472 100.223 580.557 91.6772" stroke="white" stroke-width="6.5454" stroke-miterlimit="10" stroke-linecap="round"/>
<path d="M556.207 131.004C571.87 123.06 586.945 114.005 601.314 103.906" stroke="white" stroke-width="6.5454" stroke-miterlimit="10" stroke-linecap="round"/>
<path d="M556.207 159.946C571.87 152.002 586.945 142.946 601.314 132.848" stroke="white" stroke-width="6.5454" stroke-miterlimit="10" stroke-linecap="round"/>
<path d="M471.552 197.428C474.631 197.428 477.127 194.933 477.127 191.854C477.127 188.775 474.631 186.279 471.552 186.279C468.473 186.279 465.978 188.775 465.978 191.854C465.978 194.933 468.473 197.428 471.552 197.428Z" fill="white"/>
<path d="M503.878 188.409C506.953 188.409 509.453 185.913 509.453 182.834C509.453 179.755 506.953 177.26 503.878 177.26C500.797 177.26 498.304 179.755 498.304 182.834C498.304 185.913 500.797 188.409 503.878 188.409Z" fill="white"/>
<path d="M533.032 178.45C536.112 178.45 538.606 175.954 538.606 172.875C538.606 169.796 536.112 167.301 533.032 167.301C529.957 167.301 527.457 169.796 527.457 172.875C527.457 175.954 529.957 178.45 533.032 178.45Z" fill="white"/>
<defs>
<linearGradient id="paint0_linear_615_2" x1="375.808" y1="295.02" x2="391.348" y2="510.061" gradientUnits="userSpaceOnUse">
<stop stop-color="white"/>
<stop offset="1" stop-color="#94B9FF"/>
</linearGradient>
<linearGradient id="paint1_linear_615_2" x1="216.442" y1="405.649" x2="236.543" y2="627.267" gradientUnits="userSpaceOnUse">
<stop stop-color="white"/>
<stop offset="1" stop-color="#94B9FF"/>
</linearGradient>
<linearGradient id="paint2_linear_615_2" x1="515.791" y1="-240.701" x2="643.548" y2="425.694" gradientUnits="userSpaceOnUse">
<stop stop-color="white"/>
<stop offset="1" stop-color="#94B9FF"/>
</linearGradient>
</defs>
</svg>
