<svg width="487" height="393" viewBox="0 0 487 393" fill="none" xmlns="http://www.w3.org/2000/svg">
<path d="M380.044 48.1002H261.261C258.579 48.1002 256.405 50.2746 256.405 52.9565V136.766C256.405 139.448 258.579 141.622 261.261 141.622H380.044C382.722 141.622 384.897 139.448 384.897 136.766V52.9565C384.897 50.2746 382.722 48.1002 380.044 48.1002Z" fill="#1EAB89" fill-opacity="0.6"/>
<path d="M273.467 64.9518H269.95L269.346 66.6681H267.907L270.917 58.2559H272.512L275.521 66.6681H274.071L273.467 64.9518ZM273.08 63.8278L271.715 59.9237L270.337 63.8278H273.08ZM276.371 63.3082C276.371 62.6395 276.508 62.0472 276.782 61.5314C277.064 61.0157 277.443 60.6167 277.918 60.3348C278.401 60.0447 278.937 59.8999 279.525 59.8999C279.961 59.8999 280.387 59.9963 280.807 60.19C281.233 60.375 281.572 60.6249 281.822 60.9392V57.7241H283.212V66.6681H281.822V65.6647C281.596 65.9872 281.282 66.2531 280.879 66.4628C280.484 66.672 280.029 66.7766 279.513 66.7766C278.933 66.7766 278.401 66.6318 277.918 66.3417C277.443 66.0434 277.064 65.6327 276.782 65.1087C276.508 64.577 276.371 63.977 276.371 63.3082ZM281.822 63.3324C281.822 62.8729 281.725 62.4743 281.532 62.1358C281.346 61.7973 281.101 61.5392 280.795 61.3619C280.488 61.1847 280.158 61.0961 279.803 61.0961C279.449 61.0961 279.119 61.1847 278.812 61.3619C278.506 61.5314 278.257 61.7852 278.063 62.1237C277.878 62.454 277.785 62.8487 277.785 63.3082C277.785 63.7673 277.878 64.1702 278.063 64.5165C278.257 64.8632 278.506 65.1291 278.812 65.3146C279.126 65.4918 279.457 65.5804 279.803 65.5804C280.158 65.5804 280.488 65.4918 280.795 65.3146C281.101 65.1373 281.346 64.8792 281.532 64.5407C281.725 64.1944 281.822 63.7915 281.822 63.3324ZM287.439 66.7766C286.915 66.7766 286.444 66.6841 286.025 66.4986C285.614 66.3054 285.287 66.0477 285.046 65.7252C284.804 65.3949 284.675 65.0283 284.659 64.6254H286.085C286.109 64.9073 286.242 65.1451 286.484 65.3383C286.734 65.5238 287.044 65.6167 287.415 65.6167C287.801 65.6167 288.099 65.5441 288.309 65.3988C288.526 65.2458 288.635 65.0526 288.635 64.8187C288.635 64.5693 288.514 64.3838 288.273 64.2627C288.039 64.1421 287.664 64.009 287.149 63.8642C286.649 63.7271 286.242 63.5939 285.928 63.4651C285.614 63.3363 285.339 63.1387 285.106 62.8729C284.88 62.607 284.768 62.2564 284.768 61.8215C284.768 61.467 284.872 61.1445 285.082 60.8544C285.292 60.5566 285.589 60.3227 285.976 60.1537C286.371 59.9842 286.822 59.8999 287.33 59.8999C288.087 59.8999 288.695 60.0932 289.155 60.4801C289.622 60.8588 289.872 61.3784 289.904 62.039H288.526C288.502 61.7406 288.381 61.5034 288.164 61.3261C287.946 61.1489 287.652 61.0598 287.281 61.0598C286.919 61.0598 286.641 61.1285 286.447 61.2656C286.254 61.4026 286.157 61.5837 286.157 61.8094C286.157 61.9867 286.222 62.1358 286.351 62.2564C286.48 62.3775 286.637 62.4743 286.822 62.5465C287.008 62.6109 287.281 62.6956 287.644 62.8002C288.127 62.9295 288.523 63.0622 288.829 63.1993C289.143 63.3281 289.413 63.5218 289.638 63.7794C289.864 64.037 289.981 64.3799 289.989 64.8066C289.989 65.1852 289.884 65.5238 289.675 65.8221C289.465 66.1199 289.167 66.3538 288.78 66.5228C288.402 66.6923 287.955 66.7766 287.439 66.7766Z" fill="white"/>
<path d="M345.121 100.473C345.121 105.312 343.686 110.043 340.997 114.067C338.309 118.091 334.487 121.228 330.016 123.08C325.544 124.932 320.624 125.416 315.877 124.472C311.131 123.528 306.771 121.198 303.348 117.775C299.927 114.353 297.596 109.993 296.651 105.246C295.708 100.5 296.192 95.5795 298.044 91.1082C299.896 86.637 303.033 82.8151 307.056 80.1265C311.081 77.4378 315.812 76.0024 320.651 76.0024" stroke="white" stroke-width="8.3269" stroke-miterlimit="10"/>
<path d="M325.209 71.3234C331.699 71.3234 337.923 73.9016 342.512 78.4906C347.101 83.0795 349.679 89.3038 349.679 95.7935" stroke="#0E2D3E" stroke-width="8.3269" stroke-miterlimit="10"/>
<path d="M267.677 123.997H281.999" stroke="white" stroke-width="3.25735" stroke-miterlimit="10" stroke-linecap="round"/>
<path opacity="0.4" d="M267.677 132.015H297.276" stroke="white" stroke-width="3.25735" stroke-miterlimit="10" stroke-linecap="round"/>
<path d="M349.679 124.078H364.002" stroke="white" stroke-width="3.25735" stroke-miterlimit="10" stroke-linecap="round"/>
<path opacity="0.4" d="M349.679 132.096H379.279" stroke="white" stroke-width="3.25735" stroke-miterlimit="10" stroke-linecap="round"/>
<path d="M45.1513 40.3055H217.585C222.165 40.3055 226.557 42.1249 229.795 45.3632C233.034 48.6015 234.853 52.9939 234.853 57.5736V67.9089H27.8833V57.5736C27.8833 52.9939 29.7027 48.6015 32.941 45.3632C36.1793 42.1249 40.5716 40.3055 45.1513 40.3055Z" fill="#0A2635"/>
<path d="M27.8833 67.9088H234.853V263.108C234.853 266.746 233.408 270.235 230.835 272.808C228.263 275.38 224.773 276.826 221.135 276.826H41.6012C37.9629 276.826 34.4737 275.38 31.9013 272.808C29.3284 270.235 27.8833 266.746 27.8833 263.108V67.9088Z" fill="url(#paint0_linear_867_1270)"/>
<path opacity="0.6" d="M133.429 239.614C173.062 239.614 205.191 207.485 205.191 167.851C205.191 128.218 173.062 96.0889 133.429 96.0889C93.7951 96.0889 61.6663 128.218 61.6663 167.851C61.6663 207.485 93.7951 239.614 133.429 239.614Z" stroke="white" stroke-width="14.5281" stroke-miterlimit="10"/>
<path d="M46.9983 59.0283C49.3378 59.0283 51.2342 57.1319 51.2342 54.7924C51.2342 52.4534 49.3378 50.557 46.9983 50.557C44.6588 50.557 42.7625 52.4534 42.7625 54.7924C42.7625 57.1319 44.6588 59.0283 46.9983 59.0283Z" fill="white"/>
<path d="M64.1065 59.0283C66.446 59.0283 68.3424 57.1319 68.3424 54.7924C68.3424 52.4534 66.446 50.557 64.1065 50.557C61.767 50.557 59.8706 52.4534 59.8706 54.7924C59.8706 57.1319 61.767 59.0283 64.1065 59.0283Z" fill="white"/>
<path d="M80.1812 59.0283C82.5202 59.0283 84.4166 57.1319 84.4166 54.7924C84.4166 52.4534 82.5202 50.557 80.1812 50.557C77.8417 50.557 75.9453 52.4534 75.9453 54.7924C75.9453 57.1319 77.8417 59.0283 80.1812 59.0283Z" fill="white"/>
<path d="M273.673 155.95H446.108C450.685 155.95 455.077 157.77 458.317 161.008C461.557 164.246 463.373 168.639 463.373 173.218V183.554H256.405V173.218C256.405 168.639 258.224 164.246 261.462 161.008C264.701 157.77 269.093 155.95 273.673 155.95Z" fill="#0A2635"/>
<path d="M256.405 183.554H463.373V378.753C463.373 382.391 461.929 385.88 459.358 388.453C456.786 391.025 453.295 392.471 449.658 392.471H270.123C266.485 392.471 262.995 391.025 260.423 388.453C257.85 385.88 256.405 382.391 256.405 378.753V183.554Z" fill="url(#paint1_linear_867_1270)"/>
<path opacity="0.6" d="M370.642 359.774C410.277 359.774 442.404 327.645 442.404 288.012C442.404 248.379 410.277 216.25 370.642 216.25C331.009 216.25 298.88 248.379 298.88 288.012C298.88 327.645 331.009 359.774 370.642 359.774Z" stroke="white" stroke-width="14.5281" stroke-miterlimit="10"/>
<path d="M275.52 174.673C277.859 174.673 279.756 172.777 279.756 170.437C279.756 168.098 277.859 166.202 275.52 166.202C273.181 166.202 271.284 168.098 271.284 170.437C271.284 172.777 273.181 174.673 275.52 174.673Z" fill="white"/>
<path d="M292.628 174.673C294.967 174.673 296.864 172.777 296.864 170.437C296.864 168.098 294.967 166.202 292.628 166.202C290.289 166.202 288.393 168.098 288.393 170.437C288.393 172.777 290.289 174.673 292.628 174.673Z" fill="white"/>
<path d="M308.703 174.673C311.042 174.673 312.939 172.777 312.939 170.437C312.939 168.098 311.042 166.202 308.703 166.202C306.364 166.202 304.468 168.098 304.468 170.437C304.468 172.777 306.364 174.673 308.703 174.673Z" fill="white"/>
<path d="M338.991 306.072L328.785 392.519H369.791L393.192 306.585L338.991 306.072Z" fill="#1F2D49"/>
<path d="M371.077 387.794L366.254 361.255L375.815 332.28H390.631L371.077 387.794Z" fill="#0D1B33"/>
<path d="M414.95 306.585C414.66 311.773 414.66 316.974 414.95 322.162C416.147 338.932 412.728 386.075 412.757 392.519H376.348C376.195 383.591 373.928 306.952 373.928 306.952L414.95 306.585Z" fill="#1F2D49"/>
<path d="M338.214 312.267L414.95 322.162V306.585L338.991 306.072L338.214 312.267Z" fill="#0D1B33"/>
<path d="M352.759 218.398C354.901 207.825 349.864 208.097 348.188 206.416C348.188 206.416 341.9 201.231 337.108 206.064C332.036 211.177 302.962 250.896 302.962 250.896L321.154 267.627L324.573 263.546L333.431 252.982L342.904 241.692L344.081 240.406L356.862 225.931C356.862 225.931 351.548 223.965 352.759 218.398Z" fill="#1EAB89"/>
<path d="M360.367 220.2C362.819 212.879 358.872 204.955 351.551 202.503C344.229 200.051 336.306 203.998 333.854 211.32C331.402 218.641 335.349 226.564 342.671 229.016C349.992 231.468 357.915 227.521 360.367 220.2Z" fill="#1EAB89"/>
<path d="M343.914 240.35C344.28 238.141 345.014 233.721 345.803 229.692L350.001 210.196C350.001 210.196 338.728 226.856 333.535 238.461C329.689 247.157 325.228 256.02 324.49 263.518L333.346 252.954L342.82 241.664L343.914 240.35Z" fill="#468593"/>
<path d="M307.381 199.411C306.435 190.47 308.868 190.036 308.901 185.188C308.918 180.451 316.072 171.68 312.659 171.858C309.248 172.035 306.852 175.295 306.852 175.295C306.346 171.045 307.201 163.973 302.852 161.304C298.503 158.636 297.479 159.928 293.938 160.989C284.484 163.892 289.761 176.402 289.858 180.367C289.943 182.862 294.332 192.195 294.531 193.917L295.928 200.554L307.381 199.411Z" fill="#FFCCB3"/>
<path d="M301.993 173.793L300.7 160.959L301.993 173.793Z" fill="#E56441"/>
<path d="M301.993 173.793L300.7 160.959" stroke="#E56441" stroke-width="0.581767" stroke-linecap="round"/>
<path d="M297.571 173.936L295.468 161.607L297.571 173.936Z" fill="#E56441"/>
<path d="M297.571 173.936L295.468 161.607" stroke="#E56441" stroke-width="0.581767" stroke-linecap="round"/>
<path d="M292.375 173.964L291.312 166.586L292.375 173.964Z" fill="#E56441"/>
<path d="M292.375 173.964L291.312 166.586" stroke="#E56441" stroke-width="0.581767" stroke-linecap="round"/>
<path d="M299.542 183.591C301.087 179.981 305.095 176.505 305.095 176.505L299.542 183.591Z" fill="#E56441"/>
<path d="M299.542 183.591C301.087 179.981 305.095 176.505 305.095 176.505" stroke="#E56441" stroke-width="0.581767" stroke-linecap="round"/>
<path d="M323.945 254.461L308.818 194.743C308.712 194.384 308.478 194.078 308.159 193.883C307.841 193.688 307.462 193.617 307.095 193.685L295.688 195.859C295.142 195.969 294.658 196.278 294.328 196.726C293.998 197.173 293.846 197.727 293.902 198.28L300.186 260.369L323.945 254.461Z" fill="#1EAB89"/>
<path d="M312.406 271.149C319.247 271.149 324.793 265.603 324.793 258.762C324.793 251.92 319.247 246.374 312.406 246.374C305.564 246.374 300.018 251.92 300.018 258.762C300.018 265.603 305.564 271.149 312.406 271.149Z" fill="#1EAB89"/>
<path d="M362.412 196.3C362.412 196.3 348.251 200.478 344.688 201.969C341.124 203.459 340.887 209.422 340.649 213.645C340.483 216.604 339.923 261.367 340.143 289.509C340.19 295.521 339.069 299.336 338.348 302.677C338.151 303.568 338.044 304.476 338.029 305.388C338.024 305.708 338.083 306.026 338.202 306.324C338.32 306.621 338.497 306.893 338.72 307.122C338.944 307.352 339.211 307.535 339.506 307.661C339.8 307.787 340.117 307.853 340.437 307.857L412.936 308.535C412.936 308.535 416.152 309.002 415.377 305.334C414.607 301.322 414.185 297.251 414.118 293.166C413.391 263.937 413.256 214.985 412.941 212.668C412.466 209.19 416.2 206.195 412.151 204.444L392.602 197.332L362.412 196.3Z" fill="#1EAB89"/>
<path d="M398.626 228.61C398.626 228.61 399.725 269.124 399.493 282.629C399.352 291.044 389.73 294.608 389.701 299.481C389.686 302.363 397.478 300.57 400.916 299.449C408.65 296.93 413.74 300.352 413.74 300.352L411.677 226.525L398.626 228.61Z" fill="#468593"/>
<path d="M365.685 181.981L370.007 204.561L371.535 206.177C371.535 206.177 370.93 206.901 372.667 205.159C376.763 201.052 387.551 196.047 387.105 194.435C386.466 192.124 384.611 177.73 384.611 177.73L365.685 181.981Z" fill="#FFCCB3"/>
<path d="M365.508 183.482H376.898L364.387 202.914L365.508 183.482Z" fill="#FF967C"/>
<path d="M398.49 173.65C401.817 165.408 391.652 164.362 389.895 164.254C388.137 164.145 389.313 150.809 389.313 150.809C389.313 150.809 371.349 141.76 366.276 143.916C366.276 143.916 358.993 158.992 355.551 169.012C352.11 179.031 353.597 184.424 357.211 185.882C362.005 188.303 368.302 189.072 372.805 187.958C380.824 185.976 385.914 179.575 385.914 179.575C386.049 179.555 386.127 179.546 386.127 179.546C386.127 179.546 395.352 181.435 398.49 173.65Z" fill="#FFCCB3"/>
<path d="M393.662 180.894C400.146 176.369 405.599 171.309 406.631 164.888C408.713 151.949 401.454 148.821 401.454 148.821C406.282 139.653 395.27 134.701 389.589 132.852C370.815 126.743 359.368 133.372 358.569 140.638C358.23 143.68 358.718 146.532 360.261 148.87C360.208 151.113 360.44 153.353 360.952 155.537L364.055 149.793C364.663 150.573 365.461 151.184 366.373 151.566C376.57 156.425 387.032 151.039 387.032 151.039C382.955 155.751 382.926 166.184 383.187 168.364C383.565 171.506 385.507 169.21 385.507 169.21C387.42 166.121 394.529 163.869 396.389 170.275C397.841 175.267 384.747 180.18 384.747 180.18L386.059 187.959C388.5 188.458 388.137 185.879 388.786 186.74C389.434 187.601 390.81 188.155 391.076 185.513C391.342 182.871 393.667 180.891 393.667 180.891L393.662 180.894Z" fill="#454336"/>
<path d="M373.349 166.11C373.936 164.976 373.809 163.745 373.066 163.36C372.323 162.976 371.245 163.584 370.658 164.718C370.072 165.852 370.199 167.083 370.942 167.468C371.685 167.852 372.763 167.244 373.349 166.11Z" fill="#080B09"/>
<path d="M363.144 160.748C363.731 159.614 363.604 158.383 362.861 157.998C362.118 157.614 361.04 158.222 360.453 159.356C359.866 160.49 359.993 161.721 360.736 162.106C361.48 162.49 362.558 161.882 363.144 160.748Z" fill="#080B09"/>
<path d="M364.433 164.524C364.433 164.524 365.084 167.484 363.124 167C361.269 166.474 359.891 167.276 361.344 169.363" stroke="#E56441" stroke-width="0.581767" stroke-linecap="round"/>
<path d="M360.998 171.817L361.005 171.82L361.013 171.823C362.146 172.216 364.408 173.001 365.905 173.549L365.908 173.55C365.956 173.567 365.999 173.597 366.032 173.637C366.065 173.677 366.085 173.725 366.093 173.776C366.1 173.827 366.093 173.879 366.072 173.927C366.053 173.972 366.021 174.013 365.981 174.042C365.543 174.324 364.979 174.647 364.381 174.897C363.777 175.149 363.158 175.317 362.607 175.303C362.067 175.289 361.601 175.1 361.263 174.639C360.916 174.165 360.68 173.372 360.687 172.101L360.688 172.081L360.684 172.062C360.679 172.022 360.683 171.981 360.698 171.943C360.713 171.906 360.738 171.873 360.77 171.847C360.802 171.823 360.839 171.807 360.88 171.801C360.92 171.796 360.961 171.801 360.998 171.817Z" fill="#E56441" stroke="#E56441" stroke-width="0.484269"/>
<path d="M378.2 163.156L378.034 163.345C377.815 163.643 377.487 163.841 377.123 163.897C376.758 163.953 376.386 163.864 376.087 163.647L371.057 159.784C370.806 159.608 370.63 159.343 370.564 159.042C370.499 158.742 370.549 158.428 370.704 158.164C370.791 157.996 370.914 157.85 371.062 157.734C371.21 157.617 371.381 157.534 371.564 157.488C371.746 157.443 371.937 157.437 372.122 157.471C372.308 157.504 372.483 157.577 372.639 157.684L377.837 161.357C377.981 161.449 378.105 161.57 378.202 161.711C378.299 161.852 378.366 162.012 378.4 162.18C378.434 162.348 378.434 162.521 378.4 162.688C378.365 162.856 378.298 163.015 378.2 163.156Z" fill="#080B09"/>
<path d="M360.517 152.76L366.761 153.993C366.945 154.031 367.119 154.109 367.271 154.22C367.423 154.331 367.551 154.473 367.644 154.637C367.737 154.8 367.794 154.982 367.812 155.169C367.83 155.357 367.808 155.546 367.747 155.724C367.662 156.02 367.469 156.272 367.207 156.432C366.944 156.592 366.632 156.647 366.33 156.587L360.064 155.605C359.701 155.538 359.38 155.331 359.169 155.028C358.959 154.725 358.876 154.351 358.941 153.988L358.963 153.736C358.998 153.569 359.066 153.41 359.164 153.27C359.262 153.129 359.387 153.009 359.532 152.918C359.677 152.827 359.839 152.766 360.009 152.739C360.178 152.712 360.351 152.718 360.517 152.76Z" fill="#080B09"/>
<path d="M391.066 230.568L344.725 234.582C343.285 234.707 342.219 235.975 342.344 237.415L347.387 295.644C347.512 297.083 348.78 298.15 350.22 298.025L396.558 294.011C398.001 293.887 399.066 292.618 398.94 291.179L393.899 232.95C393.773 231.51 392.505 230.444 391.066 230.568Z" fill="#0E2D3E"/>
<path d="M349.564 241.374L368.674 239.72" stroke="white" stroke-width="2.44452" stroke-miterlimit="10" stroke-linecap="round"/>
<path d="M350.3 248.259L359.011 247.504" stroke="white" stroke-width="2.44452" stroke-miterlimit="10" stroke-linecap="round"/>
<path d="M413.275 215.84C406.142 206.908 402.936 211.186 400.427 211.404C400.427 211.404 391.938 212.986 392.606 220.167C393.313 227.766 405.808 278.402 405.808 278.402L432.026 276.431L430.781 269.449L428.224 255.067L425.498 239.691L425.251 237.86L422.186 217.631C422.186 217.631 416.97 220.61 413.275 215.84Z" fill="#1EAB89"/>
<path d="M415.038 231.259C422.011 226.978 424.19 217.856 419.914 210.884C415.633 203.912 406.51 201.73 399.536 206.011C392.568 210.291 390.384 219.413 394.664 226.385C398.945 233.357 408.064 235.539 415.038 231.259Z" fill="#1EAB89"/>
<path d="M352.273 280.504L335.74 281.734L331.832 290.952L333.168 302.331C333.168 302.331 336.013 301.172 336.307 297.147C336.602 293.121 349.763 295.977 353.204 291.556" fill="#FFCCB3"/>
<path d="M415.338 265.593L351.194 277.685C350.808 277.773 350.469 278.002 350.242 278.325C350.015 278.649 349.915 279.045 349.963 279.438L351.516 291.644C351.597 292.228 351.892 292.761 352.344 293.139C352.795 293.517 353.371 293.714 353.96 293.691L420.035 291.106L415.338 265.593Z" fill="#1EAB89"/>
<path d="M419.135 291.205C426.384 291.205 432.258 285.328 432.258 278.079C432.258 270.83 426.384 264.953 419.135 264.953C411.885 264.953 406.006 270.83 406.006 278.079C406.006 285.328 411.885 291.205 419.135 291.205Z" fill="#1EAB89"/>
<path d="M155.99 168.767L178.304 262.996L179.912 276.826H141.862L116.705 215.974L121.352 170.378L155.99 168.767Z" fill="#1F2D49"/>
<path d="M132.367 253.859L137.87 207.302L139.691 271.573L132.367 253.859Z" fill="#0D1B33"/>
<path d="M95.7574 168.473C95.7574 168.473 85.3524 185.951 85.2158 200.588C85.0109 222.556 83.4448 276.826 83.4448 276.826H129.353L137.87 207.302L125.569 168.473H95.7574Z" fill="#1F2D49"/>
<path d="M155.99 168.767L95.399 169.389L89.5107 181.575L157.013 173.091L155.99 168.767Z" fill="#0D1B33"/>
<path d="M225.873 71.581L229.099 64.8192C229.742 63.2608 230.752 61.8802 232.042 60.7939C234.011 59.1939 236.95 56.3716 237.672 54.0408C238.899 50.3192 244.642 39.7292 236.424 34.3078C233.384 32.3093 234.136 32.7746 229.203 33.948C224.271 35.1209 224.65 40.4246 222.921 44.3346C222.921 44.3346 221.506 40.5801 218.38 39.4144C215.253 38.2488 219.466 48.6674 218.271 53.2345C217.077 57.8012 219.12 58.975 215.734 67.2836L225.873 71.581Z" fill="#DB936F"/>
<path d="M230.087 34.3727L228.088 44.3888L230.087 34.3727Z" fill="#E56441"/>
<path d="M230.087 34.3727L228.088 44.3888" stroke="#E56441" stroke-width="0.583718" stroke-linecap="round"/>
<path d="M235.693 34.8328L232.273 45.784L235.693 34.8328Z" fill="#E56441"/>
<path d="M235.693 34.8328L232.273 45.784" stroke="#E56441" stroke-width="0.583718" stroke-linecap="round"/>
<path d="M240.398 40.4919L237.292 47.2659L240.398 40.4919Z" fill="#E56441"/>
<path d="M240.398 40.4919L237.292 47.2659" stroke="#E56441" stroke-width="0.583718" stroke-linecap="round"/>
<path d="M224.415 46.1729C224.415 46.1729 227.197 50.6707 227.754 54.5773L224.415 46.1729Z" fill="#E56441"/>
<path d="M224.415 46.1729C224.415 46.1729 227.197 50.6707 227.754 54.5773" stroke="#E56441" stroke-width="0.583718" stroke-linecap="round"/>
<path d="M139.08 80.9293C143.977 79.8576 151.344 79.2513 154.807 81.4872L189.288 105.322L216.202 61.3344L228.25 67.9998L203.484 123.365C199.843 132.801 190.765 132.66 185.218 129.442L167.227 120.648L139.08 80.9293Z" fill="#1EAB89"/>
<path d="M160.978 103.816C160.978 103.816 160.91 100.98 167.599 111.909L185.218 129.442L167.227 120.648C150.778 114.038 155.924 106.434 160.978 103.816Z" fill="#468593"/>
<path d="M138.72 74.3404C138.72 74.3404 150.934 79.1734 152.799 80.6655C154.664 82.157 156.435 94.333 159.605 100.114C162.776 105.895 167.414 116.566 160.64 126.367C153.865 136.168 154.586 143.952 154.586 143.952L156.028 168.538L97.647 169.614C97.1332 169.63 96.6213 169.537 96.1458 169.34C95.6707 169.144 95.2421 168.849 94.8896 168.475C94.5366 168.101 94.2673 167.656 94.0993 167.17C93.9307 166.684 93.8678 166.167 93.9143 165.655C94.5627 158.487 97.5259 148.42 97.7589 137.006C98.0746 121.536 98.3109 69.8469 98.3109 69.8469L123.743 69.0488C128.865 69.9321 138.72 74.3404 138.72 74.3404Z" fill="#1EAB89"/>
<path d="M160.245 126.949C160.245 126.949 152.282 128.661 145.671 129.005C139.061 129.349 142.496 134.497 148.567 135.129C154.637 135.762 155.813 136.195 155.813 136.195C156.913 132.946 158.401 129.841 160.245 126.949Z" fill="#468593"/>
<path d="M96.7995 147.913L94.7554 159.764C94.7554 159.764 96.1036 163.299 102.393 165.468C108.682 167.636 114.321 166.985 118.007 162.864C121.694 158.744 134.539 139.713 134.539 139.713L96.7995 147.913Z" fill="#468593"/>
<path d="M108.32 90.9764C108.32 90.9764 116.828 98.7339 117.329 104.489C117.829 110.245 118.986 126.292 129.92 127.893C143.322 129.854 146.83 131.765 140.618 133.266C134.405 134.768 120.305 132.335 120.305 138.771C120.305 143.352 114.826 146.779 112.073 144.277C109.321 141.774 87.3965 103.738 108.32 90.9764Z" fill="#468593"/>
<path d="M164.904 79.8345L158.267 94.1829L170.28 99.32L177.455 83.0297L164.904 79.8345Z" fill="#96BAFD"/>
<path d="M162.731 86.9648L174.913 89.1019L173.379 91.9775L162.731 88.2651V86.9648Z" fill="#96BAFD"/>
<path d="M169.54 64.2312C166.348 63.0157 162.775 64.6181 161.56 67.81L160.474 70.6633C159.258 73.8551 160.861 77.428 164.053 78.6431C167.245 79.8586 170.818 78.2561 172.033 75.0643L173.119 72.211C174.334 69.0192 172.732 65.4463 169.54 64.2312Z" fill="#1C85E8"/>
<path d="M184.321 65.8512C201.271 72.8673 218.508 66.9287 218.508 66.9287L201.805 110.652C201.805 110.652 190.7 92.7872 176.169 87.2636C170.814 85.2287 184.321 65.8512 184.321 65.8512Z" fill="#96BAFD"/>
<path d="M216.06 91.0719C220.704 78.876 222.152 68.1074 219.294 67.0192C216.437 65.9315 210.357 74.9365 205.713 87.1323C201.07 99.3282 199.622 110.097 202.479 111.185C205.337 112.273 211.417 103.268 216.06 91.0719Z" fill="white"/>
<path d="M216.062 91.0704C220.705 78.8746 222.487 68.2333 220.042 67.3025C217.596 66.3713 211.85 75.5036 207.207 87.6994C202.564 99.8953 200.782 110.537 203.227 111.468C205.672 112.399 211.418 103.267 216.062 91.0704Z" fill="#1C85E8"/>
<path d="M175.068 62.3285L186.768 66.7828L178.616 88.1957L166.916 83.7409C166.197 83.4673 165.539 83.0547 164.98 82.5269C164.421 81.999 163.97 81.3656 163.656 80.6639C163.341 79.9622 163.168 79.2053 163.145 78.4363C163.123 77.6672 163.253 76.9016 163.526 76.183L167.51 65.7184C167.784 64.9997 168.197 64.3416 168.725 63.7823C169.252 63.223 169.886 62.7726 170.588 62.4578C171.289 62.143 172.046 61.9697 172.815 61.9474C173.584 61.9251 174.35 62.0549 175.068 62.3285Z" fill="url(#paint2_linear_867_1270)"/>
<path d="M178.101 68.1238L172.191 65.8734C171.689 65.6821 171.127 65.9344 170.935 66.4371C170.744 66.9398 170.996 67.502 171.499 67.6933L177.409 69.9437C177.911 70.135 178.474 69.8827 178.665 69.38C178.856 68.8773 178.604 68.3151 178.101 68.1238Z" fill="white"/>
<path d="M176.136 72.1698L170.226 69.9194C169.723 69.7281 169.161 69.9804 168.969 70.4831C168.778 70.9858 169.03 71.548 169.533 71.7393L175.443 73.9897C175.946 74.181 176.508 73.9287 176.699 73.426C176.89 72.9233 176.638 72.3611 176.136 72.1698Z" fill="white"/>
<path d="M209.46 82.2102L210.184 82.5109C211.267 82.9613 212.135 83.8112 212.608 84.8848C213.081 85.9584 213.123 87.1725 212.724 88.2757C212.51 88.8674 212.177 89.4089 211.744 89.8655C211.311 90.3222 210.788 90.6839 210.209 90.929C209.629 91.174 209.005 91.2965 208.376 91.2888C207.747 91.281 207.126 91.143 206.552 90.8839L206.117 90.6873C206.117 90.6873 207.405 85.7347 209.46 82.2102Z" fill="url(#paint3_linear_867_1270)"/>
<path d="M149.372 104.788L154.981 98.4642C154.981 98.4642 154.471 92.8549 154.981 90.713C155.491 88.5715 155.49 87.6534 156.918 86.5313C158.346 85.4098 162.731 83.1656 162.731 83.1656V88.265L175.95 91.8859C175.95 91.8859 177.883 94.9561 174.913 96.6336C176.568 99.1271 174.529 101.204 174.529 101.204C174.529 101.204 175.577 104.055 172.977 104.6C172.977 104.6 173.439 106.738 170.626 107.643C170.626 107.643 169.791 109.045 166.436 109.464C165.513 109.58 162.732 109.83 162.732 109.83L157.429 115.088L149.372 104.788Z" fill="#DB936F"/>
<path d="M150.754 103.23L160.55 111.994L161.653 110.9L151.413 102.487L150.754 103.23Z" fill="#0E405B"/>
<path d="M174.65 96.639C174.65 96.639 171.724 96.3698 170.34 95.8719L174.65 96.639Z" fill="#E56441"/>
<path d="M174.65 96.639C174.65 96.639 171.724 96.3698 170.34 95.8719" stroke="#E56441" stroke-width="0.583718" stroke-linecap="round"/>
<path d="M174.105 101.117C174.105 101.117 171.179 100.847 169.796 100.349L174.105 101.117Z" fill="#E56441"/>
<path d="M174.105 101.117C174.105 101.117 171.179 100.847 169.796 100.349" stroke="#E56441" stroke-width="0.583718" stroke-linecap="round"/>
<path d="M172.955 104.521C172.955 104.521 170.029 104.252 168.646 103.754L172.955 104.521Z" fill="#E56441"/>
<path d="M172.955 104.521C172.955 104.521 170.029 104.252 168.646 103.754" stroke="#E56441" stroke-width="0.583718" stroke-linecap="round"/>
<path d="M170.34 107.622C170.34 107.622 167.414 107.352 166.031 106.855L170.34 107.622Z" fill="#E56441"/>
<path d="M170.34 107.622C170.34 107.622 167.414 107.352 166.031 106.855" stroke="#E56441" stroke-width="0.583718" stroke-linecap="round"/>
<path d="M111.215 81.9502C111.215 81.9502 108.665 67.6139 97.1965 69.7438C89.5073 71.1719 86.4952 75.462 87.607 86.8985C88.3838 94.8943 94.179 130.553 96.2629 145.121C98.4014 160.071 111.707 162.709 120.688 155.274L162.361 113.613L149.537 102.142L117.314 128.647L111.215 81.9502Z" fill="#1EAB89"/>
<path fill-rule="evenodd" clip-rule="evenodd" d="M151.41 79.8344L139.777 74.7631C137.691 85.0698 138.583 82.8916 137.145 83.6674C137.145 83.6674 124.872 84.1352 121.709 69.1606L108.236 69.6076C108.236 69.6076 104.456 79.9129 120.518 84.9158C117.992 90.9547 126.876 101.285 138.222 89.6462C146.084 101.366 151.368 90.4341 147.572 86.1909C153.246 82.8873 151.41 79.8344 151.41 79.8344Z" fill="white"/>
<path d="M140.266 61.4617L139.579 80.6804C139.579 80.6804 140.519 84.8892 136.2 84.4219C131.881 83.955 126.066 80.554 122.797 76.8184C119.529 73.0832 119.752 72.7834 121.152 70.3321C122.553 67.8807 129.131 49.1971 129.131 49.1971L140.266 61.4617Z" fill="#DB936F"/>
<path d="M140.168 63.0735L132.204 58.0017C132.204 58.0017 135.732 73.4891 139.579 80.6805L140.168 63.0735Z" fill="#BE6853"/>
<path d="M160.943 34.5877C160.943 34.5877 159.027 53.1047 150.017 61.5363C144.142 67.0351 138.754 65.6264 130.721 54.6219C123.355 44.5321 122.707 39.625 122.707 39.625L130.492 22.1095C130.492 22.1095 161.86 17.6446 160.943 34.5877Z" fill="#DB936F"/>
<path d="M143.291 54.1222L149.132 56.9881C149.106 57.0176 149.077 57.0501 149.045 57.084C148.865 57.2762 148.603 57.5247 148.272 57.7494C147.614 58.1968 146.707 58.5387 145.643 58.193C144.006 57.4898 143.449 56.4007 143.286 55.4994C143.203 55.0408 143.221 54.6239 143.26 54.3212C143.269 54.2471 143.28 54.1808 143.291 54.1222Z" fill="#E56441" stroke="#E56441" stroke-width="0.484269"/>
<path d="M156.965 47.524C157.226 46.4678 156.856 45.4678 156.139 45.2906C155.423 45.1138 154.63 45.8267 154.369 46.8833C154.108 47.9395 154.478 48.9395 155.195 49.1163C155.912 49.2935 156.704 48.5802 156.965 47.524Z" fill="#080B09"/>
<path d="M146.337 45.061C146.598 44.0048 146.228 43.0048 145.512 42.8276C144.795 42.6508 144.002 43.3636 143.742 44.4203C143.481 45.4765 143.851 46.4765 144.567 46.6533C145.284 46.8305 146.077 46.1172 146.337 45.061Z" fill="#080B09"/>
<path d="M159.318 43.4202L153.91 42.1786C153.819 42.15 153.743 42.0895 153.694 42.0081C153.645 41.9272 153.627 41.8314 153.643 41.7379C153.703 41.5791 153.795 41.4338 153.913 41.3113C154.031 41.1887 154.172 41.0909 154.329 41.0246C154.485 40.9582 154.654 40.9243 154.824 40.9248C154.994 40.9248 155.162 40.9597 155.318 41.027L159.559 42.8236C159.912 42.9108 159.76 43.5292 159.318 43.4202Z" fill="#080B09"/>
<path d="M141.158 38.579L148.202 40.7863C148.249 40.5665 148.25 40.3393 148.204 40.119C148.157 39.8991 148.066 39.6909 147.934 39.5083C147.803 39.3258 147.634 39.1727 147.44 39.0594C147.246 38.9461 147.03 38.8744 146.806 38.8492L141.178 38.1156C141.002 38.072 140.893 38.5136 141.158 38.579Z" fill="#080B09"/>
<path d="M151.402 45.584L152.166 51.2872L150.151 52.2596" stroke="#E56441" stroke-width="0.593224" stroke-linecap="round"/>
<path d="M227.792 291.208H34.0742C30.6553 291.208 27.8833 293.98 27.8833 297.398V357.892C27.8833 361.312 30.6553 364.084 34.0742 364.084H227.792C231.211 364.084 233.983 361.312 233.983 357.892V297.398C233.983 293.98 231.211 291.208 227.792 291.208Z" fill="#1EAB89" fill-opacity="0.6"/>
<path d="M72.6723 177.575H3.27365C1.46539 177.575 0 179.041 0 180.849V204.029C0 205.836 1.46539 207.302 3.27365 207.302H72.6723C74.4801 207.302 75.9454 205.836 75.9454 204.029V180.849C75.9454 179.041 74.4801 177.575 72.6723 177.575Z" fill="#186BB5"/>
<path d="M91.9486 327.287H96.8049C97.2291 327.286 97.6364 327.117 97.9361 326.816C98.2364 326.516 98.4049 326.108 98.4049 325.684C98.4049 325.259 98.2364 324.852 97.9361 324.551C97.6364 324.251 97.2291 324.082 96.8049 324.081H91.9486C91.5234 324.081 91.1162 324.25 90.8154 324.55C90.5147 324.851 90.3462 325.258 90.3462 325.684C90.3462 326.109 90.5147 326.517 90.8154 326.817C91.1162 327.118 91.5234 327.287 91.9486 327.287Z" fill="white"/>
<path d="M82.6255 309.902C82.6255 309.645 82.564 309.391 82.4453 309.163C82.3267 308.935 82.1548 308.739 81.9446 308.59C81.734 308.443 81.4908 308.348 81.2361 308.313C80.9814 308.279 80.7218 308.307 80.4797 308.394L50.3935 319.225H43.3895C42.9644 319.225 42.5566 319.394 42.2564 319.695C41.9556 319.995 41.7866 320.403 41.7866 320.828V330.539C41.7866 330.965 41.9556 331.372 42.2564 331.673C42.5566 331.973 42.9644 332.142 43.3895 332.142H49.0705V345.107C49.0705 345.318 49.1122 345.527 49.1925 345.721C49.2729 345.915 49.3911 346.092 49.5398 346.241C49.6889 346.39 49.8657 346.508 50.0599 346.588C50.2546 346.669 50.4628 346.71 50.6734 346.71H59.1709C59.3816 346.71 59.5903 346.668 59.7845 346.588C59.9791 346.508 60.1559 346.39 60.3046 346.241C60.4532 346.092 60.5714 345.915 60.6518 345.721C60.7327 345.526 60.7738 345.318 60.7738 345.107V335.879L80.4797 342.974C80.7218 343.061 80.9814 343.088 81.2361 343.054C81.4908 343.019 81.734 342.925 81.9441 342.777C82.1548 342.629 82.3267 342.433 82.4453 342.204C82.5635 341.976 82.6255 341.723 82.6255 341.465V309.902ZM44.9925 328.936V322.43H49.0705V328.936H44.9925ZM57.5685 343.504H52.2764V332.82L57.5685 334.725V343.504ZM52.2764 329.413V321.954L79.4201 312.183V339.185L52.2764 329.413Z" fill="white"/>
<path d="M91.8681 337.904L89.44 335.476C89.2913 335.327 89.1146 335.209 88.9199 335.129C88.7257 335.048 88.5175 335.007 88.3068 335.007C88.0961 335.007 87.8879 335.048 87.6932 335.129C87.499 335.209 87.3223 335.327 87.1731 335.476C87.0245 335.625 86.9063 335.801 86.8259 335.996C86.7455 336.19 86.7039 336.399 86.7039 336.609C86.7039 336.82 86.7455 337.029 86.8259 337.223C86.9063 337.417 87.0245 337.594 87.1731 337.743L89.6012 340.171C89.7504 340.32 89.9267 340.438 90.1213 340.518C90.316 340.599 90.5243 340.64 90.7349 340.64C90.9451 340.64 91.1538 340.599 91.348 340.518C91.5427 340.438 91.7194 340.32 91.8681 340.171C92.0168 340.022 92.1349 339.845 92.2153 339.651C92.2962 339.456 92.3374 339.248 92.3374 339.037C92.3374 338.827 92.2962 338.618 92.2153 338.424C92.1349 338.23 92.0168 338.053 91.8681 337.904Z" fill="white"/>
<path d="M87.1731 315.891C87.4739 316.192 87.8816 316.36 88.3068 316.36C88.732 316.36 89.1397 316.192 89.44 315.891L91.8681 313.463C92.1688 313.163 92.3374 312.755 92.3374 312.33C92.3374 311.905 92.1688 311.497 91.8681 311.197C91.5674 310.896 91.1596 310.727 90.7344 310.727C90.3097 310.727 89.902 310.896 89.6012 311.197L87.1731 313.624C86.8729 313.925 86.7039 314.333 86.7039 314.758C86.7039 315.183 86.8729 315.591 87.1731 315.891Z" fill="white"/>
<path d="M118.465 311.188H150.167" stroke="white" stroke-width="7.20984" stroke-miterlimit="10" stroke-linecap="round"/>
<path d="M118.465 346.685H177.213" stroke="white" stroke-width="7.20984" stroke-miterlimit="10" stroke-linecap="round"/>
<path opacity="0.4" d="M118.465 328.936H193.665" stroke="white" stroke-width="7.20984" stroke-miterlimit="10" stroke-linecap="round"/>
<path d="M483.46 227.011H447.735C445.784 227.011 444.2 228.595 444.2 230.548V263.144C444.2 265.097 445.784 266.68 447.735 266.68H483.46C485.416 266.68 487 265.097 487 263.144V230.548C487 228.595 485.416 227.011 483.46 227.011Z" fill="#186BB5"/>
<path d="M32.9457 198.703C32.3902 198.703 31.89 198.607 31.4454 198.417C31.0009 198.218 30.6517 197.941 30.3975 197.584C30.1437 197.226 30.0164 196.81 30.0164 196.333H31.4692C31.5011 196.691 31.6401 196.984 31.8861 197.215C32.1399 197.445 32.4934 197.56 32.9457 197.56C33.414 197.56 33.7791 197.448 34.0411 197.226C34.3031 196.996 34.4343 196.702 34.4343 196.345C34.4343 196.067 34.3506 195.841 34.184 195.666C34.0251 195.492 33.8227 195.357 33.5767 195.261C33.3389 195.167 33.0053 195.063 32.5767 194.952C32.0367 194.809 31.596 194.666 31.2551 194.523C30.9214 194.372 30.6357 194.142 30.3975 193.833C30.1597 193.523 30.0406 193.11 30.0406 192.595C30.0406 192.118 30.1597 191.701 30.3975 191.344C30.6357 190.987 30.9694 190.713 31.398 190.522C31.8266 190.332 32.3224 190.237 32.8861 190.237C33.6881 190.237 34.3428 190.439 34.8508 190.844C35.367 191.241 35.6528 191.789 35.7085 192.487H34.2077C34.184 192.185 34.0411 191.928 33.7791 191.713C33.5171 191.499 33.1719 191.392 32.7433 191.392C32.3544 191.392 32.0367 191.491 31.7907 191.689C31.5447 191.888 31.4217 192.174 31.4217 192.547C31.4217 192.801 31.4972 193.011 31.6479 193.178C31.8067 193.336 32.0052 193.463 32.243 193.559C32.4813 193.654 32.8067 193.757 33.2198 193.868C33.7675 194.019 34.2121 194.17 34.553 194.321C34.9026 194.472 35.1961 194.706 35.4343 195.023C35.6804 195.333 35.8034 195.75 35.8034 196.274C35.8034 196.694 35.6886 197.092 35.4581 197.464C35.2358 197.837 34.9065 198.139 34.4697 198.37C34.0411 198.592 33.5331 198.703 32.9457 198.703ZM40.7986 191.951C41.2988 191.951 41.7434 192.059 42.1323 192.273C42.5294 192.487 42.8388 192.805 43.0611 193.226C43.2911 193.646 43.4064 194.154 43.4064 194.75V198.619H42.0611V194.952C42.0611 194.365 41.9139 193.916 41.6204 193.607C41.3265 193.289 40.9255 193.13 40.4175 193.13C39.9095 193.13 39.5046 193.289 39.2029 193.607C38.9095 193.916 38.7627 194.365 38.7627 194.952V198.619H37.4053V189.808H38.7627V192.821C38.9928 192.543 39.2823 192.328 39.632 192.178C39.9889 192.027 40.3778 191.951 40.7986 191.951ZM44.6853 195.309C44.6853 194.65 44.8204 194.067 45.0902 193.559C45.3682 193.051 45.741 192.658 46.2093 192.38C46.6858 192.094 47.2098 191.951 47.7813 191.951C48.297 191.951 48.7459 192.055 49.1266 192.261C49.5159 192.459 49.8254 192.709 50.0554 193.011V192.059H51.4249V198.619H50.0554V197.643C49.8254 197.953 49.5116 198.211 49.1149 198.417C48.7178 198.623 48.2655 198.726 47.7575 198.726C47.1939 198.726 46.6776 198.584 46.2093 198.298C45.741 198.004 45.3682 197.6 45.0902 197.083C44.8204 196.559 44.6853 195.968 44.6853 195.309ZM50.0554 195.333C50.0554 194.88 49.9605 194.488 49.7697 194.154C49.5871 193.821 49.345 193.567 49.0433 193.392C48.7416 193.217 48.4161 193.13 48.067 193.13C47.7178 193.13 47.3924 193.217 47.0907 193.392C46.789 193.559 46.543 193.809 46.3522 194.142C46.1696 194.468 46.0786 194.857 46.0786 195.309C46.0786 195.762 46.1696 196.159 46.3522 196.5C46.543 196.841 46.789 197.103 47.0907 197.286C47.4001 197.461 47.7256 197.548 48.067 197.548C48.4161 197.548 48.7416 197.461 49.0433 197.286C49.345 197.111 49.5871 196.857 49.7697 196.524C49.9605 196.183 50.0554 195.785 50.0554 195.333ZM54.5654 193.011C54.7635 192.678 55.0254 192.42 55.3509 192.237C55.6845 192.046 56.0773 191.951 56.5301 191.951V193.356H56.1843C55.6526 193.356 55.2477 193.491 54.9702 193.761C54.7 194.031 54.5654 194.5 54.5654 195.167V198.619H53.2075V192.059H54.5654V193.011ZM63.7907 195.178C63.7907 195.424 63.7747 195.646 63.7432 195.845H58.7301C58.7698 196.369 58.9645 196.79 59.3136 197.107C59.6628 197.425 60.0914 197.584 60.5994 197.584C61.3296 197.584 61.8459 197.278 62.1476 196.667H63.612C63.4135 197.27 63.0527 197.766 62.5287 198.155C62.0125 198.536 61.3694 198.726 60.5994 198.726C59.9722 198.726 59.409 198.587 58.9088 198.31C58.4168 198.024 58.0274 197.627 57.7417 197.119C57.4642 196.603 57.3252 196.008 57.3252 195.333C57.3252 194.658 57.4599 194.067 57.7301 193.559C58.0076 193.043 58.3926 192.646 58.8851 192.368C59.3848 192.09 59.9567 191.951 60.5994 191.951C61.2188 191.951 61.7703 192.086 62.2546 192.356C62.7389 192.626 63.1161 193.007 63.3859 193.499C63.6556 193.983 63.7907 194.543 63.7907 195.178ZM62.3737 194.75C62.366 194.249 62.1873 193.848 61.8381 193.547C61.4885 193.245 61.056 193.094 60.5398 193.094C60.0715 193.094 59.671 193.245 59.3374 193.547C59.0042 193.841 58.8056 194.242 58.7422 194.75H62.3737Z" fill="white"/>
<path d="M20.0497 194.515C19.58 194.515 19.1165 194.619 18.6918 194.818C18.2671 195.018 17.8918 195.309 17.5925 195.671L13.7784 193.506C14.0235 192.816 14.0235 192.062 13.7784 191.373L17.592 189.207C18.102 189.82 18.8226 190.22 19.6129 190.329C20.4032 190.437 21.2052 190.245 21.8609 189.792C22.517 189.338 22.979 188.655 23.1563 187.877C23.3335 187.1 23.2134 186.284 22.8192 185.591C22.4246 184.898 21.7848 184.377 21.026 184.132C20.2671 183.887 19.4439 183.935 18.7184 184.267C17.9935 184.599 17.4187 185.191 17.1083 185.925C16.7973 186.659 16.7727 187.484 17.0395 188.235L13.2259 190.401C12.8065 189.895 12.2413 189.531 11.6074 189.358C10.9735 189.185 10.3019 189.212 9.68344 189.435C9.06552 189.657 8.53137 190.066 8.15364 190.603C7.77591 191.141 7.573 191.782 7.573 192.439C7.573 193.096 7.77591 193.737 8.15364 194.275C8.53088 194.813 9.06552 195.22 9.68344 195.444C10.3019 195.666 10.9735 195.693 11.6074 195.52C12.2413 195.347 12.8065 194.983 13.2254 194.477L17.0395 196.643C16.8133 197.281 16.7964 197.976 16.9911 198.625C17.1857 199.275 17.5819 199.845 18.1223 200.254C18.6628 200.663 19.3199 200.89 19.9974 200.901C20.6754 200.912 21.3388 200.707 21.8928 200.316C22.4463 199.924 22.8609 199.368 23.0769 198.725C23.2924 198.082 23.2982 197.387 23.0928 196.741C22.8875 196.095 22.4822 195.531 21.935 195.131C21.3877 194.731 20.7277 194.515 20.0497 194.515ZM20.0497 185.092C20.4604 185.092 20.8618 185.214 21.2032 185.442C21.5451 185.67 21.811 185.994 21.9684 186.374C22.1258 186.754 22.1669 187.171 22.0865 187.574C22.0066 187.977 21.8086 188.347 21.5185 188.637C21.2279 188.928 20.8579 189.125 20.455 189.206C20.0521 189.286 19.6347 189.244 19.255 189.088C18.8753 188.93 18.5514 188.664 18.3233 188.322C18.0952 187.98 17.9732 187.579 17.9736 187.168C17.9741 186.618 18.193 186.09 18.5824 185.701C18.9712 185.312 19.4991 185.093 20.0497 185.092ZM10.7692 194.515C10.3585 194.515 9.95705 194.394 9.61564 194.166C9.27424 193.937 9.00788 193.613 8.85098 193.234C8.69359 192.855 8.65243 192.437 8.73234 192.034C8.81272 191.631 9.01031 191.261 9.30039 190.971C9.59095 190.681 9.96093 190.483 10.3638 190.403C10.7663 190.323 11.1837 190.364 11.5634 190.521C11.9426 190.678 12.2665 190.944 12.4951 191.286C12.7232 191.627 12.8447 192.028 12.8447 192.439C12.8443 192.989 12.6254 193.517 12.236 193.906C11.8472 194.295 11.3193 194.514 10.7692 194.515ZM20.0497 199.785C19.639 199.785 19.2376 199.664 18.8957 199.436C18.5543 199.208 18.2879 198.883 18.131 198.504C17.9736 198.124 17.9325 197.707 18.0124 197.304C18.0928 196.901 18.2904 196.531 18.5809 196.241C18.871 195.951 19.241 195.752 19.6439 195.673C20.0468 195.593 20.4642 195.633 20.8439 195.791C21.2231 195.948 21.5475 196.214 21.7756 196.556C22.0037 196.897 22.1253 197.299 22.1253 197.709C22.1248 198.26 21.9059 198.787 21.5165 199.177C21.1277 199.566 20.5998 199.785 20.0497 199.785Z" fill="white"/>
<path d="M452.278 252.873L458.496 246.654C458.903 246.247 459.455 246.019 460.026 246.019C460.602 246.019 461.154 246.247 461.561 246.654L466.423 251.518C466.83 251.924 467.382 252.153 467.958 252.153C468.53 252.153 469.082 251.924 469.489 251.518L477.44 243.568" stroke="white" stroke-width="2.49993" stroke-miterlimit="10" stroke-linecap="round"/>
<path d="M473.75 242.136H478.172C478.37 242.136 478.564 242.216 478.705 242.357C478.845 242.498 478.922 242.69 478.922 242.889V246.89" stroke="white" stroke-width="2.49993" stroke-miterlimit="10" stroke-linecap="round"/>
<path d="M375.927 166.95C377.042 164.41 376.38 161.663 374.447 160.814C372.515 159.966 370.044 161.337 368.929 163.878C367.814 166.418 368.476 169.166 370.408 170.014C372.341 170.863 374.811 169.491 375.927 166.95Z" stroke="#080B09" stroke-width="0.484269" stroke-miterlimit="10"/>
<path d="M364.84 162.213C365.955 159.673 365.293 156.925 363.36 156.077C361.428 155.228 358.957 156.6 357.842 159.141C356.726 161.681 357.389 164.428 359.322 165.276C361.254 166.125 363.725 164.753 364.84 162.213Z" stroke="#080B09" stroke-width="0.484269" stroke-miterlimit="10"/>
<path d="M364.841 162.215C364.841 162.215 367.51 162.168 368.929 163.878" stroke="#080B09" stroke-width="0.484269" stroke-miterlimit="10"/>
<path d="M375.603 167.583H387.105" stroke="#080B09" stroke-width="0.484269" stroke-miterlimit="10"/>
<path d="M138.222 89.6461C138.222 89.6461 139.01 100.271 138.222 108.692" stroke="#96BAFD" stroke-width="0.484269" stroke-miterlimit="10"/>
<path fill-rule="evenodd" clip-rule="evenodd" d="M373.538 198.868C384.277 192.144 386.059 187.958 386.059 187.958L390.582 196.721L378.036 206.177C377.534 204.849 376.919 203.568 376.198 202.345L372.667 205.159L373.538 198.868ZM360.543 196.665L365.176 193.198C365.176 193.198 364.813 196.411 369.608 198.595L370.008 204.561L367.685 202.309L364.593 206.391L360.543 196.665Z" fill="#1C85E8"/>
<path d="M372.667 205.159L373.538 198.868L376.198 202.345L372.667 205.159Z" fill="#1C85E8"/>
<path d="M369.608 198.595L367.685 202.309L370.007 204.561L369.608 198.595Z" fill="#1C85E8"/>
<path d="M370.007 204.561L371.471 222.64C371.491 222.893 371.597 223.131 371.77 223.316C371.943 223.501 372.174 223.622 372.425 223.659C372.59 223.683 372.758 223.671 372.918 223.622C373.078 223.572 373.224 223.488 373.347 223.376C373.469 223.263 373.566 223.124 373.628 222.97C373.691 222.815 373.718 222.649 373.708 222.482L372.667 205.159L371.535 206.177L370.007 204.561Z" fill="#1C85E8"/>
<path d="M376.443 212.438C377.215 212.438 377.842 211.812 377.842 211.04C377.842 210.267 377.215 209.641 376.443 209.641C375.671 209.641 375.045 210.267 375.045 211.04C375.045 211.812 375.671 212.438 376.443 212.438Z" fill="#1C85E8"/>
<path d="M376.898 220.673C377.67 220.673 378.296 220.048 378.296 219.275C378.296 218.503 377.67 217.877 376.898 217.877C376.125 217.877 375.5 218.503 375.5 219.275C375.5 220.048 376.125 220.673 376.898 220.673Z" fill="#1C85E8"/>
<path d="M126.287 21.022C126.287 21.022 122.318 13.2269 111.705 9.54284C101.092 5.85884 95.4318 14.5358 94.4123 20.4914C93.3928 26.447 98.8308 40.6641 95.8343 45.3335C92.8379 50.0026 101.462 49.561 104.926 39.5799C108.389 29.5992 115.249 16.203 122.764 23.5427L126.287 21.022Z" fill="#080B09"/>
<path d="M125.349 17.607C125.349 17.607 124.209 16.4929 122.782 18.0537C121.355 19.6144 118.615 22.8239 120.659 24.3787C122.703 25.9336 125.349 17.607 125.349 17.607Z" fill="#1C85E8"/>
<path d="M155.185 25.942C155.185 25.942 152.639 34.0505 144.659 36.2657C144.659 36.2657 141.019 42.0559 133.038 41.6073C133.038 41.6073 134.96 35.9238 131.32 35.0641C125.14 33.6046 125.795 43.7089 129.567 46.2975C132.13 48.0569 132.894 52.1838 126.557 59.5362C117.793 53.6499 114.543 38.0446 121.114 23.3176C126.376 11.5238 142.69 11.3814 145.73 12.5815C145.73 12.5815 159.923 11.3894 163.652 25.4969C166.84 37.5568 159.752 42.47 159.752 42.47L159.012 32.2695C159.012 32.2695 157.471 32.8554 155.185 25.942Z" fill="#080B09"/>
<defs>
<linearGradient id="paint0_linear_867_1270" x1="126.216" y1="67.412" x2="174.681" y2="510.265" gradientUnits="userSpaceOnUse">
<stop stop-color="white"/>
<stop offset="1" stop-color="#94B9FF"/>
</linearGradient>
<linearGradient id="paint1_linear_867_1270" x1="354.737" y1="183.057" x2="403.202" y2="625.908" gradientUnits="userSpaceOnUse">
<stop stop-color="white"/>
<stop offset="1" stop-color="#94B9FF"/>
</linearGradient>
<linearGradient id="paint2_linear_867_1270" x1="177.774" y1="63.3" x2="166.697" y2="110.73" gradientUnits="userSpaceOnUse">
<stop stop-color="white"/>
<stop offset="1" stop-color="#94B9FF"/>
</linearGradient>
<linearGradient id="paint3_linear_867_1270" x1="209.385" y1="82.1884" x2="212.116" y2="101.273" gradientUnits="userSpaceOnUse">
<stop stop-color="white"/>
<stop offset="1" stop-color="#94B9FF"/>
</linearGradient>
</defs>
</svg>
