<svg width="103" height="75" viewBox="0 0 103 75" fill="none" xmlns="http://www.w3.org/2000/svg">
<path d="M23.5541 31.8756C21.3154 31.8756 19.3688 31.6016 17.5194 31.0536C15.6701 30.5056 14.2101 29.6836 13.0421 28.5876C11.7768 27.583 10.8034 26.3043 10.2194 24.843C9.53809 23.3816 9.24609 21.7376 9.24609 19.911V4.11029C9.63543 4.01896 10.3168 3.92762 11.0954 3.83629C11.8741 3.74496 12.7501 3.65362 13.5288 3.65362C15.2808 3.65362 16.5461 3.92763 17.3248 4.47563C18.1034 5.02362 18.4928 6.11962 18.4928 7.76362V19.7283C18.4928 21.281 18.9794 22.5596 19.8554 23.473C20.8288 24.3863 21.9968 24.843 23.4568 24.843C24.9168 24.843 26.1821 24.3863 27.0581 23.473C28.0314 22.5596 28.4208 21.3723 28.4208 19.7283V0.730958C28.8101 0.639625 29.4914 0.548292 30.2701 0.456958C31.2434 0.365625 32.0221 0.274292 32.8008 0.274292C34.5528 0.274292 35.8181 0.548291 36.5968 1.09629C37.3754 1.64429 37.7648 2.74029 37.7648 4.38429V19.911C37.7648 21.7376 37.4728 23.3816 36.7914 24.843C36.2074 26.3043 35.2341 27.583 33.9688 28.5876C32.8008 29.6836 31.2434 30.5056 29.4914 31.0536C27.7394 31.6016 25.6954 31.8756 23.5541 31.8756Z" fill="#1EAB89"/>
<path d="M53.8248 22.742V29.9573C53.8248 30.5053 53.4355 30.962 52.7541 31.0533C52.5595 31.0533 52.2675 31.1447 51.9755 31.1447C51.1968 31.3273 50.4181 31.3273 49.5421 31.3273C47.6928 31.3273 46.3301 31.0533 45.6488 30.414C44.9675 29.866 44.5781 28.77 44.5781 27.2173V3.65333C44.5781 2.92267 44.7728 2.37467 45.1621 2.00933C45.5515 1.644 46.1355 1.27867 46.8168 1.096C47.9848 0.730666 49.4448 0.365333 51.0995 0.182666C52.7541 0.0913332 54.2141 0 55.5768 0C60.4435 0 64.1421 1.00467 66.7701 2.92267C69.3981 4.84067 70.6635 7.48933 70.6635 10.8687C70.6635 12.5127 70.3714 13.974 69.6901 15.2527C69.0088 16.6227 68.1328 17.7187 66.8674 18.632C65.6994 19.6367 64.2395 20.3673 62.5848 20.824C60.9301 21.372 58.9835 21.646 56.9395 21.646H55.0901C54.4088 21.646 53.8248 22.1027 53.8248 22.742ZM56.3555 14.796C57.8155 14.796 58.9835 14.4307 59.8595 13.7913C60.7355 13.0607 61.2221 12.1473 61.2221 10.8687C61.2221 9.59 60.8328 8.67666 59.9568 7.946C59.1781 7.30666 57.9128 6.94133 56.3555 6.94133C55.7715 6.94133 55.2848 6.94133 54.9928 6.94133C54.3115 6.94133 53.8248 7.48933 53.8248 8.03733V13.6087C53.8248 14.248 54.4088 14.7047 54.9928 14.7047H56.3555V14.796Z" fill="#1EAB89"/>
<path d="M30.076 47.4022C30.076 50.0509 29.6867 52.3342 28.8107 54.3436C27.9347 56.3529 26.7667 57.9969 25.2093 59.2756C23.5547 60.7369 21.7053 61.7416 19.4667 62.3809C17.228 63.0202 14.892 63.3856 12.1667 63.3856C11.5827 63.3856 10.9013 63.3856 10.1227 63.2942C9.344 63.2942 8.56533 63.2029 7.68933 63.1116C6.81333 63.0202 6.03467 62.9289 5.15867 62.7462C4.38 62.5636 3.69867 62.3809 2.92 62.1069C0.973333 61.3762 0 60.1889 0 58.4536V35.2549C0 34.5242 0.194666 33.9762 0.583999 33.6109C0.973333 33.2456 1.55733 32.8802 2.23867 32.6976C3.796 32.2409 5.35333 31.9669 7.10533 31.7842C8.85733 31.6016 10.3173 31.6016 11.68 31.6016C14.4053 31.6016 16.936 31.8756 19.1747 32.5149C21.4133 33.1542 23.36 34.1589 25.0147 35.4376C26.6693 36.7162 27.8373 38.3602 28.7133 40.3696C29.5893 42.3789 30.076 44.7536 30.076 47.4022ZM20.5373 47.5849C20.5373 44.5709 19.7587 42.3789 18.2987 40.8262C16.7413 39.3649 14.7947 38.5429 12.3613 38.5429C11.8747 38.5429 11.388 38.5429 10.804 38.6342C10.3173 38.6342 9.73333 38.7256 9.24667 38.8169V56.1702C9.636 56.2616 10.1227 56.2616 10.7067 56.3529C11.2907 56.3529 11.7773 56.3529 12.264 56.3529C14.6973 56.3529 16.7413 55.6222 18.2013 54.1609C19.7587 52.6996 20.5373 50.5076 20.5373 47.5849Z" fill="#1EAB89"/>
<path d="M49.4452 63.4766C47.2065 63.4766 45.2599 63.2026 43.4105 62.6546C41.6585 62.0152 40.1985 61.2846 38.9332 60.1886C37.6679 59.1839 36.7919 57.9052 36.1105 56.4439C35.4292 54.9826 35.1372 53.3386 35.1372 51.5119V32.3319C35.5265 32.2406 36.2079 32.1492 36.9865 32.0579C37.7652 31.9666 38.6412 31.8752 39.4199 31.8752C41.1719 31.8752 42.4372 32.1492 43.2159 32.6972C43.9945 33.2452 44.3839 34.3412 44.3839 35.9852V51.3292C44.3839 52.8819 44.8705 54.1606 45.7465 55.0739C46.7199 55.9872 47.8879 56.4439 49.3479 56.4439C50.8079 56.4439 52.0732 55.9872 52.9492 55.0739C53.9225 54.1606 54.3119 52.9732 54.3119 51.3292V32.3319C54.8959 32.2406 55.5772 32.1492 56.3559 32.0579C57.1345 31.9666 58.0105 31.8752 58.7892 31.8752C60.5412 31.8752 61.8066 32.1492 62.5852 32.6972C63.3639 33.2452 63.7532 34.3412 63.7532 35.9852V51.5119C63.7532 53.3386 63.4612 54.9826 62.7799 56.4439C62.0985 57.9052 61.2225 59.1839 59.9572 60.1886C58.6919 61.1932 57.2319 62.0152 55.4799 62.5632C53.6305 63.2026 51.6839 63.4766 49.4452 63.4766Z" fill="#1EAB89"/>
<path d="M102.492 47.402C102.492 49.9594 102.102 52.2427 101.226 54.252C100.35 56.2614 99.1823 57.9054 97.7223 59.2754C96.2623 60.6454 94.413 61.65 92.369 62.2894C90.325 63.02 88.0863 63.294 85.653 63.294C83.2196 63.294 80.981 62.9287 78.937 62.2894C76.893 61.5587 75.141 60.554 73.681 59.184C72.221 57.9967 71.053 56.2614 70.2743 54.3434C69.3983 52.334 68.9116 50.0507 68.9116 47.402C68.9116 44.7534 69.301 42.5614 70.177 40.552C71.053 38.5427 72.221 36.8987 73.681 35.5287C75.141 34.1587 76.9903 33.154 78.937 32.4234C80.981 31.6927 83.1223 31.4187 85.5556 31.4187C87.8916 31.4187 90.1303 31.784 92.1743 32.4234C94.2183 33.154 95.9703 34.1587 97.5276 35.5287C99.085 36.8987 100.253 38.5427 101.129 40.552C102.102 42.5614 102.492 44.8447 102.492 47.402ZM92.953 47.402C92.953 44.388 92.2716 42.196 91.0063 40.6434C89.741 39.182 87.8916 38.36 85.7503 38.36C83.609 38.36 81.857 39.0907 80.4943 40.552C79.1316 42.0134 78.5476 44.2967 78.5476 47.3107C78.5476 50.3247 79.229 52.608 80.4943 54.0694C81.7596 55.5307 83.609 56.3527 85.7503 56.3527C87.989 56.3527 89.6436 55.622 91.0063 54.0694C92.369 52.6994 92.953 50.416 92.953 47.402Z" fill="#1EAB89"/>
<path d="M3.40706 73.2492L3.30973 73.3406C3.21239 73.3406 3.21239 73.3406 3.11506 73.3406C3.01773 73.3406 2.92039 73.3406 2.92039 73.3406C2.82306 73.3406 2.82306 73.2492 2.82306 73.2492C2.53106 72.7012 2.33639 72.1533 2.04439 71.6966C1.84973 71.2399 1.65506 70.8746 1.55773 70.6006C1.55773 70.9659 1.55773 71.3313 1.4604 71.6053C1.4604 71.8792 1.4604 72.2446 1.36306 72.5186C1.36306 72.7926 1.36306 73.1579 1.26573 73.4319C1.26573 73.7059 1.26573 74.0712 1.16839 74.4366H1.07106C0.973727 74.4366 0.973727 74.4366 0.876393 74.4366C0.77906 74.4366 0.681727 74.4366 0.584394 74.3452C0.584394 74.3452 0.487061 74.2539 0.487061 74.1626C0.487061 74.0712 0.487061 73.9799 0.487061 73.8886C0.487061 73.7059 0.487061 73.5232 0.487061 73.3406C0.487061 73.0666 0.48706 72.8839 0.584394 72.6099C0.584394 72.3359 0.584394 72.0619 0.681727 71.7879C0.681727 71.5139 0.681727 71.2399 0.77906 70.9659C0.77906 70.6919 0.77906 70.4179 0.876393 70.2352C0.876393 70.2352 0.973727 70.1439 1.07106 70.1439C1.16839 70.1439 1.26573 70.1439 1.36306 70.1439C1.55773 70.1439 1.75239 70.2353 1.84973 70.4179C1.94706 70.6006 2.04439 70.7832 2.14173 71.0572C2.23906 71.2399 2.33639 71.5139 2.43373 71.6966C2.53106 71.8793 2.62839 72.1532 2.72573 72.3359C2.82306 72.5186 2.92039 72.7926 3.01773 72.9752C3.11506 72.7012 3.21239 72.4272 3.40706 72.2446C3.50439 71.9706 3.60173 71.7879 3.69906 71.5139C3.79639 71.2399 3.89373 71.0573 3.99106 70.8746C4.08839 70.6919 4.18573 70.5092 4.28306 70.3266C4.28306 70.3266 4.38039 70.3266 4.47773 70.2352C4.57506 70.2352 4.57506 70.2352 4.67239 70.2352C4.96439 70.2352 5.06173 70.3266 5.06173 70.5093C5.06173 70.6006 5.06173 70.7832 5.15906 70.9659C5.15906 71.1486 5.25639 71.4226 5.25639 71.6966C5.25639 71.9706 5.35373 72.2446 5.35373 72.5186C5.35373 72.7926 5.35373 73.1579 5.45106 73.4319C5.45106 73.7059 5.45106 73.9799 5.54839 74.2539C5.54839 74.5279 5.54839 74.7106 5.54839 74.8019C5.45106 74.8932 5.35373 74.8932 5.25639 74.8932C5.15906 74.8932 5.06173 74.8932 5.06173 74.8019C4.96439 74.8019 4.96439 74.7106 4.96439 74.6192C4.96439 74.2539 4.86706 73.8886 4.86706 73.5232C4.86706 73.1579 4.86706 72.7926 4.76973 72.5186C4.76973 72.2446 4.76973 71.8792 4.67239 71.6053C4.57506 71.3313 4.67239 71.1486 4.67239 70.9659C4.57506 71.1486 4.57506 71.2399 4.47773 71.4226C4.38039 71.6052 4.28306 71.7879 4.18573 71.9706C4.08839 72.1532 3.99106 72.4272 3.7964 72.7012C3.69906 72.6099 3.60173 72.8839 3.40706 73.2492Z" fill="#1EAB89"/>
<path d="M11.0966 73.1582H8.95527C8.95527 73.2496 8.85793 73.3409 8.85793 73.5236C8.85793 73.6149 8.7606 73.7976 8.7606 73.8889C8.7606 73.9802 8.66327 74.0716 8.66327 74.1629C8.66327 74.2542 8.56593 74.3456 8.56593 74.4369C8.4686 74.4369 8.37127 74.4369 8.27393 74.4369C8.1766 74.4369 8.07927 74.4369 8.07927 74.3456C7.98193 74.3456 7.98193 74.2542 7.98193 74.1629V74.0716C7.98193 73.9802 7.98193 73.9802 8.07927 73.8889C8.1766 73.7062 8.27393 73.4322 8.37127 73.0669C8.4686 72.7016 8.66327 72.4276 8.7606 72.0622C8.85793 71.6969 9.0526 71.3316 9.24727 70.9662C9.44193 70.6009 9.53927 70.2356 9.6366 69.9616C9.6366 69.9616 9.73393 69.9616 9.83127 69.8702C9.9286 69.8702 10.0259 69.8702 10.1233 69.8702C10.2206 69.8702 10.3179 69.8702 10.4153 69.8702C10.5126 69.8702 10.6099 69.9616 10.6099 70.0529C10.7073 70.3269 10.9019 70.6922 10.9993 71.0576C11.0966 71.4229 11.2913 71.7882 11.3886 72.1536C11.5833 72.5189 11.6806 72.8842 11.7779 73.2496C11.8753 73.6149 12.0699 73.9802 12.1673 74.2542C12.1673 74.2542 12.0699 74.3456 11.9726 74.3456C11.8753 74.3456 11.8753 74.3456 11.7779 74.3456C11.6806 74.3456 11.5833 74.3456 11.5833 74.2542C11.4859 74.2542 11.4859 74.1629 11.4859 74.0716L11.0966 73.1582ZM10.0259 70.4182C9.9286 70.6009 9.9286 70.6922 9.83127 70.9662C9.73393 71.0576 9.73393 71.2402 9.6366 71.5142C9.53927 71.6969 9.44193 71.9709 9.44193 72.1536C9.3446 72.3362 9.24727 72.6102 9.24727 72.7929H10.9993C10.9019 72.6102 10.8046 72.3362 10.7073 72.1536C10.6099 71.9709 10.5126 71.6969 10.5126 71.5142C10.4153 71.3316 10.3179 71.1489 10.3179 70.9662C10.1233 70.6009 10.1233 70.5096 10.0259 70.4182Z" fill="#1EAB89"/>
<path d="M15.2812 74.3455H15.1839C15.0865 74.3455 15.0865 74.3455 14.9892 74.3455C14.7945 74.3455 14.5999 74.2541 14.5999 74.0715V70.1441C14.5999 70.0528 14.5999 69.9615 14.6972 69.9615C14.6972 69.9615 14.7945 69.8701 14.8919 69.8701C15.0865 69.8701 15.1839 69.7788 15.4759 69.7788C15.6705 69.7788 15.9625 69.7788 16.1572 69.7788C16.8385 69.7788 17.3252 69.8701 17.6172 70.1441C17.9092 70.4181 18.1039 70.7835 18.1039 71.2401C18.1039 71.6055 18.0065 71.8795 17.8119 72.0621C17.6172 72.3361 17.3252 72.4275 16.9359 72.5188C17.0332 72.7015 17.2279 72.7928 17.3252 72.9755C17.4225 73.1581 17.6172 73.2495 17.7145 73.4321C17.8119 73.6148 17.9092 73.7061 18.0065 73.7975C18.1039 73.8888 18.2012 73.9801 18.2012 74.0715C18.2012 74.1628 18.1039 74.2541 18.1039 74.2541C18.0065 74.3455 18.0065 74.3455 17.9092 74.3455C17.8119 74.3455 17.7145 74.3455 17.7145 74.2541C17.7145 74.1628 17.6172 74.1628 17.5199 74.0715L16.3519 72.6101H15.2812V74.3455ZM16.1572 72.1535C16.5465 72.1535 16.8385 72.0621 17.0332 71.8795C17.2279 71.6968 17.3252 71.5141 17.3252 71.1488C17.3252 70.8748 17.2279 70.6008 16.9359 70.4181C16.7412 70.2355 16.3519 70.1441 15.9625 70.1441C15.8652 70.1441 15.6705 70.1441 15.5732 70.1441C15.4759 70.1441 15.2812 70.1441 15.1839 70.2355V72.0621H16.1572V72.1535Z" fill="#1EAB89"/>
<path d="M21.5107 72.2449V74.3456H21.4133C21.316 74.3456 21.316 74.3456 21.2187 74.3456C21.024 74.3456 20.8293 74.2542 20.8293 74.0716V69.8702H20.9267C21.024 69.8702 21.024 69.8702 21.1213 69.8702C21.316 69.8702 21.5107 69.9616 21.5107 70.1442V71.9709L23.652 69.8702C23.7493 69.8702 23.8467 69.8702 23.944 69.9616C24.0413 70.0529 24.0413 70.0529 24.0413 70.1442C24.0413 70.2356 24.0413 70.2356 23.944 70.3269C23.944 70.4182 23.8467 70.4182 23.7493 70.5096L22.0947 72.0622C22.5813 72.5189 22.9707 72.8842 23.36 73.2496C23.7493 73.6149 24.0413 73.8889 24.236 74.0716C24.236 74.1629 24.236 74.2542 24.1387 74.3456C24.0413 74.4369 24.0413 74.4369 23.944 74.4369C23.8467 74.4369 23.7493 74.4369 23.7493 74.3456C23.652 74.2542 23.652 74.2542 23.5547 74.1629L21.5107 72.2449Z" fill="#1EAB89"/>
<path d="M26.9613 74.3456C26.864 74.2543 26.864 74.1629 26.864 74.0716V70.2356C26.864 70.1442 26.864 70.0529 26.9613 69.9616C27.0587 69.8702 27.156 69.8702 27.2533 69.8702H29.8813V69.9616V70.0529C29.8813 70.1442 29.8814 70.2356 29.784 70.2356C29.784 70.3269 29.6867 70.3269 29.5894 70.3269H27.448V71.7882H29.492V71.8796V71.9709C29.492 72.0622 29.492 72.1536 29.3947 72.1536C29.3947 72.2449 29.2973 72.2449 29.2 72.2449H27.2533V73.7976H29.5894V73.8889C29.5894 73.8889 29.5894 73.9802 29.5894 74.0716C29.5894 74.1629 29.5893 74.2542 29.492 74.2542C29.492 74.3456 29.3947 74.3456 29.2973 74.3456H27.2533C27.0587 74.4369 27.0587 74.3456 26.9613 74.3456Z" fill="#1EAB89"/>
<path d="M34.2618 70.4181V74.3455H34.1644C34.0671 74.3455 34.0671 74.3455 33.9698 74.3455C33.7751 74.3455 33.5804 74.2541 33.5804 74.0715V70.3268H32.2178V70.2355C32.2178 70.2355 32.2178 70.1441 32.2178 70.0528C32.2178 69.9615 32.2178 69.8701 32.3151 69.8701C32.3151 69.7788 32.4124 69.7788 32.5098 69.7788H35.9164V69.8701V69.9615C35.9164 70.0528 35.9164 70.1441 35.8191 70.1441C35.8191 70.2355 35.7218 70.2355 35.6244 70.2355H34.2618V70.4181Z" fill="#1EAB89"/>
<path d="M38.8364 74.437C38.7391 74.437 38.7391 74.437 38.6418 74.437C38.4471 74.437 38.2524 74.3457 38.2524 74.163V69.9617H38.3498C38.4471 69.9617 38.4471 69.9617 38.5444 69.9617C38.7391 69.9617 38.8364 70.053 38.8364 70.2357V74.437C38.9338 74.3457 38.8364 74.437 38.8364 74.437Z" fill="#1EAB89"/>
<path d="M42.2431 74.4369C42.0484 74.4369 41.8538 74.3456 41.8538 74.1629V69.9616C41.9511 69.8702 42.0484 69.8702 42.2431 69.8702C42.3404 69.8702 42.4378 69.8702 42.5351 69.9616C42.6324 70.0529 42.7298 70.0529 42.8271 70.2356L44.2871 72.6102C44.3844 72.7016 44.3844 72.7929 44.4818 72.9756C44.5791 73.0669 44.5791 73.2496 44.6764 73.3409C44.7738 73.4322 44.7738 73.5236 44.8711 73.7062C44.9684 73.7976 44.9684 73.8889 44.9684 73.9802C44.9684 73.6149 44.8711 73.1582 44.8711 72.7929C44.8711 72.4276 44.8711 71.9709 44.8711 71.6056V70.1442H44.9684C45.0658 70.1442 45.0658 70.1442 45.1631 70.1442C45.3578 70.1442 45.5524 70.2356 45.5524 70.4182V74.6196C45.5524 74.6196 45.4551 74.7109 45.3578 74.7109C45.2604 74.7109 45.1631 74.7109 45.0658 74.7109C44.9684 74.7109 44.8711 74.7109 44.7738 74.6196C44.6764 74.5282 44.5791 74.5282 44.4818 74.3456L43.0218 71.9709C43.1191 71.6969 43.1191 71.5142 43.0218 71.4229C42.9244 71.3316 42.9244 71.1489 42.8271 71.0576C42.7298 70.9662 42.7298 70.8749 42.6324 70.6922C42.5351 70.5096 42.5351 70.5096 42.5351 70.4182C42.5351 70.6922 42.5351 70.9662 42.6324 71.2402C42.6324 71.5142 42.6324 71.7882 42.6324 72.0622V74.2542H42.5351C42.3404 74.4369 42.3404 74.4369 42.2431 74.4369Z" fill="#1EAB89"/>
<path d="M52.4635 73.8888C52.4635 73.9801 52.4635 74.0715 52.3662 74.0715C52.2688 74.1628 52.2688 74.1628 52.0742 74.2541C51.9768 74.3455 51.7822 74.3455 51.4902 74.4368C51.2955 74.4368 51.0035 74.5281 50.8088 74.5281C50.4195 74.5281 50.1275 74.4368 49.8355 74.3455C49.5435 74.2541 49.2515 74.0715 49.0568 73.8888C48.8622 73.7061 48.6675 73.4321 48.5702 73.1581C48.4728 72.8841 48.3755 72.5188 48.3755 72.1535C48.3755 71.7881 48.4728 71.4228 48.5702 71.1488C48.6675 70.8748 48.8622 70.6008 49.0568 70.4181C49.2515 70.2355 49.5435 70.0528 49.8355 69.9615C50.1275 69.8701 50.4195 69.7788 50.7115 69.7788C50.9062 69.7788 51.1008 69.7788 51.2955 69.8701C51.4902 69.8701 51.6848 69.9615 51.7822 69.9615C51.8795 70.0528 51.9768 70.0528 52.0742 70.1441C52.1715 70.2355 52.1715 70.3268 52.1715 70.3268C52.1715 70.4181 52.1715 70.4181 52.0742 70.5095C52.0742 70.6008 51.9768 70.6008 51.8795 70.6008C51.7822 70.5095 51.5875 70.4181 51.3928 70.3268C51.1982 70.2355 50.9062 70.2355 50.6142 70.2355C50.3222 70.2355 50.1275 70.2355 49.9328 70.3268C49.7382 70.4181 49.5435 70.5095 49.3488 70.6921C49.1542 70.8748 49.0568 71.0575 48.9595 71.2401C48.8622 71.5141 48.8622 71.6968 48.8622 72.0621C48.8622 72.3361 48.8622 72.6101 48.9595 72.8841C49.0568 73.1581 49.1542 73.3408 49.3488 73.4321C49.5435 73.6148 49.7382 73.7061 49.9328 73.7975C50.1275 73.8888 50.4195 73.8888 50.6142 73.8888C50.8088 73.8888 51.0035 73.8888 51.1008 73.8888C51.2955 73.8888 51.3928 73.7975 51.4902 73.7975V72.4275H50.6142V72.3361V72.2448C50.6142 72.1535 50.6142 72.0621 50.7115 72.0621C50.7115 71.9708 50.8088 71.9708 50.9062 71.9708H52.1715C52.2688 71.9708 52.3662 71.9708 52.3662 72.0621C52.4635 72.1535 52.4635 72.1535 52.4635 72.2448V73.8888Z" fill="#1EAB89"/>
<path d="M62.0995 74.5281C62.0021 74.5281 62.0021 74.5281 61.9048 74.5281C61.9048 74.5281 61.8075 74.4368 61.7101 74.4368L61.4181 73.9801C61.2235 74.1628 61.0288 74.2541 60.7368 74.4368C60.4448 74.5281 60.1528 74.6195 59.8608 74.6195C59.5688 74.6195 59.3741 74.6195 59.0821 74.5281C58.8875 74.4368 58.6928 74.3455 58.4981 74.2541C58.3035 74.1628 58.2061 73.9801 58.1088 73.7975C58.0115 73.6148 58.0115 73.4321 58.0115 73.1581C58.0115 72.7928 58.1088 72.5188 58.3035 72.3361C58.4981 72.0621 58.7901 71.9708 59.0821 71.8795C58.9848 71.5141 58.8875 71.4228 58.8875 71.2401C58.7901 71.1488 58.7901 70.9661 58.7901 70.7835C58.7901 70.5095 58.8875 70.2355 59.0821 70.0528C59.2768 69.8701 59.5688 69.7788 59.9581 69.7788C60.2501 69.7788 60.4448 69.7788 60.5421 69.8701C60.6395 69.9615 60.7368 70.0528 60.7368 70.1441C60.7368 70.2355 60.7368 70.2355 60.6395 70.3268C60.6395 70.4181 60.5421 70.4181 60.5421 70.4181C60.4448 70.4181 60.3475 70.3268 60.2501 70.3268C60.1528 70.3268 60.0555 70.3268 59.8608 70.3268C59.6661 70.3268 59.4715 70.4181 59.3741 70.4181C59.2768 70.5095 59.1795 70.6008 59.1795 70.7835C59.1795 70.9661 59.1795 71.0575 59.2768 71.1488C59.3741 71.2401 59.4715 71.4228 59.6661 71.5141L61.1261 72.9755C61.2235 72.7928 61.2235 72.6101 61.3208 72.4275C61.3208 72.2448 61.4181 71.9708 61.4181 71.6968C61.4181 71.6968 61.5155 71.6968 61.5155 71.6055C61.6128 71.6055 61.6128 71.6055 61.6128 71.6055C61.8075 71.6055 61.9048 71.6968 61.9048 71.9708C61.9048 72.2448 61.9048 72.5188 61.8075 72.7015C61.7101 72.9755 61.6128 73.1581 61.5155 73.4321L62.1968 74.0715C62.4888 74.3455 62.2941 74.5281 62.0995 74.5281ZM59.8608 73.9801C60.0555 73.9801 60.2501 73.9801 60.4448 73.8888C60.6395 73.7975 60.8341 73.7061 61.0288 73.5235L59.4715 72.0621C59.3741 72.0621 59.2768 72.1535 59.1795 72.1535C59.0821 72.2448 58.9848 72.2448 58.8875 72.3361C58.7901 72.4275 58.7901 72.5188 58.6928 72.6101C58.6928 72.7015 58.5955 72.8841 58.5955 72.9755C58.5955 73.2495 58.6928 73.5235 58.8875 73.7061C59.2768 73.8888 59.5688 73.9801 59.8608 73.9801Z" fill="#1EAB89"/>
<path d="M72.124 72.0623C72.124 72.4277 72.0266 72.793 71.9293 73.1583C71.832 73.4324 71.6373 73.7064 71.4426 73.889C71.248 74.0717 70.956 74.2544 70.664 74.3457C70.372 74.437 69.9826 74.5284 69.5933 74.5284C69.3986 74.5284 69.204 74.5284 69.0093 74.5284C68.8146 74.5284 68.62 74.5283 68.4253 74.437C68.2306 74.3457 68.1333 74.2543 68.1333 74.0717V70.327C68.1333 70.2357 68.1333 70.1443 68.2306 70.1443C68.2306 70.1443 68.328 70.053 68.4253 70.053C68.62 69.9617 68.8146 69.9617 69.0093 69.9617C69.204 69.9617 69.3986 69.9617 69.5933 69.9617C69.9826 69.9617 70.372 70.053 70.664 70.1443C70.956 70.2357 71.248 70.4183 71.4426 70.601C71.6373 70.7837 71.832 71.0577 71.9293 71.3317C72.0266 71.423 72.124 71.697 72.124 72.0623ZM71.4426 72.0623C71.4426 71.7883 71.3453 71.5143 71.248 71.2403C71.1506 70.9663 71.0533 70.875 70.8586 70.6923C70.664 70.5097 70.4693 70.4183 70.2746 70.4183C70.08 70.327 69.788 70.327 69.496 70.327C69.3013 70.327 69.204 70.327 69.1066 70.327C69.0093 70.327 68.912 70.327 68.7173 70.327V73.7977C68.8146 73.7977 69.0093 73.889 69.1066 73.889C69.204 73.889 69.3986 73.889 69.5933 73.889C70.1773 73.889 70.664 73.7063 70.956 73.4323C71.3453 73.1583 71.4426 72.7017 71.4426 72.0623Z" fill="#1EAB89"/>
<path d="M74.9472 74.3456C74.8498 74.2543 74.8499 74.1629 74.8499 74.0716V70.2356C74.8499 70.1442 74.8498 70.0529 74.9472 69.9616C75.0445 69.8702 75.1419 69.8702 75.2392 69.8702H77.8672V69.9616V70.0529C77.8672 70.1442 77.8672 70.2356 77.7699 70.2356C77.7699 70.3269 77.6725 70.3269 77.5752 70.3269H75.4339V71.7882H77.4779V71.8796V71.9709C77.4779 72.0622 77.4779 72.1536 77.3805 72.1536C77.3805 72.2449 77.2832 72.2449 77.1859 72.2449H75.2392V73.7976H77.5752V73.8889C77.5752 73.8889 77.5752 73.9802 77.5752 74.0716C77.5752 74.1629 77.5752 74.2542 77.4779 74.2542C77.4779 74.3456 77.3805 74.3456 77.2832 74.3456H74.8499C75.0445 74.4369 74.9472 74.3456 74.9472 74.3456Z" fill="#1EAB89"/>
<path d="M81.8574 73.9802C82.2467 73.9802 82.4414 73.8889 82.636 73.7976C82.8307 73.6149 82.928 73.4322 82.928 73.2496C82.928 73.0669 82.8307 72.8842 82.7334 72.7929C82.636 72.7016 82.344 72.5189 82.052 72.5189L81.3707 72.3362C81.0787 72.2449 80.7867 72.0622 80.5921 71.8796C80.3974 71.6969 80.3 71.4229 80.3 71.1489C80.3 70.9662 80.3001 70.7836 80.3974 70.6009C80.4947 70.4182 80.592 70.3269 80.6894 70.2356C80.7867 70.1442 80.9814 70.0529 81.176 69.9616C81.3707 69.8702 81.5654 69.8702 81.8574 69.8702C82.052 69.8702 82.2467 69.8702 82.4414 69.9616C82.636 69.9616 82.7334 70.0529 82.928 70.0529C83.0254 70.1442 83.1227 70.1442 83.22 70.2356C83.3174 70.3269 83.3174 70.4182 83.3174 70.4182C83.3174 70.5096 83.3174 70.5096 83.22 70.6009C83.22 70.6922 83.1227 70.6922 83.1227 70.6922C83.0254 70.6009 82.8307 70.5096 82.636 70.4182C82.4414 70.3269 82.1494 70.3269 81.9547 70.3269C81.6627 70.3269 81.3707 70.4182 81.2734 70.5096C81.0787 70.6009 80.9814 70.7836 80.9814 71.0576C80.9814 71.2402 81.0787 71.3316 81.176 71.5142C81.2734 71.6056 81.4681 71.6969 81.7601 71.7882L82.2467 71.8796C82.636 71.9709 83.0254 72.1536 83.22 72.3362C83.4147 72.5189 83.6094 72.7929 83.6094 73.1582C83.6094 73.5236 83.4147 73.8889 83.1227 74.0716C82.8307 74.3456 82.4414 74.4369 81.8574 74.4369C81.6627 74.4369 81.3707 74.4369 81.176 74.3456C80.9814 74.3456 80.7867 74.2542 80.6894 74.1629C80.592 74.0716 80.3974 74.0716 80.3974 73.9802C80.3001 73.8889 80.3 73.7976 80.3 73.7976C80.3 73.7062 80.3001 73.6149 80.3974 73.6149C80.4947 73.5236 80.4947 73.5236 80.5921 73.5236C80.6894 73.6149 80.6894 73.6149 80.7867 73.7062C80.884 73.7976 80.9814 73.7976 81.0787 73.8889C81.176 73.9802 81.2734 73.9802 81.468 73.9802C81.5654 73.9802 81.6627 73.9802 81.8574 73.9802Z" fill="#1EAB89"/>
<path d="M86.7249 74.437C86.6275 74.437 86.6275 74.437 86.5302 74.437C86.3355 74.437 86.1409 74.3457 86.1409 74.163V69.9617H86.2382C86.3355 69.9617 86.3355 69.9617 86.4329 69.9617C86.6275 69.9617 86.7249 70.053 86.7249 70.2357V74.437C86.8222 74.3457 86.8222 74.437 86.7249 74.437Z" fill="#1EAB89"/>
<path d="M93.6354 73.8888C93.6354 73.9801 93.6354 74.0715 93.538 74.0715C93.4407 74.1628 93.4407 74.1628 93.246 74.2541C93.1487 74.3455 92.954 74.3455 92.662 74.4368C92.4674 74.4368 92.1754 74.5281 91.9807 74.5281C91.5914 74.5281 91.2994 74.4368 91.0074 74.3455C90.7154 74.2541 90.4234 74.0715 90.2287 73.8888C90.034 73.7061 89.8394 73.4321 89.742 73.1581C89.6447 72.8841 89.5474 72.5188 89.5474 72.1535C89.5474 71.7881 89.6447 71.4228 89.742 71.1488C89.8394 70.8748 90.034 70.6008 90.2287 70.4181C90.4234 70.2355 90.7154 70.0528 91.0074 69.9615C91.2994 69.8701 91.5914 69.7788 91.8834 69.7788C92.078 69.7788 92.2727 69.7788 92.4674 69.8701C92.662 69.8701 92.8567 69.9615 92.954 69.9615C93.0514 70.0528 93.1487 70.0528 93.246 70.1441C93.3434 70.2355 93.3434 70.3268 93.3434 70.3268C93.3434 70.4181 93.3434 70.4181 93.246 70.5095C93.246 70.6008 93.1487 70.6008 93.0514 70.6008C92.954 70.5095 92.7594 70.4181 92.5647 70.3268C92.37 70.2355 92.078 70.2355 91.786 70.2355C91.494 70.2355 91.2994 70.2355 91.1047 70.3268C90.91 70.4181 90.7154 70.5095 90.5207 70.6921C90.326 70.8748 90.2287 71.0575 90.1314 71.2401C90.034 71.5141 90.034 71.6968 90.034 72.0621C90.034 72.3361 90.034 72.6101 90.1314 72.8841C90.2287 73.1581 90.326 73.3408 90.5207 73.4321C90.7154 73.6148 90.91 73.7061 91.1047 73.7975C91.2994 73.8888 91.5914 73.8888 91.786 73.8888C91.9807 73.8888 92.1754 73.8888 92.2727 73.8888C92.4674 73.8888 92.5647 73.7975 92.662 73.7975V72.4275H91.494V72.3361V72.2448C91.494 72.1535 91.494 72.0621 91.5914 72.0621C91.5914 71.9708 91.6887 71.9708 91.786 71.9708H93.0514C93.1487 71.9708 93.246 71.9708 93.246 72.0621C93.3434 72.1535 93.3434 72.1535 93.3434 72.2448V73.8888H93.6354Z" fill="#1EAB89"/>
<path d="M96.7494 74.4369C96.5548 74.4369 96.3601 74.3456 96.3601 74.1629V69.9616C96.4574 69.8702 96.5548 69.8702 96.7494 69.8702C96.8468 69.8702 96.9441 69.8702 97.0414 69.9616C97.1388 70.0529 97.2361 70.0529 97.3334 70.2356L98.7934 72.6102C98.8908 72.7016 98.8908 72.7929 98.9881 72.9756C99.0854 73.0669 99.0854 73.2496 99.1828 73.3409C99.2801 73.4322 99.2801 73.5236 99.3774 73.7062C99.4748 73.7976 99.4748 73.8889 99.4748 73.9802C99.4748 73.6149 99.3774 73.1582 99.3774 72.7929C99.3774 72.4276 99.3774 71.9709 99.3774 71.6056V70.1442H99.4748C99.5721 70.1442 99.5721 70.1442 99.6694 70.1442C99.8641 70.1442 100.059 70.2356 100.059 70.4182V74.6196C100.059 74.6196 99.9614 74.7109 99.8641 74.7109C99.7668 74.7109 99.6694 74.7109 99.5721 74.7109C99.4748 74.7109 99.3774 74.7109 99.2801 74.6196C99.1828 74.5282 99.0854 74.5282 98.9881 74.3456L97.5281 71.9709C97.4308 71.8796 97.4308 71.7882 97.3334 71.6056C97.2361 71.5142 97.2361 71.3316 97.1388 71.2402C97.0414 71.1489 97.0414 71.0576 96.9441 70.8749C96.8468 70.7836 96.8468 70.6922 96.8468 70.6009C96.8468 70.8749 96.8468 71.1489 96.9441 71.4229C96.9441 71.6969 96.9441 71.9709 96.9441 72.2449V74.4369H96.8468C96.8468 74.4369 96.8468 74.4369 96.7494 74.4369Z" fill="#1EAB89"/>
</svg>
